<?xml version="1.0" standalone="no"?>
<!DOCTYPE svg PUBLIC "-//W3C//DTD SVG 20010904//EN"
 "http://www.w3.org/TR/2001/REC-SVG-20010904/DTD/svg10.dtd">
<svg version="1.0" xmlns="http://www.w3.org/2000/svg"
 width="70.000000pt" height="70.000000pt" viewBox="0 0 70.000000 70.000000"
 preserveAspectRatio="xMidYMid meet">
<metadata>
Created by potrace 1.14, written by Peter Selinger 2001-2017
</metadata>
<g transform="translate(0.000000,70.000000) scale(0.100000,-0.100000)"
fill="#000000" stroke="none">
<path d="M257 652 c-10 -10 -14 -21 -11 -25 3 -3 3 -33 -1 -66 -5 -43 -11 -61
-22 -63 -12 -2 -1 -19 36 -60 29 -32 57 -58 62 -58 19 0 21 31 4 50 -31 34 16
81 65 65 12 -4 27 -1 35 5 12 10 15 10 15 0 0 -7 7 -10 15 -7 8 4 17 2 20 -3
3 -5 12 -7 19 -4 17 7 40 -22 32 -41 -3 -8 0 -15 6 -15 18 0 2 106 -22 145
-12 20 -36 46 -53 59 -35 25 -93 44 -82 26 3 -5 13 -10 21 -10 8 0 14 -4 14
-9 0 -15 -18 -23 -25 -11 -4 6 -11 8 -16 5 -5 -4 -9 -1 -9 4 0 6 -13 11 -29
11 -17 0 -33 5 -36 10 -9 15 -20 12 -38 -8z m238 -73 c19 -36 9 -37 -29 -3
-23 20 -26 28 -16 34 18 11 27 5 45 -31z"/>
<path d="M202 634 c-18 -14 -32 -30 -32 -36 0 -6 8 -4 18 5 10 10 23 17 29 17
10 0 27 29 20 36 -1 2 -17 -8 -35 -22z"/>
<path d="M434 462 c2 -9 7 -32 11 -49 4 -18 11 -33 16 -33 6 0 7 5 3 12 -5 8
-2 9 9 5 10 -3 17 -2 17 2 0 5 -7 11 -15 15 -8 3 -15 16 -15 30 0 13 -7 27
-16 30 -11 4 -14 1 -10 -12z"/>
<path d="M159 442 c14 -49 40 -91 96 -157 33 -39 55 -74 55 -88 0 -13 8 -31
18 -40 14 -13 20 -13 35 -3 34 26 20 56 -67 146 -46 48 -94 105 -107 128 -28
48 -41 55 -30 14z"/>
<path d="M422 348 c-15 -15 -16 -45 -2 -53 15 -9 40 14 39 34 -1 13 -2 13 -6
-1 -2 -10 -8 -18 -13 -18 -16 0 -22 21 -10 35 15 18 9 20 -8 3z"/>
<path d="M332 58 c6 -18 25 -20 31 -3 5 10 0 15 -14 15 -12 0 -19 -5 -17 -12z"/>
</g>
</svg>
