<svg xmlns="http://www.w3.org/2000/svg" version="1.1" xmlns:xlink="http://www.w3.org/1999/xlink" width="44" height="44" x="0" y="0" viewBox="0 0 60 60" style="enable-background:new 0 0 512 512" xml:space="preserve" class=""><g><path d="M53 4h-2V3a3 3 0 0 0-6 0v1h-6V3a3 3 0 0 0-6 0v1h-6V3a3 3 0 0 0-6 0v1h-6V3a3 3 0 0 0-6 0v1H7a7.009 7.009 0 0 0-7 7v42a7.009 7.009 0 0 0 7 7h46a7.009 7.009 0 0 0 7-7V11a7.009 7.009 0 0 0-7-7Zm-6-1a1 1 0 0 1 2 0v4a1 1 0 0 1-2 0ZM35 3a1 1 0 0 1 2 0v4a1 1 0 0 1-2 0ZM23 3a1 1 0 0 1 2 0v4a1 1 0 0 1-2 0ZM11 3a1 1 0 0 1 2 0v4a1 1 0 0 1-2 0Zm42 55H7a5.006 5.006 0 0 1-5-5V14h56v39a5.006 5.006 0 0 1-5 5Zm5-46H2v-1a5.006 5.006 0 0 1 5-5h2v1a3 3 0 0 0 6 0V6h6v1a3 3 0 0 0 6 0V6h6v1a3 3 0 0 0 6 0V6h6v1a3 3 0 0 0 6 0V6h2a5.006 5.006 0 0 1 5 5Z" fill="#ffffff" opacity="1" data-original="#000000" class=""></path><path d="M52 33a3.992 3.992 0 0 0-3.806 2.832l-3.21-.147A14.94 14.94 0 0 0 40.2 25.032l1.143-1.4a4 4 0 1 0-1.551-1.264l-1.141 1.4a14.922 14.922 0 0 0-19.676 2.1l-3.429-3.052a3.984 3.984 0 1 0-1.316 1.506l3.484 3.1A14.831 14.831 0 0 0 15.5 39.773l-3.151 1.053a4.013 4.013 0 1 0 .623 1.9l3.15-1.053a14.967 14.967 0 0 0 22.965 6.234l1.611 1.84a4.009 4.009 0 1 0 1.515-1.306L40.6 46.6a14.963 14.963 0 0 0 4.3-8.919l3.19.146A4 4 0 1 0 52 33Zm-9-15a2 2 0 1 1-2 2 2 2 0 0 1 2-2Zm-31 5a2 2 0 1 1 2-2 2 2 0 0 1-2 2ZM9 45a2 2 0 1 1 2-2 2 2 0 0 1-2 2Zm12.478.793c1.675-.91 2.975-.793 4.658-.793a7.962 7.962 0 0 0 7.728 0c1.661 0 2.969-.125 4.658.793a12.925 12.925 0 0 1-17.044 0ZM38 35.086a1.5 1.5 0 0 1 0 2.828ZM24 38v-2.919c2.472.135 6.251-.017 8.014-1.736A5.933 5.933 0 0 0 36 35.916V38a6 6 0 0 1-12 0Zm12-4.119a4.511 4.511 0 0 1-3.03-3.123A1 1 0 0 0 31 31c0 2.1-4.91 2.2-7 2.08A6 6 0 1 1 36 33ZM46 52a2 2 0 1 1-2-2 2 2 0 0 1 2 2Zm-6.031-7.672a8.522 8.522 0 0 0-3.769-1.287 7.987 7.987 0 0 0 1.539-3.066A3.482 3.482 0 0 0 38 33.051a8 8 0 1 0-16 0 3.482 3.482 0 0 0 .257 6.924 7.987 7.987 0 0 0 1.543 3.066 8.522 8.522 0 0 0-3.765 1.287 12.994 12.994 0 1 1 19.938 0ZM22 37.914a1.5 1.5 0 0 1 0-2.828ZM52 39a2 2 0 1 1 2-2 2 2 0 0 1-2 2Z" fill="#ffffff" opacity="1" data-original="#000000" class=""></path></g></svg>