<svg xmlns="http://www.w3.org/2000/svg" version="1.1" xmlns:xlink="http://www.w3.org/1999/xlink" width="44" height="44" x="0" y="0" viewBox="0 0 68 68" style="enable-background:new 0 0 512 512" xml:space="preserve" class=""><g><path d="M57 46.8v-2.5c0-1.6-1.3-3-3-3H36.8c-.2-1.1-1-1.9-2.1-2.2v-3.5H43c2.5 0 4.1-2.7 2.9-4.9l-2.2-4c2.8-2.6 4.5-6.3 4.5-10.4C48.2 8.4 41.8 2 33.9 2S19.6 8.4 19.6 16.3c0 4.1 1.8 7.8 4.6 10.5L22 30.7c-1.2 2.2.4 4.9 2.9 4.9h8.3v3.5c-1 .3-1.9 1.1-2.1 2.2H13.8c-1.6 0-3 1.3-3 3v2.5c-4.9.4-8.8 4.5-8.8 9.6 0 5.3 4.3 9.6 9.6 9.6s9.6-4.3 9.6-9.6c0-5-3.9-9.1-8.8-9.5v-2.5c0-.8.7-1.5 1.5-1.5h17.5c.3.9 1 1.6 2 1.8v2.2c-4.9.4-8.8 4.5-8.8 9.5 0 5.3 4.3 9.6 9.6 9.6s9.6-4.3 9.6-9.6c0-5-3.9-9.2-8.8-9.5v-2.2c.9-.3 1.7-1 2-1.8h17.4c.8 0 1.5.7 1.5 1.5V47c-4.9.5-8.7 4.5-8.7 9.5 0 5.3 4.3 9.6 9.6 9.6s9.6-4.3 9.6-9.6c-.4-5.2-4.4-9.4-9.4-9.7zM23.9 31.7l2-3.6c2.3 1.6 5.1 2.6 8.1 2.6s5.9-1 8.2-2.6l2 3.7c.5.9-.2 1.9-1.1 1.9H25c-1-.1-1.6-1.1-1.1-2zM34 4.1c6.8 0 12.3 5.5 12.3 12.3S40.8 28.7 34 28.7s-12.3-5.5-12.3-12.3S27.2 4.1 34 4.1zM9.4 56.7v-1.9h4.1v1.9c0 1.1-.9 2-2 2-1.2.1-2.1-.9-2.1-2zm8.4 4c-.6-1.1-1.5-2-2.5-2.6.2-.4.3-.9.3-1.4v-2.2c0-2.2-1.8-4-4-4s-4.1 1.8-4.1 4c.1 1.8-.2 2.5.3 3.7-1 .6-1.8 1.4-2.3 2.4C4.5 59.5 4 58 4 56.4c0-4.1 3.3-7.5 7.4-7.6 4.4 0 7.7 3.5 7.7 7.6 0 1.6-.5 3.1-1.3 4.3zm14-4v-1.9h4.1v1.9c0 1.1-.9 2-2 2-1.2.1-2.1-.9-2.1-2zm8.4 4c-.6-1.1-1.5-2-2.5-2.6.4-1 .2-1.7.2-3.5 0-2.2-1.8-4-4-4s-4 1.8-4 4c.1 1.8-.2 2.6.3 3.7-1 .6-1.8 1.5-2.3 2.5-.9-1.2-1.4-2.7-1.4-4.3 0-4.2 3.4-7.6 7.6-7.6 4.1 0 7.6 3.4 7.6 7.6-.1 1.5-.6 3-1.5 4.2zm16.1-11.9h.2c4.2 0 7.6 3.4 7.6 7.6 0 1.6-.5 3.1-1.4 4.3-.6-1.1-1.5-2-2.5-2.6.4-1 .2-1.7.3-3.5 0-2.2-1.8-4-4-4s-4 1.8-4 4c.1 1.8-.2 2.6.3 3.7-1 .6-1.8 1.4-2.3 2.4-.9-1.2-1.4-2.7-1.4-4.3-.2-4.1 3.1-7.5 7.2-7.6zm-2 6h4.1c0 1.8.1 2-.1 2.5-.3.8-1 1.4-2 1.4-2.7.1-1.9-3.4-2-3.9z" fill="#ffffff" opacity="1" data-original="#000000" class=""></path><path d="M34 26.4c5.6 0 10.1-4.5 10.1-10.1S39.6 6.2 34 6.2s-10.1 4.5-10.1 10.1S28.5 26.4 34 26.4zM34 11c2.9 0 5.3 2.4 5.3 5.3 0 3-2.4 5.3-5.3 5.3-3 0-5.3-2.4-5.3-5.3S31 11 34 11z" fill="#ffffff" opacity="1" data-original="#000000" class=""></path><path d="M34 19c1.5 0 2.7-1.2 2.7-2.7s-1.2-2.7-2.7-2.7c-.4 0-.7.1-1 .2.4.2.7.6.7 1.1 0 .7-.5 1.2-1.2 1.2-.4 0-.8-.2-1-.6-.1.3-.1.5-.1.8-.1 1.5 1.1 2.7 2.6 2.7z" fill="#ffffff" opacity="1" data-original="#000000" class=""></path></g></svg>