<svg xmlns="http://www.w3.org/2000/svg" version="1.1" xmlns:xlink="http://www.w3.org/1999/xlink" width="50" height="50" x="0" y="0" viewBox="0 0 90 90" style="enable-background:new 0 0 512 512" xml:space="preserve"><g><path d="m70.395 65.969 6.089 10.579-4.911-.521a1.19 1.19 0 0 0-1.214.698l-2.036 4.599-6.866-11.849a8.31 8.31 0 0 0 .975-.438c1.161-.62 2.427-1.145 3.984-1.192 1.948-.052 3.031-.574 3.979-1.876zm-21.333-.01c.948 1.312 2.037 1.833 3.986 1.886 1.557.047 2.848.52 3.989 1.192.297.172.583.312.864.426l-6.786 11.845-2.031-4.583a1.192 1.192 0 0 0-1.219-.698l-4.912.521zm16.302-27.255c1.26 1.328 2.563 2.188 4.385 2.792 1.281.421 1.776.822 2.079 2.401.364 1.916.942 3.229 2.167 4.766.738.927 1.036 1.718.448 3.099-.709 1.672-.876 3.292-.724 5.193.104 1.333.025 1.938-1.298 2.858-1.636 1.146-2.547 2.131-3.458 3.948-.525 1.047-1.178 1.677-2.673 1.702-1.973.038-3.358.371-5.03 1.491-1.208.812-2.089.566-3.058 0-1.734-1.017-3.057-1.453-5.032-1.491-1.495-.025-2.145-.655-2.67-1.702-.912-1.817-1.818-2.802-3.459-3.948-1.317-.921-1.401-1.525-1.297-2.858.15-1.901-.011-3.521-.724-5.193-.583-1.38-.292-2.172.448-3.099 1.224-1.536 1.803-2.85 2.172-4.766.298-1.579.798-1.979 2.074-2.401 1.822-.604 3.129-1.459 4.385-2.792.995-1.063 1.902-1.177 3.047-.916 1.875.433 3.505.38 5.178 0 1.29-.292 2.343.175 3.04.916zm-2.041-3.5c-.475.005-.98.089-1.521.251-1.473.442-2.87.296-4.14 0a7.036 7.036 0 0 0-1.532-.21c-1.432-.009-2.594.579-3.735 1.782-1.124 1.188-2.15 1.75-3.479 2.218-2.167.762-3.208 2.052-3.62 4.167-.313 1.609-.839 2.678-1.719 3.803-1.411 1.801-1.594 3.396-.792 5.401.6 1.495.698 2.755.579 4.156-.193 2.26.531 3.75 2.271 4.968a8.511 8.511 0 0 1 1.983 1.942l-7.905 13.699c-.49.844.186 1.891 1.156 1.787l6.385-.678 2.636 5.943a1.188 1.188 0 0 0 2.118.109l7.673-13.38 7.75 13.385a1.19 1.19 0 0 0 2.12-.114l2.635-5.943 6.386.678c.969.104 1.646-.943 1.155-1.787l-7.891-13.688a8.542 8.542 0 0 1 1.996-1.954c1.739-1.219 2.457-2.708 2.265-4.968-.12-1.401-.021-2.661.578-4.156.803-2.005.625-3.6-.791-5.401-.881-1.125-1.407-2.193-1.715-3.803-.411-2.115-1.457-3.405-3.619-4.167-1.333-.467-2.354-1.03-3.479-2.218-1.144-1.202-2.321-1.848-3.748-1.822z" fill="#ffffff" opacity="1" data-original="#000000"></path><g fill-rule="evenodd" clip-rule="evenodd"><path d="M57.619 43.463a9.236 9.236 0 0 0-4.926 3.017c-2.625 3.089-2.979 7.552-.88 11.032 2.099 3.479 6.192 5.192 10.109 4.219 3.912-.98 6.746-4.417 7.021-8.486a1.18 1.18 0 0 0-1.1-1.327 1.186 1.186 0 0 0-1.26 1.177c-.203 3.063-2.323 5.609-5.234 6.339-2.906.724-5.938-.536-7.511-3.146a7.135 7.135 0 0 1 .667-8.276c1.964-2.318 5.141-3.068 7.901-1.876a1.183 1.183 0 1 0 .943-2.172 9.127 9.127 0 0 0-5.73-.501z" fill="#ffffff" opacity="1" data-original="#000000"></path><path d="M68.406 45.204a1.17 1.17 0 0 0-.817.35l-8.172 8.025-2.208-2.203c-1.12-1.12-2.792.563-1.672 1.678l2.516 2.516c.733.733 1.968.728 2.713 0l8.479-8.329c.77-.745.234-2.053-.839-2.037z" fill="#ffffff" opacity="1" data-original="#000000"></path><path d="M27.776 5.037c-.33 0-.641.146-.855.391L10.4 24.417a1.132 1.132 0 0 0-.281.746v58.655c0 .631.505 1.141 1.136 1.136h33.047a1.136 1.136 0 0 0 1.188-1.131c0-.646-.543-1.161-1.188-1.136H12.386V26.293h17.391a1.135 1.135 0 0 0 1.129-1.13v-12.99a1.134 1.134 0 1 0-2.266 0v11.854H13.739L28.291 7.302h38.371v24.776a1.14 1.14 0 0 0 1.14 1.152c.63 0 1.145-.516 1.136-1.152V6.179a1.14 1.14 0 0 0-1.136-1.142z" fill="#ffffff" opacity="1" data-original="#000000"></path></g><path d="M21.021 45.912c-1.511 0-1.402 2.267.109 2.267h15.578c1.572 0 1.572-2.276 0-2.267-4.813.032-11.365 0-15.687 0zM21.021 56.047c-1.511 0-1.402 2.266.109 2.266h15.578c1.572 0 1.572-2.276 0-2.266-4.813.026-11.365 0-15.687 0zM21.021 66.182c-1.511 0-1.402 2.267.109 2.267h15.578c1.572 0 1.572-2.276 0-2.267-4.813.032-11.365 0-15.687 0zM21.021 35.777c-1.511 0-1.402 2.265.109 2.265h20.661c1.574 0 1.574-2.276 0-2.265-4.817.025-16.448 0-20.77 0z" fill="#ffffff" opacity="1" data-original="#000000"></path></g></svg>