<svg xmlns="http://www.w3.org/2000/svg" version="1.1" xmlns:xlink="http://www.w3.org/1999/xlink" width="50" height="50" x="0" y="0" viewBox="0 0 100 100" style="enable-background:new 0 0 512 512" xml:space="preserve"><g><path d="M37.05 52.86a9.34 9.34 0 1 0 9.28 9.38 9.36 9.36 0 0 0-9.28-9.38Zm-1.74-35.92a1.79 1.79 0 0 0 0-3.57h-13a1.79 1.79 0 1 0 0 3.57Zm42.94 54.69H65.6a4 4 0 0 0-4 4.08v5.62a4 4 0 0 0 4 4h12.65a4.06 4.06 0 0 0 4-4v-5.62a4.08 4.08 0 0 0-4-4.08Zm.41 9.7a.44.44 0 0 1-.41.4H65.6a.37.37 0 0 1-.4-.4v-5.62c0-.2.1-.51.4-.51h12.65a.47.47 0 0 1 .41.51Zm11-43.06h-1.21v-14.7a6.93 6.93 0 0 0-7.24-6.84h-4.39V6.84A1.81 1.81 0 0 0 75.09 5h-61.7a1.84 1.84 0 0 0-1.84 1.84V45.2a1.82 1.82 0 0 0 1.84 1.74 1.79 1.79 0 0 0 1.73-1.74V8.57h58.13v8.16H45.82a2.2 2.2 0 0 0-1.33.51L27.16 34.29a1.89 1.89 0 0 0-.51 1.32v13a31 31 0 0 0-3 2H10.43A5.33 5.33 0 0 0 5 56.53l3.8 33.78A5.41 5.41 0 0 0 14.2 95h70.37a5.28 5.28 0 0 0 5.2-4.69L95 44.08a5.4 5.4 0 0 0-5.31-5.81ZM43.58 23.16v7.66a3.42 3.42 0 0 1-3.37 3.47h-8Zm8.26 52c-3.88-2.85-6.12-3.26-10.3-.4-3.68 2.44-4.9 2.44-8.67 0-4.08-2.86-6.73-2.45-10.61.71a17.64 17.64 0 0 1-2.55-8.88 17.24 17.24 0 1 1 32.13 8.61Zm-2.15 3A17.3 17.3 0 0 1 37 83.88a17.12 17.12 0 0 1-12.6-5.51c2.76-2.25 3.67-2.55 6.53-.61 4.89 3.26 7.75 3.26 12.65 0 2.75-1.84 3.46-1.74 6.11.4ZM86.2 89.9a1.74 1.74 0 0 1-1.63 1.53H14.2a1.87 1.87 0 0 1-1.83-1.53L8.6 56.12a1.74 1.74 0 0 1 1.83-1.94h9.89a20.36 20.36 0 0 0-4.18 12.45 20.82 20.82 0 1 0 14.08-19.69v-9.08h10a7 7 0 0 0 6.93-7V20.31h34.06a3.44 3.44 0 0 1 3.67 3.26v14.7h-25.7c-3.37 0-7.65 1.42-9 8.16a1.79 1.79 0 0 0 1.33 2.14 1.82 1.82 0 0 0 2.14-1.43c.92-4.69 3.47-5.3 5.51-5.3h30.51a1.78 1.78 0 0 1 1.74 1.94ZM56.83 31h19.69a1.79 1.79 0 0 0 1.73-1.73 1.82 1.82 0 0 0-1.73-1.84H56.83A1.83 1.83 0 0 0 55 29.29 1.81 1.81 0 0 0 56.83 31ZM37.05 68a5.74 5.74 0 0 1-5.51-4.08 9 9 0 0 0 8.06-3.06 1.81 1.81 0 0 0-2.76-2.35 5.61 5.61 0 0 1-5.2 1.84 5.64 5.64 0 0 1 5.41-3.88 5.79 5.79 0 0 1 5.71 5.81A5.7 5.7 0 0 1 37.05 68Z" fill="#ffffff" opacity="1" data-original="#000000"></path></g></svg>