<svg xmlns="http://www.w3.org/2000/svg" version="1.1" xmlns:xlink="http://www.w3.org/1999/xlink" width="50" height="50" x="0" y="0" viewBox="0 0 68 68" style="enable-background:new 0 0 512 512" xml:space="preserve"><g><path d="M61 40.8h-5.5v-1.1c0-.9-.3-1.8-.9-2.5C55.7 22.5 43.8 9.6 28.7 9.6c-14.3 0-26 11.7-26 26 0 16.2 14.7 28.4 30.6 25.5v.6c0 2.3 1.9 4.2 4.2 4.2h20.9c2.3 0 4.2-1.9 4.2-4.2v-9.6c1.5-.6 2.6-2.2 2.6-3.9V45c0-2.3-1.9-4.2-4.2-4.2zM23.2 12.3c-1.8 1.8-3.3 4.6-4.5 8-2.6 0-4.8 2.2-4.6 5-3.7 1.2-6.6 2.8-8.6 4.7 2-8.7 8.9-15.6 17.7-17.7zM16 25c0-1.5 1.2-2.8 2.8-2.8 1.5 0 2.8 1.2 2.8 2.8 0 1.5-1.2 2.8-2.8 2.8S16 26.6 16 25zm2.7 18.2c1.5 0 2.8 1.2 2.8 2.8 0 1.5-1.2 2.8-2.8 2.8-1.5 0-2.8-1.2-2.8-2.8s1.3-2.8 2.8-2.8zm-4.2-16c.5.9 1.2 1.6 2.1 2.1-.5 4.2-.5 8.2 0 12.4-1 .5-1.7 1.3-2.2 2.2-5.9-2-9.7-5.1-9.7-8.3.1-3.2 3.9-6.4 9.8-8.4zm-9.1 14c1.9 1.9 4.8 3.5 8.5 4.7 0 2.7 2.1 4.7 4.6 4.8 1.2 3.6 2.8 6.4 4.6 8.2-8.7-2.1-15.6-9-17.7-17.7zm22.3 18.2c-2.8-.7-5.4-4.1-7.2-9.1 1.1-.5 2-1.4 2.5-2.6 1.5.2 3.1.2 4.6.3v11.4zm0-13.4c-1.5 0-2.9-.1-4.3-.2-.1-2.5-2.2-4.6-4.7-4.6h-.1c-.4-3.8-.4-7.6 0-11.4 2.6 0 4.6-2 4.8-4.4 1.4-.1 2.9-.2 4.3-.2zm0-22.8c-1.6 0-3.1.1-4.6.3-.4-1.2-1.4-2.2-2.5-2.7 1.8-5 4.4-8.3 7.1-9zm25.8 16.5v1.1h-11v-1.1c0-1.1.9-2 2-2h7c1.1 0 2 .9 2 2zM52 30c-2.5-2.5-6.7-4.4-12.1-5.7-1.2-5.4-3.2-9.6-5.7-12.1C43 14.4 49.9 21.3 52 30zM29.7 11.7c3.3.8 6.4 5.4 8.1 12.2-2.6-.5-5.3-.7-8.1-.8zm3.6 47.4c-1.2.2-2.4.4-3.6.4V25.2c3 .1 5.8.3 8.5.9.5 2.4.8 5 .9 7.7 0 .6.5 1 1 1s1-.5 1-1c-.1-2.5-.4-4.8-.8-7.1 7.4 1.8 12.3 5.4 12.3 9.1v.4c-1.1-.4-1.2-.1-8.2-.2-2.2 0-4 1.8-4 4v1.1H35c-2.3 0-4.2 1.9-4.2 4.2v3.3c0 1.7 1 3.3 2.6 3.9v6.6zM47 63.9h-9.5c-1.2 0-2.2-1-2.2-2.2v-8.9c2.5.6 5.8 1.1 8.9 1.2v2.8c0 .6.4 1 1 1H47zm-.7-8.1v-4.3h3.5v4.3zm14.4 5.9c0 1.2-1 2.2-2.2 2.2H49v-6.1h1.7c.6 0 1-.4 1-1v-2.9c2.8-.2 5.9-.6 9-1.3zm2.5-13.4c0 1-.7 1.9-1.8 2.2-2.9.6-6.3 1.2-9.7 1.5v-1.5c0-.6-.4-1-1-1h-5.5c-.6 0-1 .4-1 1V52c-3.3-.2-6.6-.7-9.7-1.5-1-.2-1.8-1.2-1.8-2.2V45c0-1.2 1-2.2 2.2-2.2h26c1.2 0 2.2 1 2.2 2.2v3.3z" fill="#ffffff" opacity="1" data-original="#000000"></path><path d="M9.7 4.1c-.5-.1-1.1.2-1.2.7L7 10.3c-.1.5.2 1.1.7 1.2l5.5 1.5c.5.1 1.1-.2 1.2-.7s-.2-1.1-.7-1.2l-3.6-1C15.5 6.1 22 4 28.8 4c17.8 0 31.9 14.7 31.5 32 0 .6.4 1 1 1 .5 0 1-.4 1-1 .3-18.2-14.7-33.9-33.6-33.9-6.8 0-13.5 2.1-19.1 6l.7-2.7c.2-.6-.1-1.1-.6-1.3z" fill="#ffffff" opacity="1" data-original="#000000"></path></g></svg>