<svg xmlns="http://www.w3.org/2000/svg" version="1.1" xmlns:xlink="http://www.w3.org/1999/xlink" width="50" height="50" x="0" y="0" viewBox="0 0 512 512" style="enable-background:new 0 0 512 512" xml:space="preserve" class=""><g><path d="M202.166 378.423c-13.573-4.407-30.109-6.969-48.142-6.969-47.342 0-84.426 17.615-84.426 40.104v26.899c0 22.487 37.084 40.103 84.426 40.103 11.876 0 23.105-1.109 33.268-3.126C190.951 496.203 226.56 512 271.387 512c47.342 0 84.427-17.615 84.427-40.104V455.88c.721.009 1.436.025 2.162.025 47.342 0 84.426-17.615 84.426-40.104v-26.899c0-22.487-37.084-40.103-84.426-40.103-5.294 0-10.45.231-15.45.654-14.801-6.165-34.316-9.867-55.998-9.867-46.447.001-82.995 16.96-84.362 38.837zm155.809 69.482c-.728 0-1.441-.017-2.162-.024v-2.883c0-4.435-1.462-8.674-4.14-12.632a61.785 61.785 0 0 0 5.27-3.371c.345.002.685.012 1.031.012 34.208 0 63.05-9.2 76.426-22.787v9.582c.001 15.504-30.709 32.103-76.425 32.103zM271.387 504c-45.717 0-76.427-16.6-76.427-32.104v-9.581c13.376 13.587 42.219 22.786 76.427 22.786s63.05-9.199 76.427-22.786v9.581C347.813 487.4 317.104 504 271.387 504zM154.024 379.454c18.997 0 35.389 2.872 48.077 7.335v19.8c0 .062.009.122.009.184-.186-.026-.37-.057-.563-.057h-10.872c-2.251-6.92-10.218-11.909-19.997-11.909-11.582 0-20.655 6.988-20.655 15.909 0 4.288-5.793 7.91-12.65 7.91-6.861 0-12.657-3.622-12.657-7.91 0-4.287 5.796-7.909 12.657-7.909a4 4 0 0 0 0-8c-9.779 0-17.747 4.989-19.998 11.909h-10.874a4 4 0 0 0 0 8h10.874c2.251 6.921 10.219 11.91 19.999 11.91 11.58 0 20.65-6.988 20.65-15.91 0-4.287 5.795-7.909 12.655-7.909s12.656 3.622 12.656 7.909c0 4.288-5.795 7.91-12.656 7.91a4 4 0 0 0 0 8c9.779 0 17.746-4.989 19.997-11.91h10.872c.738 0 1.42-.214 2.014-.563a25.417 25.417 0 0 0 2.679 5.066c-10.166 5.824-16.854 13.087-18.727 21.139-9.861 2.08-21.12 3.303-33.489 3.303-45.716 0-76.426-16.6-76.426-32.104s30.71-32.103 76.425-32.103zm132.503 40.34c34.207 0 63.05-9.2 76.426-22.787v9.582c0 15.503-30.71 32.103-76.426 32.103s-76.426-16.6-76.426-32.103v-9.582c13.377 13.587 42.219 22.787 76.426 22.787zm-91.567 25.204c0-6.85 6.002-13.91 16.636-19.662 5.741 5.266 13.852 9.815 23.722 13.344-.223.481-.416.974-.579 1.477h-10.875a4 4 0 0 0 0 8h10.875c2.251 6.92 10.218 11.909 19.997 11.909 10.616 0 19.101-5.879 20.444-13.729 3.708.227 7.489.355 11.348.355 4.683 0 9.26-.179 13.716-.512-1.475 3.344-6.458 5.886-12.202 5.886a4 4 0 0 0 0 8c9.779 0 17.746-4.989 19.997-11.909h10.871a4 4 0 0 0 4-4 3.94 3.94 0 0 0-.205-1.205c8.055-1.773 15.377-4.128 21.753-6.957 2.191 2.957 3.356 6 3.356 9.004 0 15.504-30.71 32.104-76.427 32.104s-76.427-16.601-76.427-32.105zm48.116-3.859c7.342 2.055 15.433 3.591 24.065 4.52-1.16 3.598-6.368 6.407-12.406 6.407-6.86 0-12.656-3.622-12.656-7.909 0-1.062.358-2.083.997-3.018zm127.878-60.63a19.077 19.077 0 0 1 3.677-.356c6.86 0 12.656 3.621 12.656 7.908 0 4.288-5.796 7.91-12.656 7.91a4 4 0 0 0-3.677 2.427zM77.599 428.875c13.376 13.587 42.219 22.786 76.426 22.786 11.748 0 22.861-1.087 32.936-3.062v18.771c-9.729 2.01-20.796 3.188-32.936 3.188-45.716 0-76.426-16.6-76.426-32.103zm288.044-8.033c3.431-4.411 5.311-9.208 5.311-14.253v-5.045a4 4 0 0 0 3.677 2.427c9.779 0 17.747-4.989 19.998-11.91h10.87a4 4 0 0 0 0-8h-10.87c-2.252-6.92-10.218-11.908-19.998-11.908-1.718 0-3.372.171-4.958.462-2.098-5.818-6.736-11.17-13.394-15.795.567-.005 1.125-.02 1.697-.02 45.716 0 76.426 16.6 76.426 32.103-.001 14.618-27.313 30.206-68.759 31.939zm-2.689-41.153c0 15.504-30.71 32.104-76.426 32.104s-76.426-16.601-76.426-32.104 30.71-32.103 76.426-32.103 76.426 16.601 76.426 32.103z" fill="#ffffff" opacity="1" data-original="#000000" class=""></path><path d="M282.527 378.848c0 4.288-5.793 7.91-12.651 7.91-6.86 0-12.656-3.622-12.656-7.91 0-4.287 5.796-7.908 12.656-7.908a4 4 0 0 0 0-8c-9.779 0-17.746 4.988-19.997 11.908h-10.875a4 4 0 0 0 0 8h10.874c2.251 6.921 10.218 11.91 19.998 11.91 11.58 0 20.651-6.988 20.651-15.91 0-4.287 5.795-7.908 12.655-7.908s12.656 3.621 12.656 7.908c0 4.288-5.796 7.91-12.656 7.91a4 4 0 0 0 0 8c9.779 0 17.746-4.989 19.998-11.91h10.87a4 4 0 0 0 0-8h-10.87c-2.251-6.92-10.218-11.908-19.997-11.908-11.583-.001-20.656 6.987-20.656 15.908zM201.282 3.371l-10.037 23.372a108.459 108.459 0 0 0-24.087 9.996l-23.636-9.438a4.002 4.002 0 0 0-3.947.563 132.182 132.182 0 0 0-22.682 22.681 4.001 4.001 0 0 0-.564 3.948l9.437 23.633a108.511 108.511 0 0 0-9.991 24.091l-23.372 10.034a3.998 3.998 0 0 0-2.392 3.19 132.674 132.674 0 0 0-.978 16.042c0 5.323.329 10.717.977 16.032a4 4 0 0 0 2.393 3.191l23.372 10.034a108.465 108.465 0 0 0 9.991 24.09l-9.437 23.633a4.001 4.001 0 0 0 .564 3.948 132.087 132.087 0 0 0 22.683 22.682 4.003 4.003 0 0 0 3.946.563l23.636-9.438c1.548.874 3.121 1.698 4.707 2.493 8.133 37.615 41.65 65.889 81.663 65.889 46.076 0 83.561-37.485 83.561-83.562 0-16.682-4.933-32.225-13.389-45.283.552-1.66 1.075-3.33 1.545-5.016l23.372-10.034a4.001 4.001 0 0 0 2.393-3.194c.649-5.349.978-10.742.978-16.03 0-5.303-.329-10.699-.978-16.039a3.998 3.998 0 0 0-2.393-3.193l-23.372-10.034a108.16 108.16 0 0 0-9.997-24.093l9.438-23.631a4.001 4.001 0 0 0-.564-3.948 132.081 132.081 0 0 0-22.682-22.682 4.004 4.004 0 0 0-3.947-.563l-23.631 9.438a108.64 108.64 0 0 0-24.087-9.996L239.74 3.371a4 4 0 0 0-3.194-2.393A133.749 133.749 0 0 0 220.513 0c-5.295 0-10.691.329-16.037.978a3.998 3.998 0 0 0-3.194 2.393zm32.025 5.294 9.882 23.013a3.999 3.999 0 0 0 2.668 2.293 100.57 100.57 0 0 1 25.662 10.649 4.005 4.005 0 0 0 3.511.267l23.272-9.294a124.223 124.223 0 0 1 18.093 18.092l-9.296 23.273a4 4 0 0 0 .268 3.513 100.23 100.23 0 0 1 10.649 25.662 4.001 4.001 0 0 0 2.293 2.671l23.014 9.88c.441 4.274.664 8.569.664 12.799 0 4.219-.223 8.511-.664 12.79l-23.014 9.881a4 4 0 0 0-2.293 2.67c-.074.286-.161.569-.238.855a84.23 84.23 0 0 0-18.222-16.333c.401-3.236.633-6.524.633-9.868 0-43.935-35.743-79.678-79.678-79.678s-79.679 35.743-79.679 79.678c0 25.528 12.083 48.274 30.814 62.866a83.586 83.586 0 0 0-1.679 16.695c0 2.622.137 5.211.374 7.771-.278-.16-.561-.311-.837-.473a3.995 3.995 0 0 0-3.512-.267l-23.278 9.294a124.082 124.082 0 0 1-18.093-18.093l9.294-23.274a4.002 4.002 0 0 0-.267-3.511 100.423 100.423 0 0 1-10.643-25.663 4 4 0 0 0-2.293-2.67l-23.016-9.882a124.953 124.953 0 0 1-.662-12.79c0-4.254.222-8.549.662-12.798l23.016-9.881a4 4 0 0 0 2.293-2.67 100.466 100.466 0 0 1 10.643-25.665 4 4 0 0 0 .267-3.51l-9.294-23.273a124.23 124.23 0 0 1 18.093-18.093l23.278 9.294a4.008 4.008 0 0 0 3.512-.267 100.47 100.47 0 0 1 25.661-10.649 3.996 3.996 0 0 0 2.668-2.293l9.883-23.014a124.154 124.154 0 0 1 25.591.003zm20.22 277.937c-41.664 0-75.561-33.897-75.561-75.562s33.896-75.561 75.561-75.561 75.561 33.896 75.561 75.561-33.896 75.562-75.561 75.562zm38.437-149.721a83.02 83.02 0 0 0-38.437-9.402c-37.292 0-68.949 24.56-79.666 58.352-15.307-13.155-25.03-32.634-25.03-54.352 0-39.523 32.155-71.678 71.679-71.678 39.523 0 71.678 32.154 71.678 71.678 0 1.819-.09 3.617-.224 5.402z" fill="#ffffff" opacity="1" data-original="#000000" class=""></path><path d="M280.253 228.737c0-11.964-11.989-21.697-26.726-21.697-10.324 0-18.723-6.146-18.723-13.701 0-7.553 8.399-13.698 18.723-13.698 10.326 0 18.726 6.145 18.726 13.698a4 4 0 0 0 8 0c0-10.86-9.879-19.881-22.725-21.454v-10.917a4 4 0 0 0-8 0v10.916c-12.845 1.572-22.724 10.593-22.724 21.454 0 11.966 11.988 21.701 26.723 21.701 10.326 0 18.726 6.145 18.726 13.697 0 7.554-8.4 13.7-18.726 13.7-10.324 0-18.723-6.146-18.723-13.7a4 4 0 0 0-8 0c0 10.862 9.879 19.884 22.724 21.456v10.915a4 4 0 0 0 8 0v-10.915c12.846-1.572 22.725-10.593 22.725-21.455zM380.822 166.824c-10.339 0-18.75 8.412-18.75 18.751v61.762h-19.39a4 4 0 0 0-3.411 6.089l38.141 62.249a4 4 0 0 0 6.822 0l38.144-62.249a3.999 3.999 0 0 0-3.411-6.089h-19.393v-61.762c-.001-10.339-8.412-18.751-18.752-18.751zm0 139.106-30.999-50.593h16.248a4 4 0 0 0 4-4v-65.762c0-5.928 4.823-10.751 10.75-10.751 5.928 0 10.751 4.823 10.751 10.751v65.762a4 4 0 0 0 4 4h16.25z" fill="#ffffff" opacity="1" data-original="#000000" class=""></path></g></svg>