<svg xmlns="http://www.w3.org/2000/svg" version="1.1" xmlns:xlink="http://www.w3.org/1999/xlink" width="50" height="50" x="0" y="0" viewBox="0 0 512 512" style="enable-background:new 0 0 512 512" xml:space="preserve" class=""><g><path d="M376.338 504.5h94.052c7.807 0 14.137-6.329 14.137-14.137v-20.78H27.474v20.78c0 7.807 6.329 14.137 14.137 14.137h299.724" style="stroke-width:15;stroke-linecap:round;stroke-linejoin:round;stroke-miterlimit:10;" fill="none" stroke="#ffffff" stroke-width="15" stroke-linecap="round" stroke-linejoin="round" stroke-miterlimit="10" data-original="#000000" class="" opacity="1"></path><path d="M444.649 426.667H67.351c-22.024 0-39.878 17.854-39.878 39.878v3.039h457.053v-3.039c0-22.025-17.853-39.878-39.877-39.878zM70.512 373.213v-46.912l31.717 45.928c.588.85 1.218.433 1.218-.6l-.439-45.416M134.385 326.213v47M390.142 326.213v47M244.622 326.428h-19.623v46.57h19.623M243.175 349.713h-18.176M358.335 331.045s-8.5-7.302-18.379-4.093c-7.237 2.351-9.71 9.64-7.101 14.4 3.141 5.731 9.782 6.08 16.972 8.733 17.309 6.384 9.853 23.13-4.081 23.13-6.978 0-12.834-3.056-16.378-6.967M474.598 326.213l15.012 22.992 14.89-22.873M489.552 373.213l.058-24.008M162.595 326.213l16.069 46.294c.337.948 1.68.939 2.004-.014l15.346-46.194M7.5 326.213v32.341c0 5.508 2.732 9.216 7.373 12.181 2.26 1.444 5.115 2.473 8.663 2.478 3.073.004 5.641-.707 7.764-1.777 5.409-2.724 8.858-6.86 8.858-12.916v-32.307M419.815 326.213h25.956M432.741 327.714v45.499M281.923 350.781l19.743 22.432M276.256 326.213v47M301.666 338.428c0 6.746-5.915 12.215-12.906 12.215-3.467 0-12.403.054-12.403.054l-.087-24.483h12.49c6.991-.001 12.906 5.468 12.906 12.214zM457.667 271.682v-57.155M54.333 214.527v58.156M372.667 122.85V78.002l-106.071-67.42a19.751 19.751 0 0 0-21.191 0l-106.071 67.42v44.848M201.333 122.85H63.773a13.908 13.908 0 0 0-13.575 10.884L36.393 195.7c-1.935 8.688 4.675 16.932 13.575 16.932h89.366M372.667 212.632h89.365c8.901 0 15.511-8.245 13.575-16.932l-13.805-61.966a13.908 13.908 0 0 0-13.575-10.884H310.416M119.771 90.436l19.562-12.434M392.229 90.436l-19.562-12.434" style="stroke-width:15;stroke-linecap:round;stroke-linejoin:round;stroke-miterlimit:10;" fill="none" stroke="#ffffff" stroke-width="15" stroke-linecap="round" stroke-linejoin="round" stroke-miterlimit="10" data-original="#000000" class="" opacity="1"></path><path d="M372.667 269.998v-94.469a22.642 22.642 0 0 0-10.496-19.109l-95.575-60.748a19.751 19.751 0 0 0-21.191 0L149.83 156.42a22.642 22.642 0 0 0-10.496 19.109v94.47" style="stroke-width:15;stroke-linecap:round;stroke-linejoin:round;stroke-miterlimit:10;" fill="none" stroke="#ffffff" stroke-width="15" stroke-linecap="round" stroke-linejoin="round" stroke-miterlimit="10" data-original="#000000" class="" opacity="1"></path><path d="M321.333 270.998v-52.471H190.667v52.471M256 218.527v52.155M113.669 272.683H484.5c11.046 0 20 8.954 20 20M7.5 292.683c0-11.046 8.954-20 20-20h51.165M504.5 406.667c0 11.046-8.954 20-20 20h-457c-11.046 0-20-8.954-20-20" style="stroke-width:15;stroke-linecap:round;stroke-linejoin:round;stroke-miterlimit:10;" fill="none" stroke="#ffffff" stroke-width="15" stroke-linecap="round" stroke-linejoin="round" stroke-miterlimit="10" data-original="#000000" class="" opacity="1"></path></g></svg>