<svg xmlns="http://www.w3.org/2000/svg" version="1.1" xmlns:xlink="http://www.w3.org/1999/xlink" width="50" height="50" x="0" y="0" viewBox="0 0 512 512" style="enable-background:new 0 0 512 512" xml:space="preserve"><g><path d="m466.868 175.875-18.604-10.742V77.548l5.951-1.581c3.506-.931 5.946-4.104 5.946-7.732s-2.44-6.801-5.946-7.732L257.571 8.268a8.009 8.009 0 0 0-4.107 0L56.821 60.503c-3.506.931-5.946 4.104-5.946 7.732s2.44 6.801 5.946 7.732l56.235 14.938V192.17a8.001 8.001 0 0 0 6.561 7.87c22.897 4.187 41.777 7.836 56.948 10.769 39.107 7.56 59.03 11.34 78.953 11.34 19.922 0 39.845-3.78 78.953-11.34 15.17-2.933 34.051-6.583 56.947-10.769a8 8 0 0 0 6.562-7.87V90.904l34.283-9.107v83.336l-18.604 10.741a7.998 7.998 0 0 0-4 6.928v68.942a8.001 8.001 0 0 0 12.808 6.394l17.797-13.382 17.796 13.382a7.999 7.999 0 0 0 12.808-6.394v-68.942a7.998 7.998 0 0 0-4-6.927zm-84.888 9.63c-20.047 3.698-36.812 6.939-50.546 9.594-75.918 14.676-75.918 14.675-151.832 0-13.734-2.655-30.499-5.896-50.546-9.594v-90.35l124.407 33.047a7.987 7.987 0 0 0 4.108 0L381.98 95.155zm-126.462-73.313L90.036 68.235l165.481-43.958L421 68.235zm199.35 123.528-9.796-7.366a8 8 0 0 0-9.615 0l-9.797 7.367v-48.299l14.604-8.432 14.604 8.432zm-199.35 124.918c39.163 0 71.025-31.861 71.025-71.024a8 8 0 0 0-8-8h-126.05a8 8 0 0 0-8 8c0 39.163 31.861 71.024 71.025 71.024zm54.445-63.024c-3.886 26.562-26.821 47.024-54.445 47.024s-50.559-20.462-54.444-47.024zm151.942-16H352.94a8 8 0 0 0-8 8c0 49.308-40.115 89.422-89.423 89.422s-89.422-40.115-89.422-89.422a8 8 0 0 0-8-8H49.132a8 8 0 0 0-8 8v27.931a8 8 0 0 0 5.126 7.466l30.314 11.669a183.778 183.778 0 0 0 19.14 46.169l-13.193 29.706a8 8 0 0 0 1.654 8.904l39.502 39.5a7.999 7.999 0 0 0 8.903 1.655l29.717-13.198a183.76 183.76 0 0 0 46.154 19.135l11.672 30.323a7.998 7.998 0 0 0 7.466 5.126h55.863a8 8 0 0 0 7.466-5.126l11.669-30.315a183.746 183.746 0 0 0 46.168-19.14l29.706 13.194a7.997 7.997 0 0 0 8.904-1.654l39.501-39.501a8 8 0 0 0 1.654-8.904l-13.199-29.717a183.75 183.75 0 0 0 19.137-46.154l30.323-11.672a8 8 0 0 0 5.126-7.466v-27.931a8 8 0 0 0-8-8zm-8 30.438-29.075 11.191a7.996 7.996 0 0 0-4.908 5.614 167.923 167.923 0 0 1-20.413 49.234 8.004 8.004 0 0 0-.499 7.442l12.656 28.496-31.732 31.733-28.485-12.651a7.999 7.999 0 0 0-7.442.5 167.836 167.836 0 0 1-49.246 20.415 8 8 0 0 0-5.614 4.909L277.957 488H233.08l-11.191-29.075a8 8 0 0 0-5.613-4.909 167.867 167.867 0 0 1-49.234-20.412 8.002 8.002 0 0 0-7.441-.5l-28.496 12.656-31.732-31.732 12.651-28.485a8.001 8.001 0 0 0-.5-7.442 167.906 167.906 0 0 1-20.416-49.247 7.996 7.996 0 0 0-4.908-5.614l-29.066-11.188v-14.438h93.265c4.099 54.41 49.681 97.422 105.121 97.422 55.441 0 101.023-43.013 105.122-97.422h93.266v14.438z" fill="#ffffff" opacity="1" data-original="#000000"></path></g></svg>