<svg xmlns="http://www.w3.org/2000/svg" version="1.1" xmlns:xlink="http://www.w3.org/1999/xlink" width="50" height="50" x="0" y="0" viewBox="0 0 64 64" style="enable-background:new 0 0 512 512" xml:space="preserve" class=""><g><path d="M32 31.5a5 5 0 1 0-5-5 5 5 0 0 0 5 5zm0-8a3 3 0 1 1-3 3 3 3 0 0 1 3-3z" fill="#ffffff" opacity="1" data-original="#000000"></path><path d="M4.77 42.31a1 1 0 0 0 1.06-.41l3.09-4.56 4.18 7.39a21.89 21.89 0 0 1 1.21 7.41c0 .89.09 1.78.16 2.7l.53 6.24a1 1 0 0 0 1 .92h9a1 1 0 0 0 1-1v-1.43L28.73 39a.57.57 0 0 0 0-.13 1.41 1.41 0 0 0-2.55-.82l-5 6.82-.06.09a1 1 0 0 1-1.75-1l5.08-6.8a6.82 6.82 0 0 1 5.46-2.74h4.16a6.82 6.82 0 0 1 5.46 2.74L44.61 44a1 1 0 0 1-1.74 1l-.09-.13-5-6.19a1.38 1.38 0 0 0-1.53-.53 1.39 1.39 0 0 0-1 1.35.66.66 0 0 0 0 .14L38 59.57v1.27A1 1 0 0 0 39 62h9a1 1 0 0 0 1-1v-3.45a37.5 37.5 0 0 1 2-12.11 14.39 14.39 0 0 1 2.68-4.73l2.48-2.93 3.25 2.39a1 1 0 0 0 1 .11 1 1 0 0 0 .59-.83l1-11.79a1 1 0 0 0-1-1.08H49a1 1 0 0 0-.9.56 1 1 0 0 0 .11 1.05l2.36 3.1-4.94 3.47-4.36-18H53a1 1 0 0 0 .52-1.85l-21-12.78a1 1 0 0 0-1 0l-21 12.78a1 1 0 0 0 .48 1.87h11.82l-2.63 15.46-5.56-1.36 3.2-4.71a1 1 0 0 0 0-1.06 1 1 0 0 0-.94-.5l-14 1A1 1 0 0 0 2 26.72l2 14.75a1 1 0 0 0 .77.84zM15 26.75 12.17 31a1 1 0 0 0-.1.92 1 1 0 0 0 .69.61l8 2a1 1 0 0 0 .79-.13 1.06 1.06 0 0 0 .44-.67L25 16a1 1 0 0 0-.23-.82 1 1 0 0 0-.76-.35h-9.44L32 4.17l17.43 10.61H40A1 1 0 0 0 39 16l5 20.64a1 1 0 0 0 1.54.58l7-4.91a1 1 0 0 0 .22-1.43L51 28.58h8.89l-.76 8.92-2.56-1.88a1 1 0 0 0-1.35.15l-3.08 3.64a16.56 16.56 0 0 0-3.04 5.39A39.72 39.72 0 0 0 47 57.55V60h-7v-.5a.66.66 0 0 0 0-.14l-2.44-17.8 3.63 4.51a3 3 0 0 0 5.55-1.57 3.05 3.05 0 0 0-.4-1.49l-.07-.11-5.13-6.9a8.8 8.8 0 0 0-7.06-3.54h-4.16A8.8 8.8 0 0 0 22.86 36l-5.12 6.9a.61.61 0 0 0-.07.1 3 3 0 0 0-.3 2.28 3 3 0 0 0 1.41 1.82 3 3 0 0 0 4-1.05l3.6-4.91L24 59.37a.57.57 0 0 0 0 .13v.5h-7.08l-.45-5.32c-.08-.9-.12-1.77-.16-2.63a23.61 23.61 0 0 0-1.38-8.14l-.06-.11-5-8.8a1 1 0 0 0-.87-.56 1 1 0 0 0-.87.44l-2.49 3.73-1.51-11.1z" fill="#ffffff" opacity="1" data-original="#000000"></path><path d="M36 62v-2.5a.49.49 0 0 0 0-.12l-1-8a3 3 0 0 0-3-2.93 3 3 0 0 0-3 2.93l-1 8a.49.49 0 0 0 0 .12V62h2v-2.44l1-7.94a.49.49 0 0 0 0-.12 1 1 0 0 1 1-1 1 1 0 0 1 .71.31.93.93 0 0 1 .29.69.49.49 0 0 0 0 .12l1 7.94V62z" fill="#ffffff" opacity="1" data-original="#000000"></path></g></svg>