<svg xmlns="http://www.w3.org/2000/svg" version="1.1" xmlns:xlink="http://www.w3.org/1999/xlink" width="50" height="50" x="0" y="0" viewBox="0 0 50 50" style="enable-background:new 0 0 512 512" xml:space="preserve" class=""><g><path d="M45.1 10.4 26.5 1.1c-.2-.1-.5-.1-.7 0-3.9 2 9.9-4.9-18.5 9.3-.2.1-.4.4-.4.7V22h-.3c-.3 0-.6.2-.7.6l-1.3 4.9c-.1.5.2.9.7.9H10c.2 0 .4-.1.6-.3.1-.2.2-.4.1-.6l-1.3-4.9c-.1-.3-.4-.6-.7-.6h-.3v-9.7l4.9 2.4v8.8c0 .2.1.4.2.5 3.5 3.5 8.1 5.2 12.7 5.2s9.2-1.8 12.7-5.2c.1-.1.2-.3.2-.5v-8.8l6-3c.3-.1.4-.4.4-.7s-.2-.5-.4-.6zM9 26.8H6.3l.9-3.4h1zm28.6-3.7c-6.4 6.1-16.5 6.1-22.8 0v-7.7L25.9 21c.2.1.5.1.7 0l11.1-5.5v7.6zm-11.4-3.6-15.4-7.7h12.1c.4 1 1.7 1.8 3.3 1.8 2 0 3.5-1.1 3.5-2.5s-1.5-2.5-3.5-2.5c-1.6 0-2.8.7-3.3 1.8H10.8l15.3-7.7L43 11zm-2-8.5c0-.5.9-1 2-1s2 .5 2 1-.9 1-2 1-2-.5-2-1zM46.5 37.8l-1.9-7.3c-.1-.4-.5-.6-.8-.6l-15.6 2.3h-6.3L6.3 30c-.4-.1-.7.2-.8.6l-1.9 7.3c-.1.2 0 .5.2.7.1.2.3.3.6.3h.1l1.4-.2L8 43.2c.1.3.4.4.7.4h.1l8.7-1.5-1.2 3.4c-.2.6.4 1.2 1 .9l3.1-1.5 1.5 3.1c.3.6 1.2.6 1.4-.1l1.5-4.1 2.2 4.7c.3.6 1.2.6 1.4-.1l1.2-3.2 3.2 1.2c.6.2 1.2-.4.9-1L32.1 42l9.1 1.6h.1c.3 0 .5-.2.7-.4l2.3-4.6 1.4.2h.1c.2 0 .4-.1.6-.3.1-.2.1-.4.1-.7zm-41.2-.7 1.5-5.6 14.3 2.1V35zm3.8 5-1.8-3.7 13.8-1.8V40zm13.4 3.7-1-2.2c-.2-.4-.6-.5-1-.4l-2.2 1 .9-2.5 2.7-.5h1.7l.3.6zm.1-5.9v-6.1h4.9v6.1h-4.9zm6.7 3.7c-.4-.1-.8.1-1 .4l-.8 2.2-2.2-4.6-.1-.3h2.9l2.2.4 1.3 2.7zm11.6-1.5-12-2.1v-3.4l13.8 1.8zm-12-7v-1.4l14.3-2.1 1.5 5.6z" fill="#f8941f" opacity="1" data-original="#000000"></path></g></svg>