<svg xmlns="http://www.w3.org/2000/svg" version="1.1" xmlns:xlink="http://www.w3.org/1999/xlink" width="50" height="50" x="0" y="0" viewBox="0 0 500 500" style="enable-background:new 0 0 512 512" xml:space="preserve" class=""><g><path fill-rule="evenodd" d="M212.487 100.031a6.464 6.464 0 0 1-8.314-3.802 6.464 6.464 0 0 1 3.802-8.314c34.163-12.72 71.969-12.72 106.133 0a6.464 6.464 0 0 1-4.512 12.116c-31.148-11.597-65.96-11.596-97.109 0zm70.37 208.509c0-19.468-23.644-29.263-37.41-15.496-13.767 13.767-3.97 37.41 15.496 37.41 12.105 0 21.914-9.81 21.914-21.914zm73.176-8.958v50.56c0 5.971-4.882 10.854-10.854 10.854h-39.337a5.397 5.397 0 0 0-5.397 5.397v81.243a3.172 3.172 0 0 1-3.157 3.157H224.6a3.172 3.172 0 0 1-3.157-3.157v-81.243a5.397 5.397 0 0 0-5.397-5.397h-62.003a9.533 9.533 0 0 1-6.753-2.815c-6.09-6.09-1.617-16.322 6.753-16.322h99.836c.269 0 .5.101.682.299a.896.896 0 0 1 .242.704l-5.254 63.982a.902.902 0 0 0 .249.712l10.472 11.106c.182.193.409.291.674.291s.493-.099.674-.291l10.471-11.106a.897.897 0 0 0 .249-.712l-5.253-63.982c-.022-.268.06-.506.242-.704s.413-.299.682-.299h63.489a5.398 5.398 0 0 0 5.398-5.397v-36.88a9.537 9.537 0 0 1 2.815-6.754c6.09-6.09 16.322-1.617 16.322 6.754zm89.493-104.164h-95.4a.928.928 0 0 0-.927.927v12.056c0 .511.416.927.927.927h95.4a.928.928 0 0 0 .927-.927v-12.056a.929.929 0 0 0-.927-.927zm-12.792-53.217-36.558 40.712c-.25.278-.309.655-.157.997s.472.55.846.55h52.221a.901.901 0 0 0 .69-.307l36.559-40.712c.25-.278.309-.655.157-.997s-.473-.549-.847-.549h-52.221a.89.89 0 0 0-.69.306zM346.582 87.2c13.977 13.976 37.978 4.03 37.978-15.731 0-19.76-24.001-29.707-37.978-15.731-8.687 8.687-8.687 22.775 0 31.462zm-13.031 30.455c7.384-7.384 17.566-11.969 28.761-11.969 22.391 0 40.731 18.34 40.731 40.731v12.115a.896.896 0 0 1-.237.619l-22.449 25a.897.897 0 0 1-.69.308h-35.948a5.48 5.48 0 0 0-5.48 5.48v18.463a.928.928 0 0 1-.927.927h-13.814a1.897 1.897 0 0 1-1.916-1.916v-60.995c0-11.196 4.585-21.378 11.969-28.763zm-186.209-15.354c13.601 13.601 36.959 3.922 36.959-15.309 0-19.23-23.357-28.911-36.959-15.309-8.455 8.454-8.454 22.164 0 30.618zm-12.681 25.533c-5.116 5.116-8.851 11.612-10.578 18.861a.908.908 0 0 0 .336.949l50.074 38.642a.929.929 0 0 0 1.3-.167l6.755-8.753a5.317 5.317 0 0 1 5.77-1.833l12.772 3.93c.29.089.579.04.823-.14s.376-.442.376-.746v-22.751c0-21.79-17.847-39.638-39.637-39.638-10.896-.002-20.805 4.459-27.991 11.646zm-44.622-.008 7.926-10.271a.913.913 0 0 0 .054-1.055L82.453 91.382a.891.891 0 0 0-.483-.387L50.458 80.008a.916.916 0 0 0-1.039.309l-6.341 8.217a.929.929 0 0 0 .167 1.3l28.504 21.996a5.316 5.316 0 0 1 .958 7.457l-15.485 20.066a5.316 5.316 0 0 1-7.457.958l-28.501-21.993a.929.929 0 0 0-1.3.167l-6.342 8.218a.916.916 0 0 0-.036 1.084l18.612 27.69a.892.892 0 0 0 .497.369l28.254 8.693a.911.911 0 0 0 1.006-.32l7.925-10.27a5.316 5.316 0 0 1 7.457-.958l81.939 63.232a5.316 5.316 0 0 1 .958 7.457l-7.926 10.271a.912.912 0 0 0-.054 1.055l15.566 25.119a.891.891 0 0 0 .483.387l31.513 10.988a.916.916 0 0 0 1.039-.309l6.341-8.218a.929.929 0 0 0-.167-1.3l-28.504-21.996a5.316 5.316 0 0 1-.958-7.457l15.485-20.066a5.316 5.316 0 0 1 7.457-.958l28.501 21.993a.929.929 0 0 0 1.3-.167l6.342-8.218a.914.914 0 0 0 .035-1.084l-18.612-27.69a.892.892 0 0 0-.497-.369l-28.255-8.693a.912.912 0 0 0-1.006.32l-7.925 10.27a5.316 5.316 0 0 1-7.457.958l-81.939-63.232a5.32 5.32 0 0 1-.957-7.458zm63.738 191.368c-18.863-22.792-30.053-50.969-31.697-80.907a6.474 6.474 0 1 0-12.928.71c1.799 32.743 14.031 63.559 34.638 88.461a6.482 6.482 0 1 0 9.987-8.264zm246.227-80.907a6.474 6.474 0 1 1 12.928.71c-1.798 32.743-14.032 63.559-34.638 88.461a6.482 6.482 0 0 1-9.988-8.264c18.868-22.801 30.05-50.959 31.698-80.907z" clip-rule="evenodd" fill="#ffffff" opacity="1" data-original="#000000" class=""></path></g></svg>