<svg xmlns="http://www.w3.org/2000/svg" version="1.1" xmlns:xlink="http://www.w3.org/1999/xlink" width="50" height="50" x="0" y="0" viewBox="0 0 512 512" style="enable-background:new 0 0 512 512" xml:space="preserve"><g><path d="m336.3 232.78-39.87-71.691c-2.38-17.75-9.014-34.178-16.34-50.501-32.34-72.056-111.975-78.316-130.225-78.556-19.96.01-40.467 3.649-58.665 11.775C0 84.533.01 161.03 0 181.06c0 8.37.7 16.78 2.08 24.97.819 4.83 5.8 8.27 10.689 8.27 2.631-.45 5.771-1.96 7.32-4.14a9.938 9.938 0 0 0 1.72-7.46c-1.2-7.1-1.81-14.38-1.81-21.64 0-34.23 13.5-66.581 38-91.081 24.479-24.47 57.584-37.945 91.735-37.945 64.32.8 119.415 49.565 127.095 113.426a9.69 9.69 0 0 0 1.18 3.67l40.81 73.371a9.406 9.406 0 0 1 1.181 4.56c-.01 5.15-4.2 9.35-9.34 9.36h-40.762c-5.522 0-10 4.477-10 10s4.478 10 10 10h22.491v9.84l-26.97 13.49a9.97 9.97 0 0 0-5.48 7.97 9.982 9.982 0 0 0 3.83 8.88l28.61 22.2.01 9.73c-.02 7.9-6.439 14.35-14.32 14.39l-44.629-.81c-5.29 0-9.77 4.14-10.07 9.421l-3.521 60.501H88.49l-6.46-116.137 15.705 10.799a9.955 9.955 0 0 0 5.657 1.761 9.989 9.989 0 0 0 8.249-4.335c3.129-4.551 1.977-10.777-2.574-13.906l-32.509-22.352a130.58 130.58 0 0 1-15.99-12.831 9.94 9.94 0 0 0-6.85-2.73c-2.79 0-5.37 1.12-7.28 3.15-3.79 4.01-3.6 10.35.42 14.13 4.511 4.25 9.33 8.26 14.341 11.92l7.85 141.092c.29 5.29 4.68 9.44 9.99 9.44h150.25c5.29 0 9.67-4.14 9.979-9.421l3.5-60.33 35.07.64h.18c9.181 0 17.811-3.58 24.3-10.07 6.49-6.5 10.061-15.13 10.07-24.32v-14.631c0-3.11-1.41-5.99-3.87-7.9l-19.939-15.47 18.279-9.15c3.41-1.71 5.53-5.13 5.53-8.94v-16.07c15.48-.91 27.601-13.77 27.61-29.31a29.425 29.425 0 0 0-3.698-14.282z" fill="#ffffff" opacity="1" data-original="#000000"></path><path d="M253.655 198.371c5.522 0 10-4.477 10-10s-4.478-10-10-10h-40.609c-5.522 0-10 4.477-10 10s4.478 10 10 10zM463.949 241.127c2.972 4.571 9.278 5.897 13.834 2.935 4.631-3.01 5.945-9.204 2.936-13.835-7.729-11.891-16.747-22.8-26.806-32.423-3.99-3.818-10.32-3.679-14.139.312-3.818 3.991-3.678 10.321.312 14.139 8.946 8.559 16.974 18.272 23.863 28.872zM503.151 349.981c-5.475-.639-10.448 3.294-11.086 8.781-1.463 12.606-4.25 25.016-8.285 36.887-1.777 5.229 1.021 10.909 6.249 12.686 5.159 1.753 10.931-1.087 12.686-6.25 4.49-13.208 7.591-27.008 9.217-41.018.637-5.485-3.295-10.449-8.781-11.086zM477.854 430.879c-4.634-3.008-10.826-1.688-13.832 2.945-6.906 10.643-14.959 20.394-23.936 28.983-3.99 3.818-4.131 10.148-.313 14.139 3.668 3.834 10.173 4.107 14.139.313 10.094-9.657 19.14-20.608 26.887-32.547 3.007-4.634 1.688-10.827-2.945-13.833zM511.932 313.859c-1.635-14.009-4.746-27.81-9.246-41.018-1.781-5.228-7.461-8.021-12.691-6.241-5.228 1.781-8.021 7.464-6.24 12.691 4.045 11.871 6.842 24.281 8.312 36.887.594 5.092 5.501 8.808 10.506 8.808 5.677-.001 9.998-5.641 9.359-11.127zM372.386 308.031c5.522 0 10-4.477 10-10s-4.478-10-10-10h-30c-5.522 0-10 4.477-10 10v80.001c0 5.523 4.478 10 10 10h30c5.522 0 10-4.477 10-10s-4.478-10-10-10h-20v-20h20c5.522 0 10-4.477 10-10s-4.478-10-10-10h-20v-20h20zM452.385 388.004a9.182 9.182 0 0 0 2.299-.239 10 10 0 0 0 7.702-9.733v-80.001c0-5.523-4.478-10-10-10s-10 4.477-10 10v37.64l-21.056-42.112a10 10 0 0 0-18.944 4.473v80.001c0 5.523 4.478 10 10 10s10-4.477 10-10v-37.64l21.056 42.112c1.636 3.272 5.281 5.425 8.943 5.499zM116 187.53c10.201 0 18.5 8.494 18.5 18.934 0 5.523 4.478 10 10 10s10-4.477 10-10c0-21.468-17.271-38.935-38.5-38.935s-38.5 17.466-38.5 38.935c0 9.557 3.497 18.65 10.114 26.297 6.325 7.307 10.929 13.401 17.044 30.821 5.498 15.661 16.685 18.949 25.101 18.949 5.522 0 10-4.477 10-10s-4.478-10-10-10c-2.48 0-4.273 0-6.229-5.574-7.256-20.67-13.449-28.802-20.792-37.285-2.389-2.761-5.237-7.294-5.237-13.208-.001-10.44 8.298-18.934 18.499-18.934z" fill="#ffffff" opacity="1" data-original="#000000"></path><circle cx="26.455" cy="246.75" r="10" fill="#ffffff" opacity="1" data-original="#000000"></circle></g></svg>