<svg xmlns="http://www.w3.org/2000/svg" version="1.1" xmlns:xlink="http://www.w3.org/1999/xlink" width="50" height="50" x="0" y="0" viewBox="0 0 510 510" style="enable-background:new 0 0 512 512" xml:space="preserve" fill-rule="evenodd" class=""><g><path d="M469.742 263h-89.604c-4.416 0-8-3.585-8-8s3.584-8 8-8h89.604l-5.813-5.813a8.004 8.004 0 0 1 0-11.314 8.004 8.004 0 0 1 11.314 0l19.47 19.47a8 8 0 0 1 0 11.314l-19.47 19.47a8.004 8.004 0 0 1-11.314 0 8.004 8.004 0 0 1 0-11.314l5.813-5.813zm-93.709 210.233-63.36-63.36a8.004 8.004 0 0 1 0-11.314 8.004 8.004 0 0 1 11.314 0l63.36 63.36v-8.22c0-4.416 3.585-8 8-8s8 3.584 8 8v27.534a8 8 0 0 1-8 8h-27.534c-4.416 0-8-3.585-8-8s3.584-8 8-8zm11.314-425.152-63.36 63.36a8.004 8.004 0 0 1-11.314 0 8.004 8.004 0 0 1 0-11.314l63.36-63.36h-8.22c-4.416 0-8-3.585-8-8s3.584-8 8-8h27.534a8 8 0 0 1 8 8v27.534c0 4.416-3.585 8-8 8s-8-3.584-8-8v-8.22zM169.114 78.007c-4.415 0-8-3.585-8-8 0-4.416 3.585-8 8-8 106.516 0 192.994 86.477 192.994 192.993S275.63 447.993 169.114 447.993c-4.415 0-8-3.584-8-8 0-4.415 3.585-8 8-8 97.685 0 176.994-79.308 176.994-176.993S266.799 78.007 169.114 78.007zM28.438 255.021c-9.409-7.195-15.494-18.545-15.494-31.26v-.073c0-15.59 9.643-29.001 23.223-34.549 3.244-17.356 18.545-30.492 36.716-30.492 2.928 0 5.857.358 8.694.999.368.083.723.19 1.066.319 4.233-15.925 18.787-27.709 36.095-27.709 10.311 0 19.603 4.174 26.384 10.955 6.785 6.785 10.955 16.086 10.955 26.31v56.209c0 11.872-5.543 22.451-14.182 29.291 8.64 6.817 14.182 17.373 14.182 29.249v56.209a37.01 37.01 0 0 1-10.974 26.329c-6.78 6.77-16.064 10.936-26.365 10.936-17.319 0-31.879-11.733-36.102-27.706-.266.099-.54.186-.821.259a35.8 35.8 0 0 1-8.932 1.129c-18.171 0-33.473-13.212-36.716-30.514-13.582-5.6-23.223-19.013-23.223-34.6v-.073c0-12.719 6.084-24.044 15.494-31.218zm53.399-79.769a7.991 7.991 0 0 1-3.798.062c-1.683-.38-3.419-.604-5.156-.604-11.415 0-20.844 9.096-21.272 20.483.22 6.22 3.199 11.741 7.654 15.514a8.035 8.035 0 0 1 .937 11.319 8.035 8.035 0 0 1-11.32.938c-5.084-4.307-9.039-9.931-11.282-16.341-5.199 3.868-8.585 10.074-8.593 17.043v.024a.64.64 0 0 1-.004.075l.004-.004c0 12.782 10.389 23.244 23.171 23.244h35.917a37.872 37.872 0 0 1-2.318-3.779 8.035 8.035 0 0 1 3.29-10.871 8.034 8.034 0 0 1 10.871 3.289c3.604 6.73 10.64 11.361 18.8 11.361 11.75 0 21.276-9.526 21.276-21.275v-56.209c0-5.814-2.392-11.094-6.25-14.952-3.863-3.863-9.152-6.25-15.026-6.25-11.743 0-21.275 9.512-21.275 21.202 0 5.411 2.019 10.343 5.308 14.11a8.034 8.034 0 0 1-.767 11.332c-3.338 2.916-8.416 2.572-11.332-.767-4.566-5.229-7.727-11.745-8.835-18.944zm58.177 109.018c0-11.743-9.532-21.202-21.276-21.202-8.157 0-15.198 4.561-18.8 11.288a8.034 8.034 0 0 1-10.871 3.289 8.035 8.035 0 0 1-3.29-10.871 37.847 37.847 0 0 1 2.269-3.706H52.178c-12.765 0-23.152 10.376-23.171 23.15v.023a.651.651 0 0 1-.004.075l.004-.004c0 6.978 3.388 13.192 8.591 17.088 2.244-6.435 6.2-12.057 11.284-16.364a8.035 8.035 0 0 1 11.32.938 8.035 8.035 0 0 1-.937 11.319c-4.459 3.777-7.435 9.307-7.654 15.585.428 11.336 9.856 20.485 21.272 20.485 1.656 0 3.313-.206 4.918-.62a7.984 7.984 0 0 1 4.036.006 37.037 37.037 0 0 1 8.872-18.915c2.939-3.318 8.02-3.626 11.338-.687s3.626 8.019.687 11.337c-3.273 3.696-5.271 8.609-5.271 13.995 0 11.743 9.532 21.202 21.275 21.202 5.874 0 11.163-2.387 15.026-6.25l.039-.039a20.943 20.943 0 0 0 6.211-14.913zm42.138-58.54v-56.209c0-10.224 4.169-19.525 10.955-26.31 6.781-6.781 16.072-10.955 26.383-10.955 17.245 0 31.804 11.794 36.029 27.734a8.07 8.07 0 0 1 1.132-.344c2.837-.641 5.675-.999 8.695-.999 18.172 0 33.474 13.138 36.716 30.495 13.576 5.563 23.222 19.035 23.222 34.619 0 12.722-6.121 24.08-15.564 31.275 9.443 7.196 15.564 18.554 15.564 31.276 0 15.587-9.64 29-23.222 34.599-3.243 17.303-18.545 30.515-36.716 30.515-3.103 0-6.018-.377-8.933-1.129a8.337 8.337 0 0 1-.887-.284c-4.215 15.989-18.781 27.731-36.036 27.731-10.301 0-19.585-4.166-26.364-10.936a37.006 37.006 0 0 1-10.974-26.329V284.27c0-11.876 5.542-22.432 14.181-29.249-8.639-6.84-14.181-17.419-14.181-29.291zm37.338-77.411c-5.873 0-11.162 2.387-15.025 6.25-3.859 3.858-6.25 9.138-6.25 14.952v56.209c0 11.749 9.526 21.275 21.275 21.275 8.086 0 15.163-4.605 18.704-11.317a8.034 8.034 0 0 1 10.851-3.356 8.034 8.034 0 0 1 3.356 10.851 37.045 37.045 0 0 1-2.322 3.822h35.898c12.787 0 23.244-10.457 23.244-23.244 0-6.985-3.388-13.237-8.598-17.129-2.254 6.419-6.235 12.049-11.385 16.362-3.399 2.845-8.469 2.396-11.314-1.003a8.035 8.035 0 0 1 1.002-11.314c4.498-3.766 7.472-9.276 7.691-15.484-.427-11.387-9.856-20.483-21.271-20.483-1.792 0-3.474.224-5.157.604a7.987 7.987 0 0 1-3.868-.081c-1.105 7.206-4.267 13.73-8.838 18.963a8.034 8.034 0 0 1-11.332.767c-3.339-2.915-3.682-7.993-.767-11.332 3.289-3.767 5.309-8.699 5.309-14.11 0-11.685-9.518-21.202-21.203-21.202zm36.831 186.448a7.986 7.986 0 0 1 4.106-.024c1.605.414 3.21.62 4.919.62 11.415 0 20.844-9.149 21.272-20.484-.22-6.267-3.189-11.787-7.692-15.556a8.035 8.035 0 0 1-1.002-11.314c2.845-3.399 7.915-3.848 11.314-1.003 5.153 4.315 9.137 9.948 11.391 16.395 5.204-3.896 8.592-10.11 8.592-17.089 0-12.787-10.457-23.244-23.244-23.244h-35.849a36.796 36.796 0 0 1 2.273 3.749 8.034 8.034 0 0 1-3.356 10.851 8.034 8.034 0 0 1-10.851-3.356 21.137 21.137 0 0 0-18.704-11.244c-11.744 0-21.275 9.459-21.275 21.202v56.209a20.942 20.942 0 0 0 6.21 14.913l.04.039c3.863 3.863 9.152 6.25 15.025 6.25 11.685 0 21.203-9.464 21.203-21.202 0-5.386-1.998-10.299-5.271-13.995a8.033 8.033 0 0 1 .687-11.337 8.035 8.035 0 0 1 11.337.687 37.027 37.027 0 0 1 8.875 18.933z" fill="#ffffff" opacity="1" data-original="#000000" class=""></path></g></svg>