<svg xmlns="http://www.w3.org/2000/svg" version="1.1" xmlns:xlink="http://www.w3.org/1999/xlink" width="50" height="50" x="0" y="0" viewBox="0 0 1024 1024" style="enable-background:new 0 0 512 512" xml:space="preserve" class=""><g><path d="M416 808.5h32v15h-32zM176 824.5h48v15h-48zM240 824.5h16v15h-16z" fill="#1ab69d" opacity="1" data-original="#000000" class=""></path><path d="M882.04 152.5H141.96c-11.83 0-21.46 9.63-21.46 21.46v548.08c0 11.83 9.63 21.46 21.46 21.46h447.13a32.957 32.957 0 0 0 14.41 12.98l-41.43 71.78c-1.52 2.63-1.3 5.91.55 8.32s4.96 3.46 7.89 2.68l36.47-9.78 9.78 36.47c.79 2.93 3.26 5.1 6.27 5.49.33.04.66.06.98.06 2.65 0 5.14-1.41 6.49-3.75l46.62-80.78a32.3 32.3 0 0 0 10.89 1.9c3.68 0 7.36-.64 10.88-1.9l46.61 80.77a7.499 7.499 0 0 0 6.49 3.75c.32 0 .65-.02.98-.06a7.495 7.495 0 0 0 6.27-5.49l9.78-36.47 36.47 9.78c2.93.79 6.04-.27 7.89-2.68s2.06-5.69.55-8.32l-41.43-71.78a33.035 33.035 0 0 0 14.42-12.98h95.12c11.83 0 21.46-9.63 21.46-21.46V173.96c0-11.83-9.63-21.46-21.46-21.46zm-666.8 94.75c8.7-8.69 14.15-19.76 15.76-31.75h562c1.61 11.99 7.06 23.06 15.76 31.74 8.69 8.7 19.76 14.15 31.74 15.76v370c-.98.13-1.95.3-2.91.48-.14.03-.28.06-.42.08-.88.17-1.75.36-2.62.58l-.25.06c-5.96 1.5-11.6 3.99-16.74 7.38-.02.01-.04.02-.05.03l-.03-.06c-.35-.7-.73-1.39-1.13-2.07-.07-.12-.14-.24-.21-.35-.4-.66-.82-1.3-1.26-1.93-.08-.12-.17-.24-.25-.35-.46-.63-.93-1.25-1.44-1.85-.07-.09-.15-.17-.22-.25-.54-.63-1.1-1.24-1.68-1.83l-14.62-14.62a17.745 17.745 0 0 1-5.16-12.47v-20.69c0-18-14.64-32.64-32.64-32.64h-20.69c-4.64 0-9.19-1.88-12.47-5.16l-14.62-14.62c-12.73-12.73-33.44-12.73-46.17 0l-14.62 14.62a17.745 17.745 0 0 1-12.47 5.16h-20.69c-18 0-32.64 14.64-32.64 32.64v20.69c0 4.64-1.88 9.19-5.16 12.47l-14.62 14.62c-12.73 12.73-12.73 33.44 0 46.17l1.42 1.42H231c-1.61-11.98-7.06-23.05-15.75-31.74-8.69-8.7-19.76-14.15-31.75-15.76V263c11.99-1.61 23.06-7.06 31.74-15.75zm411.31 597.32-7.03-26.22a7.507 7.507 0 0 0-7.24-5.56c-.64 0-1.3.08-1.95.26l-26.22 7.03 34.96-60.58h18.75c4.64 0 9.19 1.88 12.47 5.16l14.19 14.19zm51.67-73.69c-.94-.61-1.85-1.36-2.7-2.2l-14.62-14.62c-6.07-6.07-14.48-9.56-23.07-9.56h-20.69c-.52 0-1.06-.03-1.65-.08-6.58-.6-12.38-4.98-14.79-11.16a17.4 17.4 0 0 1-1.2-6.4v-20.69c0-8.71-3.39-16.91-9.56-23.07l-.4-.4-14.22-14.22c-6.88-6.88-6.88-18.07 0-24.95l14.62-14.62c6.07-6.07 9.56-14.48 9.56-23.07v-20.69c0-9.73 7.91-17.64 17.64-17.64h20.69c8.59 0 17-3.48 23.07-9.56l14.62-14.62c6.88-6.88 18.08-6.88 24.95 0l14.62 14.62c6.07 6.07 14.48 9.56 23.07 9.56h20.69c9.73 0 17.64 7.91 17.64 17.64v20.69c0 8.59 3.48 17 9.56 23.07l14.62 14.62c.39.39.76.8 1.11 1.22 2.44 2.94 3.86 6.58 4.04 10.42v.01c.23 4.95-1.64 9.8-5.15 13.3l-14.62 14.62c-6.16 6.16-9.56 14.36-9.56 23.07v20.69c0 2.21-.4 4.37-1.2 6.42-2.42 6.17-8.22 10.54-14.78 11.14-.59.05-1.13.08-1.66.08h-20.69c-8.59 0-17 3.48-23.07 9.56l-14.62 14.62c-.85.85-1.77 1.6-2.74 2.25-5.91 3.92-13.55 3.92-19.51-.05zm87.44 42.17c-4-1.08-8.11 1.3-9.19 5.3l-7.03 26.22-37.93-65.72 14.19-14.19c3.28-3.28 7.82-5.16 12.47-5.16h18.75l34.96 60.58zm122.84-91.01c0 3.56-2.9 6.46-6.46 6.46h-90.58v-.06c.02-.52.04-1.05.04-1.58v-20.69c0-4.64 1.88-9.19 5.16-12.47l14.62-14.62c.38-.38.75-.77 1.11-1.17.12-.13.23-.26.34-.39.24-.27.48-.55.71-.83.13-.16.25-.32.38-.48.21-.26.41-.53.61-.8.13-.17.25-.34.37-.51.19-.27.37-.54.55-.81l.35-.53c.18-.28.35-.56.52-.85.1-.17.21-.35.31-.52.18-.32.35-.64.52-.96.08-.15.16-.29.24-.44.24-.47.46-.94.68-1.42l.15-.36c.16-.37.31-.73.46-1.1.08-.2.15-.39.22-.59.11-.3.22-.6.32-.9l.21-.66a27.543 27.543 0 0 0 .45-1.55c.07-.28.14-.56.21-.85.06-.24.11-.47.16-.71.06-.29.11-.58.17-.87.04-.23.09-.46.12-.7.05-.32.09-.64.13-.97.03-.2.06-.41.08-.61.05-.5.1-1 .13-1.5.51-.47 1.03-.92 1.56-1.35.51-.42 1.03-.83 1.56-1.22.02-.02.04-.03.07-.05.51-.38 1.02-.74 1.55-1.09l.09-.06c.52-.34 1.04-.68 1.57-1 .03-.02.07-.04.1-.06.53-.32 1.06-.62 1.6-.91l.12-.06c.54-.29 1.08-.56 1.63-.82.04-.02.09-.04.14-.06.54-.25 1.09-.5 1.64-.73.05-.02.11-.05.17-.07.54-.22 1.09-.43 1.64-.63.07-.02.14-.05.2-.07.54-.19 1.08-.37 1.63-.54.08-.03.17-.05.25-.08.53-.16 1.06-.3 1.6-.44.1-.03.21-.06.31-.08.51-.13 1.03-.24 1.55-.35.13-.03.25-.05.38-.08.5-.1 1-.18 1.51-.26.15-.02.3-.05.44-.07.49-.07.98-.13 1.47-.18l.49-.06c.49-.05.99-.08 1.48-.11.16-.01.33-.03.49-.03.65-.03 1.31-.05 1.97-.05.25 0 .5-.01.75-.04.19-.02.37-.05.56-.08.06-.01.11-.01.17-.03.22-.04.43-.1.64-.16.02-.01.04-.01.07-.02.21-.06.42-.14.63-.22.02-.01.04-.01.06-.02.19-.08.38-.17.57-.27.03-.02.06-.03.09-.05.17-.09.34-.19.5-.3.04-.03.09-.05.13-.08.15-.1.29-.21.43-.32.05-.04.11-.08.16-.12.15-.12.28-.25.42-.38.04-.04.08-.07.12-.11s.07-.08.11-.12c.13-.14.26-.27.38-.42.04-.05.08-.11.12-.16.11-.14.22-.28.32-.43.03-.04.06-.09.08-.14.1-.16.2-.32.29-.49.02-.03.03-.06.05-.09.1-.19.19-.38.27-.57.01-.02.01-.04.02-.06.08-.21.16-.42.23-.63.01-.02.01-.04.02-.07.06-.21.12-.42.16-.64l.03-.18c.03-.18.06-.36.08-.54.02-.25.04-.5.04-.75V256c0-4.14-3.36-7.5-7.5-7.5-10.82 0-20.99-4.21-28.64-11.87-7.65-7.64-11.86-17.81-11.86-28.63 0-4.14-3.36-7.5-7.5-7.5H224c-4.14 0-7.5 3.36-7.5 7.5 0 10.83-4.21 20.99-11.87 28.64-7.64 7.65-17.81 11.86-28.63 11.86-4.14 0-7.5 3.36-7.5 7.5v384c0 4.14 3.36 7.5 7.5 7.5 10.83 0 20.99 4.21 28.64 11.86S216.5 677.18 216.5 688c0 4.14 3.36 7.5 7.5 7.5h356.88c1.6 2.11 2.73 4.57 3.26 7.17.01.04.02.07.02.11.1.49.17.98.22 1.47l.03.26c.05.55.08 1.1.08 1.66v20.69c0 .53.01 1.06.04 1.58v.06H141.96a6.47 6.47 0 0 1-6.46-6.46V173.96c0-3.56 2.9-6.46 6.46-6.46h740.08c3.56 0 6.46 2.9 6.46 6.46z" fill="#1ab69d" opacity="1" data-original="#000000" class=""></path><path d="M432 488.5h160v15H432zM432 280.5h160v15H432zM288 424.5h448v15H288zM288 360.5h448v15H288zM295.03 625l9.66-11.47c-9.79-8.24-12.34-24.38-5.57-35.24 2.48-3.97 7-8.28 12.27-8.47h.32c7.54 0 13.69 9.26 14 17.41.4 10.56-5.25 21.3-10.23 30.78a7.505 7.505 0 0 0 2.82 9.95c1.2.71 2.51 1.05 3.81 1.05a7.5 7.5 0 0 0 6.26-3.36c4.8-7.26 8.93-13.01 14.61-15.52 2.6-1.15 6.07-1.1 8.63.11 1.43.68 2.31 1.58 2.62 2.69a7.48 7.48 0 0 0 4.06 4.78c1.99.93 4.28.93 6.27.03a306.368 306.368 0 0 1 66.85-21.56l-2.93-14.71a321.6 321.6 0 0 0-64 19.9c-1.75-1.9-3.93-3.5-6.46-4.69-5.42-2.56-11.98-3.05-17.82-1.44.42-2.79.61-5.65.5-8.57-.6-15.85-12.7-32.44-29.83-31.83-9.47.33-18.62 6.13-24.48 15.52-10.68 17.12-6.8 41.64 8.64 54.64zM759.5 656c0-39.42-32.08-71.5-71.5-71.5s-71.5 32.08-71.5 71.5 32.08 71.5 71.5 71.5 71.5-32.08 71.5-71.5zm-128 0c0-31.15 25.35-56.5 56.5-56.5s56.5 25.35 56.5 56.5-25.35 56.5-56.5 56.5-56.5-25.35-56.5-56.5z" fill="#1ab69d" opacity="1" data-original="#000000" class=""></path></g></svg>