<svg xmlns="http://www.w3.org/2000/svg" version="1.1" xmlns:xlink="http://www.w3.org/1999/xlink" width="50" height="50" x="0" y="0" viewBox="0 0 514.137 514.137" style="enable-background:new 0 0 512 512" xml:space="preserve" class=""><g><path d="M432.068 0h-100v15h100c12.406 0 22.5 10.094 22.5 22.5v310c0 12.406-10.094 22.5-22.5 22.5h-125v15h125a37.297 37.297 0 0 0 22.5-7.521V434.5c0 12.406-10.094 22.5-22.5 22.5h-227.5v-34.562h172.5v-15h-262.5V457h-32.5c-12.406 0-22.5-10.094-22.5-22.5v-27c0-12.406 10.094-22.5 22.5-22.5h209v-15H114.631V15h202.438V0h-235c-20.678 0-37.5 16.822-37.5 37.5V201h15V37.5c0-12.406 10.094-22.5 22.5-22.5h17.562v355H82.068a37.297 37.297 0 0 0-22.5 7.521V216.062h-15V434.5c0 20.678 16.822 37.5 37.5 37.5h32.5v42.137l45-12 45 12V472h227.5c20.678 0 37.5-16.822 37.5-37.5v-397c0-20.678-16.822-37.5-37.5-37.5zm-242.5 494.613-30-8-30 8v-72.176h60z" fill="#8e56ff" opacity="1" data-original="#000000" class=""></path><path d="M392.068 407.438h15v15h-15zM129.631 272.339h308.875V103.5H129.631zm15-153.839h278.875v138.839H144.631z" fill="#8e56ff" opacity="1" data-original="#000000" class=""></path><path d="m285.976 206.458-43.324-69.368-15.305-.004v97.976h15v-70.144l43.324 69.369h15.305v-97.349h-15zM164.214 234.364h42.21v-15h-27.21v-26.187h24.65v-15h-24.65v-26.188h27.21v-15h-42.21zM367.554 193.205h26.869c-6.85 43.675-62.835 27.964-61.95-7.5-.352-26.88 31.063-43.57 53.11-28.253l8.396-12.43c-31.764-22.072-77.011 1.959-76.506 40.684 1.595 61.478 92.54 68.672 92.45-.001v-7.5h-42.369z" fill="#8e56ff" opacity="1" data-original="#000000" class=""></path></g></svg>