<svg xmlns="http://www.w3.org/2000/svg" version="1.1" xmlns:xlink="http://www.w3.org/1999/xlink" width="50" height="50" x="0" y="0" viewBox="0 0 682.667 682.667" style="enable-background:new 0 0 512 512" xml:space="preserve" class=""><g><defs><clipPath id="a" clipPathUnits="userSpaceOnUse"><path d="M0 512h512V0H0Z" fill="#ffffff" opacity="1" data-original="#000000"></path></clipPath></defs><g clip-path="url(#a)" transform="matrix(1.33333 0 0 -1.33333 0 682.667)"><path d="M0 0c0 17.949-14.551 32.5-32.5 32.5C-50.449 32.5-65 17.949-65 0c0-17.949 14.551-32.5 32.5-32.5C-14.551-32.5 0-17.949 0 0Z" style="stroke-width:15;stroke-linecap:round;stroke-linejoin:round;stroke-miterlimit:10;stroke-dasharray:none;stroke-opacity:1" transform="translate(288.5 472)" fill="none" stroke="#ffffff" stroke-width="15" stroke-linecap="round" stroke-linejoin="round" stroke-miterlimit="10" stroke-dasharray="none" stroke-opacity="" data-original="#000000" class="" opacity="1"></path><path d="m0 0-14.817 14.846c-6.395 6.408-16.765 6.408-23.16 0s-6.395-16.798 0-23.205l57.065-57.177A73.276 73.276 0 0 0 34.79-88.945" style="stroke-width:15;stroke-linecap:round;stroke-linejoin:round;stroke-miterlimit:10;stroke-dasharray:none;stroke-opacity:1" transform="translate(178.273 449.848)" fill="none" stroke="#ffffff" stroke-width="15" stroke-linecap="round" stroke-linejoin="round" stroke-miterlimit="10" stroke-dasharray="none" stroke-opacity="" data-original="#000000" class="" opacity="1"></path><path d="M0 0a73.258 73.258 0 0 0 15.853 23.771l57.064 57.177c6.396 6.408 6.396 16.798 0 23.205-6.395 6.409-16.764 6.409-23.16 0L2.54 56.843a27.654 27.654 0 0 0-19.571-8.122h-51.51c-7.34 0-14.38 2.922-19.571 8.122l-7.882 7.898" style="stroke-width:15;stroke-linecap:round;stroke-linejoin:round;stroke-miterlimit:10;stroke-dasharray:none;stroke-opacity:1" transform="translate(298.786 360.54)" fill="none" stroke="#ffffff" stroke-width="15" stroke-linecap="round" stroke-linejoin="round" stroke-miterlimit="10" stroke-dasharray="none" stroke-opacity="" data-original="#000000" class="" opacity="1"></path><path d="m0 0-21.554-21.596c-6.395-6.408-6.395-16.798 0-23.205 6.396-6.408 16.765-6.408 23.16 0l47.218 47.31a27.654 27.654 0 0 0 19.571 8.122h51.51c7.34 0 14.38-2.922 19.571-8.122l47.217-47.31c6.396-6.408 16.765-6.408 23.161 0 6.395 6.407 6.395 16.797 0 23.205l-57.065 57.177A73.26 73.26 0 0 0 136.834 59.6" style="stroke-width:15;stroke-linecap:round;stroke-linejoin:round;stroke-miterlimit:10;stroke-dasharray:none;stroke-opacity:1" transform="translate(161.85 92.107)" fill="none" stroke="#ffffff" stroke-width="15" stroke-linecap="round" stroke-linejoin="round" stroke-miterlimit="10" stroke-dasharray="none" stroke-opacity="" data-original="#000000" class="" opacity="1"></path><path d="M0 0a73.263 73.263 0 0 0-15.929-23.957l-11.003-11.024" style="stroke-width:15;stroke-linecap:round;stroke-linejoin:round;stroke-miterlimit:10;stroke-dasharray:none;stroke-opacity:1" transform="translate(213.29 151.644)" fill="none" stroke="#ffffff" stroke-width="15" stroke-linecap="round" stroke-linejoin="round" stroke-miterlimit="10" stroke-dasharray="none" stroke-opacity="" data-original="#000000" class="" opacity="1"></path><path d="m0 0-14.943-14.914a73.286 73.286 0 0 0-23.721-15.832" style="stroke-width:15;stroke-linecap:round;stroke-linejoin:round;stroke-miterlimit:10;stroke-dasharray:none;stroke-opacity:1" transform="translate(399.255 329.553)" fill="none" stroke="#ffffff" stroke-width="15" stroke-linecap="round" stroke-linejoin="round" stroke-miterlimit="10" stroke-dasharray="none" stroke-opacity="" data-original="#000000" class="" opacity="1"></path><path d="M0 0a73.245 73.245 0 0 0 23.837-15.88l57.177-57.065c6.408-6.395 16.798-6.395 23.205 0 6.408 6.396 6.408 16.765 0 23.16L56.909-2.567a27.65 27.65 0 0 0-8.122 19.571v51.51a27.65 27.65 0 0 0 8.122 19.571l47.31 47.217c6.408 6.396 6.408 16.765 0 23.16-6.407 6.395-16.797 6.395-23.205 0l-17.571-17.536" style="stroke-width:15;stroke-linecap:round;stroke-linejoin:round;stroke-miterlimit:10;stroke-dasharray:none;stroke-opacity:1" transform="translate(360.475 213.241)" fill="none" stroke="#ffffff" stroke-width="15" stroke-linecap="round" stroke-linejoin="round" stroke-miterlimit="10" stroke-dasharray="none" stroke-opacity="" data-original="#000000" class="" opacity="1"></path><path d="M0 0h55a5 5 0 0 1 5 5v55a5 5 0 0 1-5 5H0a5 5 0 0 1-5-5V5a5 5 0 0 1 5-5Z" style="stroke-width:15;stroke-linecap:round;stroke-linejoin:round;stroke-miterlimit:10;stroke-dasharray:none;stroke-opacity:1" transform="translate(444.5 223.5)" fill="none" stroke="#ffffff" stroke-width="15" stroke-linecap="round" stroke-linejoin="round" stroke-miterlimit="10" stroke-dasharray="none" stroke-opacity="" data-original="#000000" class="" opacity="1"></path><path d="M0 0a73.267 73.267 0 0 0-23.034 15.543l-57.177 57.065c-6.408 6.395-16.797 6.395-23.205 0-6.408-6.395-6.408-16.764 0-23.16l47.31-47.217a27.651 27.651 0 0 0 8.123-19.571v-51.51c0-7.34-2.922-14.38-8.123-19.571l-47.31-47.218c-6.408-6.395-6.408-16.764 0-23.16 6.408-6.395 16.797-6.395 23.205 0l57.177 57.065A73.26 73.26 0 0 0-.16-86.259" style="stroke-width:15;stroke-linecap:round;stroke-linejoin:round;stroke-miterlimit:10;stroke-dasharray:none;stroke-opacity:1" transform="translate(151.722 299.095)" fill="none" stroke="#ffffff" stroke-width="15" stroke-linecap="round" stroke-linejoin="round" stroke-miterlimit="10" stroke-dasharray="none" stroke-opacity="" data-original="#000000" class="" opacity="1"></path><path d="m0 0-55.202-25.053a4.657 4.657 0 0 1 0-8.48L0-58.586c3.31-1.502 7.066.918 7.066 4.553v49.48C7.066-.918 3.31 1.502 0 0Z" style="stroke-width:15;stroke-linecap:round;stroke-linejoin:round;stroke-miterlimit:10;stroke-dasharray:none;stroke-opacity:1" transform="translate(65.434 285.293)" fill="none" stroke="#ffffff" stroke-width="15" stroke-linecap="round" stroke-linejoin="round" stroke-miterlimit="10" stroke-dasharray="none" stroke-opacity="" data-original="#000000" class="" opacity="1"></path><path d="M0 0h-37.527l-18.765-32.5L-37.527-65H0l18.764 32.5z" style="stroke-width:15;stroke-linecap:round;stroke-linejoin:round;stroke-miterlimit:10;stroke-dasharray:none;stroke-opacity:1" transform="translate(274.764 72.5)" fill="none" stroke="#ffffff" stroke-width="15" stroke-linecap="round" stroke-linejoin="round" stroke-miterlimit="10" stroke-dasharray="none" stroke-opacity="" data-original="#000000" class="" opacity="1"></path><path d="M0 0c0 62.132-50.368 112.5-112.5 112.5S-225 62.132-225 0s50.368-112.5 112.5-112.5S0-62.132 0 0Z" style="stroke-width:15;stroke-linecap:round;stroke-linejoin:round;stroke-miterlimit:10;stroke-dasharray:none;stroke-opacity:1" transform="translate(368.5 256)" fill="none" stroke="#ffffff" stroke-width="15" stroke-linecap="round" stroke-linejoin="round" stroke-miterlimit="10" stroke-dasharray="none" stroke-opacity="" data-original="#000000" class="" opacity="1"></path><path d="M0 0c-10.513 2.246-19.308 5.871-27.178.094-15.384-11.292-2.942-40.672-18.383-51.32-9.087-6.266-22.819-2.587-34.181 2.32" style="stroke-width:15;stroke-linecap:round;stroke-linejoin:round;stroke-miterlimit:10;stroke-dasharray:none;stroke-opacity:1" transform="translate(223.242 304.906)" fill="none" stroke="#ffffff" stroke-width="15" stroke-linecap="round" stroke-linejoin="round" stroke-miterlimit="10" stroke-dasharray="none" stroke-opacity="" data-original="#000000" class="" opacity="1"></path><path d="M0 0c13.331-5.343 22.794-15.781 23.855-27.417 1.201-13.172-8.7-24.233-18.819-30.657" style="stroke-width:15;stroke-linecap:round;stroke-linejoin:round;stroke-miterlimit:10;stroke-dasharray:none;stroke-opacity:1" transform="translate(251.868 368.416)" fill="none" stroke="#ffffff" stroke-width="15" stroke-linecap="round" stroke-linejoin="round" stroke-miterlimit="10" stroke-dasharray="none" stroke-opacity="" data-original="#000000" class="" opacity="1"></path><path d="M0 0c12.065 5.878 11.793 14.76 19.149 16.085 8.868 1.598 21.818-9.047 22.213-19.915.591-16.293-27.377-23.865-29.873-24.51-5.332-1.38-21.45-5.55-27.574 3.064-3.797 5.34-2.795 14.25 1.532 19.149C-10.875-1.964-7.338-3.575 0 0Z" style="stroke-width:15;stroke-linecap:round;stroke-linejoin:round;stroke-miterlimit:10;stroke-dasharray:none;stroke-opacity:1" transform="translate(267.298 256.745)" fill="none" stroke="#ffffff" stroke-width="15" stroke-linecap="round" stroke-linejoin="round" stroke-miterlimit="10" stroke-dasharray="none" stroke-opacity="" data-original="#000000" class="" opacity="1"></path><path d="M0 0c.09 1.253 1.907 22.009 18.383 29.872 11.46 5.47 22.977 1.342 24.511.766 17.23-6.473 15.356-23.367 30.638-28.34 12.863-4.186 21.074 5.542 30.638 0 8.015-4.645 10.088-16.018 10.646-24.455" style="stroke-width:15;stroke-linecap:round;stroke-linejoin:round;stroke-miterlimit:10;stroke-dasharray:none;stroke-opacity:1" transform="translate(183.809 174.022)" fill="none" stroke="#ffffff" stroke-width="15" stroke-linecap="round" stroke-linejoin="round" stroke-miterlimit="10" stroke-dasharray="none" stroke-opacity="" data-original="#000000" class="" opacity="1"></path><path d="M0 0c-2.727-1.435-6.71-3.98-10.143-8.305-12.021-15.147-4.614-36.174-3.829-38.298 7.856-21.272 29.761-27.811 32.34-28.535" style="stroke-width:15;stroke-linecap:round;stroke-linejoin:round;stroke-miterlimit:10;stroke-dasharray:none;stroke-opacity:1" transform="translate(349.44 318.666)" fill="none" stroke="#ffffff" stroke-width="15" stroke-linecap="round" stroke-linejoin="round" stroke-miterlimit="10" stroke-dasharray="none" stroke-opacity="" data-original="#000000" class="" opacity="1"></path></g></g></svg>