<svg xmlns="http://www.w3.org/2000/svg" version="1.1" xmlns:xlink="http://www.w3.org/1999/xlink" width="50" height="50" x="0" y="0" viewBox="0 0 100 100" style="enable-background:new 0 0 512 512" xml:space="preserve" class=""><g><path fill="#ffffff" d="M97.5 27.82c0 6.77-2.64 13.14-7.43 17.93l-.84.84a4.823 4.823 0 0 1-6.8 0c-1.87-1.88-1.87-4.92 0-6.79l.85-.85c2.97-2.97 4.61-6.93 4.61-11.13 0-4.2-1.63-8.14-4.6-11.11-6.13-6.13-16.11-6.13-22.25 0l-18.7 18.7c-6.13 6.13-6.13 16.11 0 22.24.64.64 1.3 1.2 2.03 1.72a4.805 4.805 0 0 1-5.57 7.83c-1.16-.83-2.25-1.75-3.25-2.75-9.88-9.88-9.88-25.95 0-35.83l18.7-18.7c9.89-9.88 25.96-9.88 35.83 0 4.79 4.78 7.42 11.14 7.42 17.9z" opacity="1" data-original="#575757"></path><path fill="#ffffff" d="M64.44 71.38 50 85.83l-4.26 4.26c-4.94 4.93-11.43 7.4-17.92 7.4s-12.97-2.47-17.91-7.4c-9.88-9.88-9.88-25.95 0-35.83l.85-.85a4.804 4.804 0 1 1 6.8 6.79l-.86.85c-6.13 6.14-6.13 16.11 0 22.25 6.13 6.12 16.11 6.12 22.25-.01L50 72.23l7.65-7.65c6.13-6.13 6.13-16.11 0-22.24a15.76 15.76 0 0 0-2.01-1.7 4.808 4.808 0 0 1-1.18-6.69 4.818 4.818 0 0 1 6.7-1.17c1.14.8 2.25 1.74 3.28 2.76 9.88 9.88 9.88 25.96 0 35.84z" opacity="1" data-original="#575757"></path><g fill="#7c7c7c"><path d="M64.44 35.54c9.88 9.88 9.88 25.96 0 35.84L50 85.83v-13.6l7.65-7.65c6.13-6.13 6.13-16.11 0-22.24a15.76 15.76 0 0 0-2.01-1.7 4.808 4.808 0 0 1-1.18-6.69 4.818 4.818 0 0 1 6.7-1.17c1.14.8 2.25 1.74 3.28 2.76z" fill="#ffffff" opacity="1" data-original="#7c7c7c" class=""></path><path d="M90.08 9.92c4.79 4.78 7.42 11.14 7.42 17.9 0 6.77-2.64 13.14-7.43 17.93l-.84.84a4.823 4.823 0 0 1-6.8 0c-1.87-1.88-1.87-4.92 0-6.79l.85-.85c2.97-2.97 4.61-6.93 4.61-11.13 0-4.2-1.63-8.14-4.6-11.11-6.13-6.13-16.11-6.13-22.25 0L50 27.75V14.17l4.25-4.25c9.89-9.88 25.96-9.88 35.83 0z" fill="#ffffff" opacity="1" data-original="#7c7c7c" class=""></path></g></g></svg>