<svg xmlns="http://www.w3.org/2000/svg" version="1.1" xmlns:xlink="http://www.w3.org/1999/xlink" width="50" height="50" x="0" y="0" viewBox="0 0 64 64" style="enable-background:new 0 0 512 512" xml:space="preserve" class=""><g><g data-name="First Lady"><path d="M51 51.5h-1v-1.642a3.953 3.953 0 0 0 1.828-1.03 4 4 0 0 0 0-5.656 4.093 4.093 0 0 0-5.656 0 4 4 0 0 0 0 5.656A3.953 3.953 0 0 0 48 49.858V51.5h-1a1 1 0 0 0 0 2h1V55a1 1 0 0 0 2 0v-1.5h1a1 1 0 0 0 0-2Zm-3.414-6.914a2 2 0 0 1 2.828 2.828 2.047 2.047 0 0 1-2.828 0 2 2 0 0 1 0-2.828ZM23 36v18a1 1 0 0 1-2 0V36a1 1 0 0 1 2 0ZM27 46V36a1 1 0 0 1 2 0v10a1 1 0 0 1-2 0ZM12 42v10a1 1 0 0 1-2 0V42a1 1 0 0 1 2 0ZM35 46V36a1 1 0 0 1 2 0v10a1 1 0 0 1-2 0Z" fill="#ffffff" opacity="1" data-original="#000000" class=""></path><path d="M59 44.444V37a2 2 0 0 0-2-2h-8v-3a2 2 0 0 0-2-2v-2h2.642a1 1 0 0 0 0-2h-4.195A13.262 13.262 0 0 0 33 14.049V12h6a2 2 0 0 0 2-2V7a2 2 0 0 0-2-2h-6a1 1 0 0 0-2 0v9.049A13.262 13.262 0 0 0 18.553 26h-4.195a1 1 0 0 0 0 2H17v2a2 2 0 0 0-2 2v3H7a2 2 0 0 0-2 2v21a2 2 0 0 0 2 2h50a2 2 0 0 0 2-2v-4.444a10.88 10.88 0 0 0 0-9.112ZM39 7.5v2a.5.5 0 0 1-.5.5H33V7h5.5a.5.5 0 0 1 .5.5Zm1.08 40.275a9.013 9.013 0 1 1 17.447 4.177 9.015 9.015 0 0 1-17.447-4.177ZM57 37.5v3.974A10.96 10.96 0 0 0 49 38v-1h7.5a.5.5 0 0 1 .5.5ZM32 16a11.326 11.326 0 0 1 11.447 10H20.553A11.326 11.326 0 0 1 32 16ZM19 28h26v2H19ZM7 57.5v-20a.5.5 0 0 1 .5-.5H15v21H7.5a.5.5 0 0 1-.5-.5ZM17 35v-2a1 1 0 0 1 1-1h28a1 1 0 0 1 1 1v5.191a10.949 10.949 0 0 0-4 1.6V36a1 1 0 0 0-2 0v5.474A10.979 10.979 0 0 0 42.669 58H37v-7.125a2 2 0 0 0-2-2h-6a2 2 0 0 0-2 2V58H17Zm18 23h-6v-6.625a.5.5 0 0 1 .5-.5h5a.5.5 0 0 1 .5.5Zm22-.5a.5.5 0 0 1-.5.5h-1.2a11.018 11.018 0 0 0 1.7-1.474Z" fill="#ffffff" opacity="1" data-original="#000000" class=""></path></g></g></svg>