<svg xmlns="http://www.w3.org/2000/svg" version="1.1" xmlns:xlink="http://www.w3.org/1999/xlink" width="50" height="50" x="0" y="0" viewBox="0 0 64 64" style="enable-background:new 0 0 512 512" xml:space="preserve"><g><g fill="#293a4c"><path d="M25.411 27.79a1.498 1.498 0 0 1-.78-2.782l10.05-6.1a1.5 1.5 0 1 1 1.557 2.564l-10.05 6.1a1.495 1.495 0 0 1-.777.218zM45.052 30.5a1.5 1.5 0 0 1-1.494-1.387l-.304-4.03a1.5 1.5 0 0 1 1.384-1.608 1.506 1.506 0 0 1 1.608 1.382l.304 4.03a1.5 1.5 0 0 1-1.498 1.613zM34.73 42.32c-.214 0-.432-.046-.638-.143l-8.77-4.13a1.5 1.5 0 1 1 1.277-2.714l8.77 4.13a1.5 1.5 0 0 1-.64 2.857z" fill="#ffffff" opacity="1" data-original="#293a4c"></path><path d="M16 44.5C9.107 44.5 3.5 38.893 3.5 32S9.107 19.5 16 19.5 28.5 25.107 28.5 32 22.893 44.5 16 44.5zm0-22c-5.238 0-9.5 4.262-9.5 9.5s4.262 9.5 9.5 9.5 9.5-4.262 9.5-9.5-4.262-9.5-9.5-9.5z" fill="#ffffff" opacity="1" data-original="#293a4c"></path><path d="M7.718 40.738a1.5 1.5 0 0 1-1.31-2.229 10.977 10.977 0 0 1 9.597-5.64c3.976 0 7.653 2.156 9.595 5.627a1.5 1.5 0 0 1-2.62 1.465 8 8 0 0 0-6.975-4.091c-2.9 0-5.572 1.569-6.975 4.095a1.5 1.5 0 0 1-1.312.773z" fill="#ffffff" opacity="1" data-original="#293a4c"></path><path d="M16 35.87a5.822 5.822 0 0 1-5.815-5.817c0-3.206 2.608-5.815 5.815-5.815s5.815 2.609 5.815 5.815A5.822 5.822 0 0 1 16 35.87zm0-8.632a2.819 2.819 0 0 0-2.815 2.815c0 1.553 1.262 2.816 2.815 2.816s2.815-1.263 2.815-2.816A2.819 2.819 0 0 0 16 27.238zM44 26.5c-6.34 0-11.5-5.159-11.5-11.5S37.66 3.5 44 3.5 55.5 8.659 55.5 15 50.34 26.5 44 26.5zm0-20c-4.687 0-8.5 3.813-8.5 8.5s3.813 8.5 8.5 8.5 8.5-3.813 8.5-8.5-3.813-8.5-8.5-8.5z" fill="#ffffff" opacity="1" data-original="#293a4c"></path><path d="M36.47 23.08a1.499 1.499 0 0 1-1.31-2.228 10.113 10.113 0 0 1 8.844-5.198c3.664 0 7.053 1.987 8.842 5.185a1.5 1.5 0 1 1-2.617 1.465 7.141 7.141 0 0 0-6.225-3.65c-2.587 0-4.97 1.4-6.22 3.653a1.498 1.498 0 0 1-1.313.773z" fill="#ffffff" opacity="1" data-original="#293a4c"></path><path d="M44 18.654c-2.99 0-5.423-2.433-5.423-5.424S41.01 7.807 44 7.807s5.423 2.433 5.423 5.423S46.99 18.654 44 18.654zm0-7.847c-1.336 0-2.423 1.087-2.423 2.423s1.087 2.424 2.423 2.424 2.423-1.087 2.423-2.424-1.087-2.423-2.423-2.423zM46.255 60.5c-7.855 0-14.244-6.39-14.244-14.245s6.39-14.244 14.244-14.244S60.5 38.4 60.5 46.255 54.11 60.5 46.255 60.5zm0-25.49c-6.2 0-11.244 5.045-11.244 11.245S40.055 57.5 46.255 57.5 57.5 52.456 57.5 46.255s-5.045-11.244-11.245-11.244z" fill="#ffffff" opacity="1" data-original="#293a4c"></path><path d="M55.688 55.828a1.498 1.498 0 0 1-1.285-.725A9.44 9.44 0 0 0 46.26 50.5a9.44 9.44 0 0 0-8.131 4.58 1.5 1.5 0 0 1-2.565-1.557A12.415 12.415 0 0 1 46.26 47.5c4.355 0 8.46 2.32 10.712 6.053a1.5 1.5 0 0 1-1.284 2.275z" fill="#ffffff" opacity="1" data-original="#293a4c"></path><path d="M46.255 50.5c-3.584 0-6.5-2.916-6.5-6.5s2.916-6.5 6.5-6.5 6.5 2.916 6.5 6.5-2.916 6.5-6.5 6.5zm0-10c-1.93 0-3.5 1.57-3.5 3.5s1.57 3.5 3.5 3.5 3.5-1.57 3.5-3.5-1.57-3.5-3.5-3.5z" fill="#ffffff" opacity="1" data-original="#293a4c"></path></g></g></svg>