<svg xmlns="http://www.w3.org/2000/svg" version="1.1" xmlns:xlink="http://www.w3.org/1999/xlink" width="50" height="50" x="0" y="0" viewBox="0 0 500 500" style="enable-background:new 0 0 512 512" xml:space="preserve" class=""><g><path d="M39.78 156.68v292.63c.7 18.15 19.2 15.12 32.13 15.16h166.11c18.47 1.71 38.69-2.93 45-22.68 3.08-10.73 1.2-22 1.7-32.99 13.19-5.85 19.65-19.65 28.39-30.32l40.38-54.18c32.72-43.91 65.45-87.82 98.17-131.74 12.57-14.54 11.59-38.1-2.64-51.18-7.43-6.27-15.55-11.7-23.25-17.64-30.41-22.66-60.82-45.33-91.24-67.99-8.42-5.81-15.96-13.11-25.26-17.51-19.86-8.65-39.75 2.19-50.11 19.77-9.47 12.71-18.94 25.41-28.41 38.12l-135.4 18c-13.53 1.54-27 4.13-40.56 5.06-20.01 1.05-14.24 23.81-15 37.49zm189.79-50.66c13.04-17.49 26.06-34.98 39.1-52.46 13.94-18.77 38.79-15.7 54.13-.35 18.58 13.84 37.15 27.68 55.72 41.53 18.57 13.84 37.15 27.68 55.72 41.53 12.01 7.37 22.6 19 21.23 34.03-1.23 17.05-18.29 31.19-27.21 45.34-13.23 17.74-26.45 35.49-39.67 53.24-24.2-17.79-48.41-35.57-72.61-53.36-3.22-1.43-11.32-11.08-13.86-6.77-1.86 3.8 7.1 7.12 9.35 9.63 17.01 12.5 34.01 24.99 51.01 37.49-23.47 30.89-47 61.73-70.76 92.4-.83 1.07-.16 2.8.9 3.42 3.19 2.63 11.2-12.17 13.95-14.54 20.14-25.98 40-52.18 59.92-78.34 6.37 4.7 12.78 9.34 19.12 14.08-22.93 30.76-45.85 61.52-68.78 92.29-4.87 6.54-9.75 13.08-14.62 19.62-5.12 6.75-9.72 14.46-17.49 18.43v-98.61c13.97-16.54 27.13-33.72 40.41-50.81 1.32-2.46 5.9-5.17 3.58-8.14-.86-.86-2.7-1.07-3.54 0-13.4 17.11-26.44 34.51-40.45 51.14V176.86c1.07-27.26 1.25-54.78-33.18-57.66-10.59-.01-21.19 0-31.78 0l9.81-13.17zm-116.14 10.71c37.73-5.02 75.45-10.03 113.18-15.05-4.35 5.84-8.7 11.67-13.05 17.51H94.94l18.5-2.46zm-68.65 17.44c.07-4.52 2.98-8.23 7.05-9.51 43.24-1.22 86.82-.11 130.18-.47h58.97c39.58-2.05 39.84 20.97 38.74 52.96v248.98c2.18 17.28-10.88 33.7-28.71 33.35h-39.88c-53.04-.38-106.24.74-159.2-.4-8.26-2.34-7.27-11.54-7.15-18.36V134.17z" fill="#8e56ff" opacity="1" data-original="#000000" class=""></path><path d="M132.69 313.19c50.94 24.05 115.97-14.67 114.89-72.03.92-52.3-54.24-91.03-103.52-76.12-71.8 19.73-79.82 117.96-11.37 148.15zm31.62-15.28c-.08 3.52-.23 7.06-.34 10.6-18.68-9.52-33.06-27.09-38.71-47.29h39.92c-.29 12.23-.59 24.46-.88 36.7zm1-41.7h-41.27c-2.24-10.81-2.05-22.08.48-32.82h41.57c-.26 10.94-.52 21.88-.79 32.82zm63.11 28.03c-10.16 14.48-39.06 35.49-57.01 27.6 21-9.51 37.4-28.48 43.81-50.63 8.16-.05 16.32.12 24.49.04a73.68 73.68 0 0 1-11.29 23zm13.31-54.36c1.37 8.71 1.08 17.74-.76 26.32h-24.46c2.37-10.75 2.53-21.99.42-32.82 7.81-.06 15.63.16 23.44.02.55 2.13 1.01 4.29 1.36 6.48zm-60.87-61.54c26.46 4.76 49.74 24.38 58.04 50.04h-23.11c-5.4-20.83-19.8-39.12-38.88-49.11 1.31-.34 2.62-.65 3.95-.93zm-8.8 14.86c.08-3.53.23-7.08.34-10.62 18.48 8.91 32.74 26.03 38.22 45.8h-39.4l.84-35.18zm-.96 40.18h40.75c2.26 10.81 2.09 22.08-.46 32.82h-41.07c.26-10.94.52-21.88.79-32.82zm-1.87 78.05.96-40.23h39.82c-6.3 20.27-21.56 37.53-40.92 46.22zm-1.91-128.91c-.37 15.29-.73 30.58-1.1 45.87h-40.33c6.16-20.42 21.67-37.78 41.43-45.87zm-66.19 30.28c11.39-18.73 39.68-38.87 62.18-33.97-20.63 9.15-36.53 27.86-42.63 49.55-8.94.06-17.88-.11-26.82-.04a72.387 72.387 0 0 1 7.27-15.55zm-10.75 44.21c-.62-7.97.09-15.96 2.02-23.63h27a81.53 81.53 0 0 0-.45 32.82c-9.08.07-18.16-.16-27.24-.02-.64-3.03-1.1-6.09-1.34-9.18zm15.26 14.19h14.46c5.47 20.93 19.69 39.41 38.52 50.07-4.34 1.03-8.85 2.93-13.21 1.18-24.69-6.73-45.47-26.5-52.43-51.25zM300.86 113.17c8.52 6.73 17.05 13.46 25.58 20.19-2.16 10.43-4.33 20.86-6.49 31.29.63 5.01 4.89 9.12 6.94 13.74 1.12 1.96 3.89 1.38 4.57-.6 3.77-11 7.54-22 11.31-33.01 5.92 4.88 11.84 9.76 17.75 14.64 1.96 15.37-3.4 13.9 10.78 21.37 1.7.99 3.67-.29 3.76-2.16.34-6.58.67-13.17 1.01-19.75 6.04-2.07 12.07-4.14 18.11-6.21 1.42-.49 2.46-2.26 1.49-3.67-8.7-13.87-6.32-8.24-23.33-5.67-5.82-4.26-11.65-8.51-17.47-12.77 8.17-5.27 16.34-10.55 24.51-15.82 2.5-1.45 8.14-4.63 3.36-7.12-4.66-.73-13-5.93-16.9-3.62-8.95 4.67-17.9 9.33-26.85 14-7-5.64-13.99-11.27-20.98-16.91-2.89-2.75-6.23-5.21-10.44-5.05-10.47-1.69-13.15 10.8-6.72 17.13zM291.33 204.47c1.37 3.26 6.09.69 4.56-2.34-1.37-3.26-6.09-.68-4.56 2.34zM222.69 344.98c-42.47.72-84.95 1.3-127.41 2.04-3.21.05-3.22 5.05 0 5 15.97-.26 31.93-.51 47.9-.77 31.2-.55 62.4-.93 93.6-1.5 3.21-.05 3.22-5.05 0-5-4.69.08-9.39.15-14.08.23zM72.67 387.66c61.53-.45 123.06-.88 184.58-1.33 3.38.33 3.75-4.99.31-5l-141.02 1.02c-14.52.12-29.05.19-43.57.31-3.38-.33-3.75 4.99-.31 5z" fill="#8e56ff" opacity="1" data-original="#000000" class=""></path></g></svg>