<svg xmlns="http://www.w3.org/2000/svg" version="1.1" xmlns:xlink="http://www.w3.org/1999/xlink" width="512" height="512" x="0" y="0" viewBox="0 0 512 512" style="enable-background:new 0 0 512 512" xml:space="preserve" class=""><g><path d="M499.156 244.039c4.835-4.732 7.844-11.324 7.844-18.608 0-12.3-8.571-22.628-20.052-25.346v-49.17l5.033-1.349c6.18-1.655 10.331-7.065 10.331-13.461s-4.151-11.807-10.331-13.462l-175.406-47c-7.715-2.067-14.903-2.067-22.62 0l-175.405 47c-6.179 1.656-10.33 7.065-10.33 13.462s4.151 11.806 10.33 13.461l63.475 17.008v41.836c-.847.147-1.699.324-2.562.556-1.029.276-2.016.6-2.965.968L90 145.624a20.487 20.487 0 0 0-3.408-2.483c-9.005-5.202-21.058-3.12-33.932 5.86-11.562 8.065-22.834 21.002-31.74 36.428-8.905 15.426-14.473 31.656-15.677 45.702-1.34 15.639 2.882 27.115 11.89 32.315a20.458 20.458 0 0 0 3.872 1.728l100.751 43.544.033.138c.647 2.417 1.559 4.603 2.723 6.583l-39.376 27.297a5.998 5.998 0 0 0 2.104 10.785l21.521 4.827-.878 22.038a6.001 6.001 0 0 0 9.879 4.812l36.512-31.013c1.58 1.579 3.41 2.979 5.515 4.195 2.167 1.251 4.358 2.152 6.58 2.729l-8.541 47.146a6 6 0 0 0 9.115 6.138l18.631-11.805 14.963 16.205a6 6 0 0 0 10.388-3.583l3.888-47.738c2.233 0 4.519-.316 6.866-.945.046-.012.09-.028.136-.04l90.933 67.599c.187.139.381.267.582.383 4.038 2.328 8.54 3.437 13.314 3.437 18.459 0 40.983-16.58 56.452-43.374 8.966-15.53 14.115-32.133 14.498-46.749.418-15.935-4.84-27.879-14.803-33.631a6.09 6.09 0 0 0-.62-.312l-68.174-29.459c40.294-1.397 78.71-12.452 111.595-32.19a6 6 0 0 0 2.912-5.145v-80.473l46.441-12.444v45.954c-11.48 2.718-20.051 13.047-20.051 25.346 0 7.767 3.421 14.746 8.83 19.523l-2.969 6.38c-3.037 6.525-4.451 12.916-4.451 20.111v31.456c0 9.326 7.587 16.913 16.913 16.913h16.868c9.325 0 16.912-7.587 16.912-16.913v-31.456c0-7.198-1.414-13.589-4.45-20.111l-3.394-7.295zM120.22 136.105c0-.931.536-1.63 1.436-1.871l175.405-47c2.837-.76 5.521-1.14 8.205-1.14s5.367.38 8.204 1.14l175.406 47c.899.241 1.437.94 1.437 1.871s-.537 1.629-1.437 1.871l-8.449 2.264-169.041-15.281a5.996 5.996 0 0 0-6.516 5.436 6 6 0 0 0 5.436 6.516l136.498 12.339-133.334 35.727c-5.674 1.521-10.733 1.521-16.409 0l-175.405-47c-.899-.241-1.436-.94-1.436-1.871zm9.054 135.075c2.226 4.856 1.548 10.002-1.859 14.118-2.776 3.355-4.656 6.789-5.672 10.342l-77.93-33.681c2.378-1.207 4.8-2.662 7.253-4.373 11.562-8.065 22.835-21.002 31.741-36.428 8.905-15.425 14.474-31.656 15.677-45.702.255-2.973.306-5.793.164-8.451l67.74 50.364c-1.825 2.317-3.329 5.056-4.515 8.247-1.861 5.008-5.979 8.167-11.298 8.668-9.476.894-16.227 5.042-20.638 12.682-4.41 7.64-4.627 15.56-.663 24.212zM75.702 152.341c1.777 0 3.355.371 4.7 1.101l1.903 1.415c3.479 3.44 5.01 10.388 4.223 19.577-1.057 12.329-6.068 26.792-14.113 40.726-15.867 27.482-36.738 41.663-47.298 38.721l-2.121-.917c-2.169-1.313-3.789-3.698-4.807-6.936 1.816.749 3.774 1.122 5.845 1.122 5.448 0 11.684-2.57 18.21-7.602 8.365-6.45 16.712-16.478 23.501-28.238 12.885-22.318 18.843-48.971 6.309-58.521 1.287-.293 2.509-.446 3.649-.446zm-20.351 52.967c-6.024 10.435-13.282 19.219-20.436 24.735-6.112 4.713-10.658 5.78-12.45 4.744-1.792-1.035-3.142-5.503-2.116-13.154 1.2-8.953 5.179-19.63 11.203-30.065 12.123-20.997 25.592-29.857 31.215-29.857.676 0 1.238.128 1.671.378 4.038 2.333 4.491 19.702-9.087 43.22zM120.419 367.2l.532-13.371a6 6 0 0 0-4.682-6.094l-13.058-2.929 30.021-20.812a33.146 33.146 0 0 0 5.209 2.453c5.007 1.86 8.166 5.978 8.667 11.296a32.84 32.84 0 0 0 1.079 5.87L120.418 367.2zm79.657 33.405-9.078-9.832a5.999 5.999 0 0 0-7.619-.998l-11.304 7.162 6.512-35.945a33.095 33.095 0 0 0 5.416-1.948c4.857-2.226 10.003-1.549 14.118 1.859a32.856 32.856 0 0 0 4.912 3.372l-2.958 36.329zm5.697-48.946c-4.726-3.911-10.324-5.915-16.046-5.915-3.588 0-7.225.789-10.722 2.391-5.135 2.352-8.963 2.311-13.216-.146s-6.204-5.75-6.733-11.371c-.937-9.937-7.08-17.944-16.436-21.419-5.292-1.967-7.97-4.703-9.24-9.447-1.271-4.743-.321-8.453 3.278-12.803 6.364-7.688 7.681-17.695 3.524-26.768-2.353-5.133-2.31-8.962.146-13.215s5.75-6.204 11.371-6.734c9.937-.936 17.943-7.08 21.42-16.436 1.966-5.292 4.703-7.969 9.448-9.24 4.743-1.272 8.451-.321 12.801 3.279 7.688 6.363 17.693 7.681 26.768 3.524 5.133-2.352 8.96-2.312 13.215.146 4.254 2.456 6.205 5.75 6.734 11.372.937 9.935 7.081 17.943 16.437 21.42 5.292 1.965 7.969 4.702 9.239 9.446 1.271 4.743.321 8.453-3.278 12.803-6.363 7.688-7.681 17.694-3.524 26.768 2.352 5.133 2.31 8.962-.146 13.215s-5.75 6.204-11.372 6.733c-9.936.938-17.942 7.081-21.419 16.437-1.966 5.291-4.703 7.969-9.447 9.239-4.744 1.272-8.451.322-12.802-3.278zM385.6 347.47c-.331 12.652-4.91 27.235-12.895 41.063-17.052 29.537-41.103 42.208-53.105 35.695l-86.449-64.267c2.569-2.657 4.603-6.003 6.119-10.085 1.861-5.007 5.979-8.166 11.297-8.668 9.477-.894 16.227-5.041 20.639-12.682 4.41-7.64 4.627-15.56.663-24.212-2.226-4.856-1.548-10.003 1.859-14.118 2.17-2.623 3.79-5.295 4.883-8.034l98.452 42.543c5.718 3.497 8.825 11.768 8.537 22.764zm30.906-103.851c-32.762 18.93-71.146 28.919-111.241 28.919-6.942 0-13.935-.315-20.805-.92l-4.463-1.929a28.555 28.555 0 0 0-.644-3.052c-2.284-8.522-7.73-14.276-16.652-17.589-5.008-1.861-8.167-5.979-8.668-11.297-.894-9.477-5.041-16.227-12.682-20.639-7.64-4.41-15.56-4.628-24.213-.662-4.857 2.225-10.002 1.547-14.118-1.86-2.93-2.424-5.92-4.161-8.996-5.242v-39.559l99.931 26.776c3.858 1.034 7.584 1.551 11.311 1.551s7.452-.517 11.31-1.551l99.932-26.777v73.829zm64.441-32.239c7.748 0 14.052 6.303 14.052 14.051s-6.304 14.051-14.052 14.051-14.051-6.303-14.051-14.051 6.303-14.051 14.051-14.051zm14.052 91.522a4.918 4.918 0 0 1-4.912 4.913h-16.868a4.919 4.919 0 0 1-4.913-4.913v-31.456c0-5.458 1.027-10.099 3.33-15.048l2.686-5.772c2.117.557 4.336.857 6.625.857 2.742 0 5.384-.428 7.868-1.217l2.854 6.133c2.303 4.947 3.33 9.588 3.33 15.048v31.456zm-257.726 6.036c11.684-20.237 4.725-46.208-15.513-57.893-9.804-5.661-21.227-7.165-32.159-4.234-10.936 2.93-20.074 9.943-25.734 19.747-11.684 20.238-4.725 46.208 15.513 57.893 6.53 3.77 13.778 5.696 21.122 5.696 3.681 0 7.387-.484 11.037-1.462 10.935-2.931 20.073-9.943 25.734-19.747zm-10.393-6c-4.058 7.028-10.609 12.056-18.447 14.156-7.842 2.101-16.027 1.022-23.054-3.036s-12.055-10.608-14.155-18.447c-2.101-7.838-1.022-16.025 3.035-23.053 4.058-7.028 10.608-12.056 18.447-14.156a30.516 30.516 0 0 1 7.913-1.048c5.264 0 10.46 1.381 15.141 4.083 14.508 8.375 19.496 26.993 11.12 41.5z" fill="#f8941f" opacity="1" data-original="#000000" class=""></path></g></svg>