<svg xmlns="http://www.w3.org/2000/svg" version="1.1" xmlns:xlink="http://www.w3.org/1999/xlink" width="50" height="50" x="0" y="0" viewBox="0 0 512.019 512.019" style="enable-background:new 0 0 512 512" xml:space="preserve" class=""><g><path d="M503.041 403.213a174.613 174.613 0 0 0-11.947-50.833c-2.891-7.909-11.176-12.47-19.405-10.684-24.892 5.214-80.512 14.157-174.515 16.213-23-22.085-59.33-22.085-82.33 0-94.003-2.048-149.623-10.991-174.524-16.213-8.176-1.784-16.421 2.714-19.345 10.556A174.832 174.832 0 0 0 8.832 403.29a17.014 17.014 0 0 0-8.823 14.848v8.533a206.325 206.325 0 0 0 14.771 74.573 16.992 16.992 0 0 0 15.718 10.761c1.165 0 2.326-.123 3.465-.367 26.923-5.444 86.75-14.66 187.913-16.384v2.159a14.636 14.636 0 0 0 24.977 10.326l9.156-9.182 9.156 9.182a14.634 14.634 0 0 0 24.977-10.326v-2.159c101.163 1.707 160.981 10.94 187.836 16.384a16.913 16.913 0 0 0 19.251-10.368 206.42 206.42 0 0 0 14.78-74.598v-8.533a17.017 17.017 0 0 0-8.968-14.926zm-27.913-44.809a162.464 162.464 0 0 1 10.675 42.667h-170.06a59.147 59.147 0 0 0-6.238-26.402 970.644 970.644 0 0 0 165.623-16.265zm-219.119 0c23.564 0 42.667 19.103 42.667 42.667s-19.103 42.667-42.667 42.667-42.667-19.103-42.667-42.667c.029-23.552 19.115-42.638 42.667-42.667zm-53.495 16.265a59.15 59.15 0 0 0-6.238 26.402H26.036a165.364 165.364 0 0 1 10.786-42.667 968.702 968.702 0 0 0 165.692 16.265zM30.627 494.938a188.868 188.868 0 0 1-13.551-68.267v-8.533h181.76a59.874 59.874 0 0 0 23.04 31.881v28.16c-102.707 1.74-163.772 11.169-191.249 16.759zm235.801-10.07c-5.785-5.523-14.875-5.572-20.719-.111l-6.767 6.767V458.33a59.101 59.101 0 0 0 34.133 0v33.195zm228.515-58.197a190.458 190.458 0 0 1-13.5 68.267c-27.529-5.589-88.593-15.019-191.3-16.759v-28.16a59.876 59.876 0 0 0 23.083-31.881h181.717z" fill="#f8941f" opacity="1" data-original="#000000"></path><path d="M256.009 426.671a25.6 25.6 0 0 0 18.102-43.702 25.6 25.6 0 0 0-43.702 18.102c0 14.138 11.462 25.6 25.6 25.6zm0-34.133a8.533 8.533 0 1 1 0 17.066 8.533 8.533 0 0 1 0-17.066zM495.258 86.72 264.764 1.574a25.132 25.132 0 0 0-17.51 0L16.76 86.72a25.882 25.882 0 0 0 0 48.436l94.182 34.79v83.934a25.658 25.658 0 0 0 16.623 23.953l119.467 44.8a25.52 25.52 0 0 0 17.971 0l119.467-44.8a25.67 25.67 0 0 0 16.606-23.953v-83.934l42.667-15.761v60.365c-15.025 3.879-25.542 17.404-25.6 32.922v34.133c0 9.426 7.641 17.067 17.067 17.067h34.133c9.426 0 17.067-7.641 17.067-17.067v-34.133c-.058-15.517-10.576-29.042-25.6-32.922v-66.671l34.449-12.723a25.882 25.882 0 0 0-.001-48.436zm-25.915 160.751v34.133H435.21v-34.133c0-9.426 7.641-17.067 17.067-17.067 9.425 0 17.066 7.641 17.066 17.067zm-85.334 6.408a8.533 8.533 0 0 1-5.555 7.97l-119.467 44.817a8.323 8.323 0 0 1-5.973 0L133.547 261.85a8.533 8.533 0 0 1-5.538-7.97v-77.653l119.245 44.049a25.2 25.2 0 0 0 17.51 0l119.245-44.023zm105.336-134.732-37.709 13.926-144.538-29.124c0-.512.111-1.024.111-1.545 0-19.14-22.494-34.133-51.2-34.133s-51.2 14.993-51.2 34.133 22.494 34.133 51.2 34.133a59.095 59.095 0 0 0 44.075-16.589l121.054 24.397-162.287 59.947a8.137 8.137 0 0 1-5.683 0L22.674 119.147a8.815 8.815 0 0 1 0-16.418l230.494-85.146a8.137 8.137 0 0 1 5.683 0l230.494 85.146a8.815 8.815 0 0 1 0 16.418zm-199.202-16.743c0 8.055-14.601 17.067-34.133 17.067s-34.133-9.011-34.133-17.067 14.601-17.067 34.133-17.067 34.133 9.012 34.133 17.067z" fill="#f8941f" opacity="1" data-original="#000000"></path></g></svg>