<svg xmlns="http://www.w3.org/2000/svg" version="1.1" xmlns:xlink="http://www.w3.org/1999/xlink" width="50" height="50" x="0" y="0" viewBox="0 0 64 64" style="enable-background:new 0 0 512 512" xml:space="preserve"><g><path d="M63 54h-1.554a3.954 3.954 0 0 0 .556-2V34a4.005 4.005 0 0 0-4-4h-23a3.975 3.975 0 0 0-1.535.308A10.935 10.935 0 0 0 31.002 30h-3.5v-.768A9.499 9.499 0 0 0 31.372 23h.13a4.005 4.005 0 0 0 4-4v-4.5a13.5 13.5 0 0 0-27 0V19a4.005 4.005 0 0 0 4 4h.13a9.499 9.499 0 0 0 3.87 6.231V30h-3.5a11.012 11.012 0 0 0-11 11v10a4.951 4.951 0 0 0 1.026 3H1a1 1 0 0 0-1 1v7a1 1 0 0 0 1 1h62a1 1 0 0 0 1-1v-7a1 1 0 0 0-1-1Zm-4.998-22a2.002 2.002 0 0 1 2 2v18a2.002 2.002 0 0 1-2 2h-25V34a2.002 2.002 0 0 1 2-2ZM27.933 54a7.932 7.932 0 0 0-1.013-3h4.082v3Zm-6.93-4.91A6.01 6.01 0 0 1 25.918 54h-4.917ZM31.502 21v-4a2 2 0 0 1 0 4Zm-9.5-18a11.513 11.513 0 0 1 11.5 11.5v1.056a3.953 3.953 0 0 0-2-.556h-.51l-3.563-4.611a1 1 0 0 0-1.525-.069A14.666 14.666 0 0 1 15.184 15h-2.682a3.954 3.954 0 0 0-2 .556V14.5A11.513 11.513 0 0 1 22.002 3Zm-11.5 16a2.002 2.002 0 0 1 2-2v4a2.002 2.002 0 0 1-2-2Zm4 2.5V17h.68a16.681 16.681 0 0 0 11.36-4.488l2.96 3.83V21.5a7.5 7.5 0 1 1-15 0Zm7.5 9.5a9.438 9.438 0 0 0 3.5-.676V31.5a3.5 3.5 0 0 1-7 0v-1.177a9.438 9.438 0 0 0 3.5.677Zm-18 20V41a9.01 9.01 0 0 1 9-9h3.525a5.497 5.497 0 0 0 10.95 0h3.524c.177 0 .358.026.537.037A3.951 3.951 0 0 0 31.002 34v15h-5.726a7.958 7.958 0 0 0-5.274-2h-10a1 1 0 0 0 0 2h9v5h-12a3.003 3.003 0 0 1-3-3ZM62 61H2v-5h60Z" fill="#ffffff" opacity="1" data-original="#000000"></path><path d="M46.502 48a5 5 0 1 0-5-5 5.006 5.006 0 0 0 5 5Zm0-8a3 3 0 1 1-3 3 3.003 3.003 0 0 1 3-3Z" fill="#ffffff" opacity="1" data-original="#000000"></path></g></svg>