<svg xmlns="http://www.w3.org/2000/svg" version="1.1" xmlns:xlink="http://www.w3.org/1999/xlink" width="50" height="50" x="0" y="0" viewBox="0 0 682.667 682.667" style="enable-background:new 0 0 512 512" xml:space="preserve" class=""><g><defs><clipPath id="a" clipPathUnits="userSpaceOnUse"><path d="M0 512h512V0H0Z" fill="#1ab69d" opacity="1" data-original="#000000"></path></clipPath><clipPath id="b" clipPathUnits="userSpaceOnUse"><path d="M0 512h512V0H0Z" fill="#1ab69d" opacity="1" data-original="#000000"></path></clipPath></defs><g clip-path="url(#a)" transform="matrix(1.33333 0 0 -1.33333 0 682.667)"><path d="M0 0v-80" style="stroke-width:30;stroke-linecap:round;stroke-linejoin:round;stroke-miterlimit:10;stroke-dasharray:none;stroke-opacity:1" transform="translate(467 437)" fill="none" stroke="#1ab69d" stroke-width="30" stroke-linecap="round" stroke-linejoin="round" stroke-miterlimit="10" stroke-dasharray="none" stroke-opacity="" data-original="#000000" opacity="1"></path></g><path d="M0 0v-95.294h200V0" style="stroke-width:30;stroke-linecap:round;stroke-linejoin:round;stroke-miterlimit:10;stroke-dasharray:none;stroke-opacity:1" transform="matrix(1.33333 0 0 -1.33333 262.667 132.941)" fill="none" stroke="#1ab69d" stroke-width="30" stroke-linecap="round" stroke-linejoin="round" stroke-miterlimit="10" stroke-dasharray="none" stroke-opacity="" data-original="#000000" opacity="1"></path><g clip-path="url(#b)" transform="matrix(1.33333 0 0 -1.33333 0 682.667)"><path d="m0 0-170-60L0-120l170 60Z" style="stroke-width:30;stroke-linecap:round;stroke-linejoin:round;stroke-miterlimit:10;stroke-dasharray:none;stroke-opacity:1" transform="translate(297 497)" fill="none" stroke="#1ab69d" stroke-width="30" stroke-linecap="round" stroke-linejoin="round" stroke-miterlimit="10" stroke-dasharray="none" stroke-opacity="" data-original="#000000" opacity="1"></path><path d="M0 0h-100v140l11.298 8.07C-54.669 172.379-8.147 168.987 22 140h105c19.33 0 35-15.67 35-35s-15.67-35-35-35H22" style="stroke-width:30;stroke-linecap:round;stroke-linejoin:round;stroke-miterlimit:10;stroke-dasharray:none;stroke-opacity:1" transform="translate(197 45)" fill="none" stroke="#1ab69d" stroke-width="30" stroke-linecap="round" stroke-linejoin="round" stroke-miterlimit="10" stroke-dasharray="none" stroke-opacity="" data-original="#000000" opacity="1"></path><path d="M0 0h120.35a60 60 0 0 1 47.661 23.553l56.738 74.195C242.635 121.139 280 108.489 280 79.044a30.79 30.79 0 0 0-4.891-16.651L216.57-28.668A90 90 0 0 0 140.864-70H-20" style="stroke-width:30;stroke-linecap:round;stroke-linejoin:round;stroke-miterlimit:10;stroke-dasharray:none;stroke-opacity:1" transform="translate(217 115)" fill="none" stroke="#1ab69d" stroke-width="30" stroke-linecap="round" stroke-linejoin="round" stroke-miterlimit="10" stroke-dasharray="none" stroke-opacity="" data-original="#000000" opacity="1"></path><path d="M97 215H15V15h82z" style="stroke-width:30;stroke-linecap:round;stroke-linejoin:round;stroke-miterlimit:10;stroke-dasharray:none;stroke-opacity:1" fill="none" stroke="#1ab69d" stroke-width="30" stroke-linecap="round" stroke-linejoin="round" stroke-miterlimit="10" stroke-dasharray="none" stroke-opacity="" data-original="#000000" opacity="1"></path></g></g></svg>