<svg xmlns="http://www.w3.org/2000/svg" version="1.1" xmlns:xlink="http://www.w3.org/1999/xlink" width="50" height="50" x="0" y="0" viewBox="0 0 512 512" style="enable-background:new 0 0 512 512" xml:space="preserve" class=""><g><path d="M433.5 9C395.178 9 364 40.178 364 78.5s31.178 69.5 69.5 69.5S503 116.822 503 78.5 471.823 9 433.5 9zm0 125c-30.603 0-55.5-24.897-55.5-55.5S402.897 23 433.5 23 489 47.897 489 78.5 464.103 134 433.5 134zm23.803-40.22c0 9.837-7.017 18.187-16.667 20.996l.062 2.539a7 7 0 0 1-6.829 7.167l-.172.002a7 7 0 0 1-6.995-6.831l-.066-2.749c-5.196-1.437-8.77-4.43-11.998-7.476a7 7 0 0 1 9.608-10.184c3.67 3.463 5.426 4.541 9.255 4.541 5.405 0 9.803-3.592 9.803-8.006s-4.397-8.005-9.803-8.005c-13.125 0-23.803-9.871-23.803-22.005 0-9.84 7.023-18.192 16.68-20.998l-.074-3.089a7.001 7.001 0 0 1 6.831-7.166c3.847-.045 7.073 2.965 7.166 6.83l.085 3.557c5.233 1.535 11.006 4.589 13.873 8.95a7 7 0 0 1-11.699 7.689c-1.021-1.392-6.344-3.777-9.059-3.778-5.404.001-9.802 3.592-9.802 8.005 0 4.414 4.397 8.005 9.803 8.005 13.123.001 23.801 9.872 23.801 22.006zM148 78.5C148 40.178 116.822 9 78.5 9S9 40.178 9 78.5 40.178 148 78.5 148 148 116.822 148 78.5zM78.5 134C47.897 134 23 109.103 23 78.5S47.897 23 78.5 23 134 47.897 134 78.5 109.103 134 78.5 134zm45.785-55.5a7 7 0 0 1-7 7H85.301v31.984a7 7 0 1 1-14 0V85.5H39.317a7 7 0 1 1 0-14h31.984V39.516a7 7 0 1 1 14 0V71.5h31.984a7 7 0 0 1 7 7zm251.412 55.406c-9.938-5.753-22.69-2.398-28.516 7.475l-60.603 94.592h-61.157l-60.603-94.592c-5.825-9.873-18.578-13.231-28.516-7.475a20.799 20.799 0 0 0-9.735 12.724 20.786 20.786 0 0 0 2.108 15.871l77.601 134.409V496a7 7 0 0 0 7 7h83.472a7 7 0 0 0 7-7V300.333L383.32 162.51c5.784-9.988 2.365-22.819-7.623-28.604zm-4.497 21.595-80.515 139.456a7.003 7.003 0 0 0-.938 3.5V489H263v-98.705a7 7 0 1 0-14 0V489h-28.724V295.034a7.003 7.003 0 0 0-.938-3.5l-78.543-136.042a6.887 6.887 0 0 1-.7-5.258 6.888 6.888 0 0 1 3.224-4.213c3.308-1.916 7.558-.782 9.472 2.523.053.091.107.181.164.269l62.745 97.936a7 7 0 0 0 5.894 3.224h68.814a7 7 0 0 0 5.894-3.224l62.745-97.936c.056-.088.111-.178.164-.269 1.915-3.306 6.163-4.438 9.471-2.524 3.306 1.917 4.439 6.166 2.518 9.481zM256 224.846c23.902 0 43.347-19.445 43.347-43.348S279.902 138.15 256 138.15s-43.348 19.445-43.348 43.348 19.446 43.348 43.348 43.348zm0-72.696c16.182 0 29.347 13.165 29.347 29.348S272.183 210.846 256 210.846s-29.348-13.165-29.348-29.348S239.818 152.15 256 152.15z" fill="#ffffff" opacity="1" data-original="#000000" class=""></path></g></svg>