<svg xmlns="http://www.w3.org/2000/svg" version="1.1" xmlns:xlink="http://www.w3.org/1999/xlink" width="50" height="50" x="0" y="0" viewBox="0 0 64 64" style="enable-background:new 0 0 512 512" xml:space="preserve" class=""><g><path d="M54.19 19.7c-.88-.78-1.8-1.58-2.03-2.28-.25-.76.03-1.99.29-3.18.4-1.78.81-3.63-.19-5-1.01-1.38-2.9-1.56-4.73-1.73-1.2-.11-2.44-.23-3.08-.69-.62-.45-1.11-1.59-1.58-2.68-.73-1.7-1.49-3.46-3.14-3.99-1.58-.51-3.19.44-4.75 1.36-1.05.62-2.15 1.27-2.98 1.27s-1.93-.65-2.99-1.28C27.45.58 25.84-.37 24.26.14c-1.65.54-2.41 2.29-3.14 3.99-.47 1.1-.96 2.23-1.58 2.68-.63.46-1.88.58-3.08.69-1.83.17-3.72.35-4.73 1.73-1 1.37-.59 3.21-.19 4.99.26 1.19.54 2.41.29 3.18-.23.71-1.14 1.51-2.03 2.28-1.34 1.17-2.85 2.5-2.85 4.27 0 1.76 1.52 3.09 2.85 4.27.88.78 1.8 1.58 2.03 2.28.25.76-.03 1.99-.29 3.18-.4 1.78-.81 3.63.19 5 1.01 1.38 2.9 1.56 4.73 1.73.13.01.26.02.4.04l-6.78 18.47c-.12.33-.05.7.18.97s.59.39.93.31l6-1.28 4 4.72c.19.22.46.34.74.34.06 0 .11 0 .17-.02.34-.06.62-.3.74-.62L29 46.41c1.06-.63 2.16-1.28 2.99-1.28s1.93.65 2.99 1.28l6.16 16.93c.12.32.4.56.74.62.06.01.11.02.17.02.28 0 .55-.12.74-.34l4.01-4.72 5.99 1.28c.34.07.7-.05.93-.31.23-.27.3-.64.18-.97l-6.77-18.47c.13-.01.26-.02.39-.04 1.83-.17 3.72-.35 4.73-1.73 1-1.37.59-3.21.19-4.99-.26-1.19-.54-2.41-.29-3.18.23-.71 1.14-1.51 2.03-2.28 1.34-1.17 2.85-2.5 2.85-4.27.01-1.76-1.5-3.09-2.84-4.26zM21.6 61.13l-3.29-3.89a.958.958 0 0 0-.94-.32l-4.85 1.03 6.3-17.17c.29.09.54.19.73.33.62.45 1.11 1.59 1.58 2.68.73 1.7 1.49 3.46 3.14 3.99.74.24 1.48.15 2.22-.09zm29.89-3.18-4.84-1.03a.98.98 0 0 0-.94.32l-3.3 3.89-4.89-13.43c.43.14.86.23 1.29.23a3 3 0 0 0 .93-.14c1.65-.54 2.41-2.29 3.14-3.99.47-1.1.96-2.23 1.58-2.68.19-.14.45-.25.74-.33zm1.42-31.17c-1.08.95-2.2 1.93-2.6 3.14-.41 1.27-.08 2.76.24 4.2.3 1.36.62 2.77.14 3.43-.49.68-1.94.81-3.34.94-1.46.14-2.97.28-4.04 1.05-1.05.76-1.65 2.15-2.22 3.48-.56 1.3-1.14 2.65-1.95 2.92-.7.22-1.79-.37-2.89-1.02a.405.405 0 0 0-.09-.05c-.06-.04-.12-.07-.19-.11-1.28-.76-2.61-1.54-3.97-1.54s-2.69.79-3.98 1.55c-.06.04-.13.07-.19.11-.03.01-.06.03-.09.05-1.1.65-2.2 1.25-2.89 1.02-.81-.26-1.39-1.61-1.95-2.92-.57-1.34-1.17-2.72-2.22-3.48-1.06-.77-2.58-.92-4.04-1.05-1.4-.13-2.85-.27-3.34-.94-.48-.66-.17-2.07.14-3.43.32-1.44.65-2.93.24-4.2-.39-1.21-1.51-2.19-2.6-3.14-1.08-.95-2.19-1.92-2.19-2.81s1.12-1.86 2.19-2.81c1.08-.95 2.2-1.93 2.6-3.14.41-1.27.08-2.76-.24-4.2-.3-1.36-.62-2.77-.14-3.43.49-.68 1.94-.81 3.34-.94 1.46-.14 2.97-.28 4.04-1.05 1.05-.76 1.65-2.15 2.22-3.48.56-1.3 1.14-2.65 1.95-2.92.1-.03.21-.05.33-.05.75 0 1.81.62 2.83 1.23 1.29.76 2.62 1.55 3.98 1.55s2.69-.79 3.98-1.55c1.19-.7 2.41-1.43 3.17-1.18.81.26 1.39 1.61 1.95 2.92.57 1.34 1.17 2.72 2.22 3.48 1.06.77 2.58.92 4.04 1.05 1.4.13 2.85.27 3.34.94.48.66.17 2.07-.14 3.43-.32 1.44-.65 2.93-.24 4.2.39 1.21 1.51 2.19 2.6 3.14 1.08.95 2.19 1.92 2.19 2.81.01.87-1.11 1.85-2.19 2.8z" fill="#ffffff" opacity="1" data-original="#000000"></path><path d="M47.24 29.38h-.77v-8.82l.72-.29c.36-.15.6-.5.6-.9 0-.39-.24-.75-.6-.9l-15.03-6.13c-.23-.1-.5-.1-.73 0L16.4 18.47c-.37.15-.6.5-.6.9 0 .39.24.75.6.9l5.83 2.38v6.95c0 .52.41.94.92.97 5.34.25 7.74 3.57 7.84 3.7a1 1 0 0 0 .79.42c.31 0 .61-.15.79-.41.1-.14 2.5-3.45 7.84-3.71.52-.02.92-.45.92-.97v-6.95l3.18-1.3v8.03h-.77c-.54 0-.97.43-.97.97v4.34c0 .54.43.97.97.97h3.48c.54 0 .97-.43.97-.97v-4.34a.942.942 0 0 0-.95-.97zm-7.83-.68c-3.98.44-6.45 2.36-7.62 3.54-1.17-1.18-3.64-3.1-7.62-3.54v-5.27l7.26 2.96c.12.05.24.07.37.07s.25-.02.37-.07l7.26-2.96v5.27zm-7.62-4.25-12.46-5.08 12.46-5.08 12.46 5.08zm14.48 9.27h-1.54v-2.4h1.54z" fill="#ffffff" opacity="1" data-original="#000000"></path></g></svg>