<svg xmlns="http://www.w3.org/2000/svg" version="1.1" xmlns:xlink="http://www.w3.org/1999/xlink" width="50" height="50" x="0" y="0" viewBox="0 0 512 512" style="enable-background:new 0 0 512 512" xml:space="preserve" class=""><g><path d="M403.444 82.363c5.677-7.371 4.305-17.948-3.065-23.624-7.372-5.678-17.948-4.305-23.624 3.065l-93.676 121.613H229.81l-58.07-19.097-36.694-59.336c-4.893-7.913-15.276-10.359-23.187-5.467-7.912 4.893-10.359 15.275-5.467 23.186l39.925 64.56a16.845 16.845 0 0 0 9.064 7.142l59.499 19.567v114.204l-23.495 56.712a20.208 20.208 0 0 0-.924 12.686l25.042 99.156c2.733 10.824 13.722 17.383 24.548 14.648 10.824-2.734 17.383-13.724 14.648-24.548l-23.402-92.66 20.436-49.327h12.8l5.349 51.385a20.214 20.214 0 0 0 17.735 17.981l88.739 10.476c11.115 1.309 21.139-6.642 22.445-17.705 1.311-11.086-6.617-21.134-17.704-22.442l-72.679-8.58-4.315-41.458V211.242c.957-1.11-6.702 8.789 99.341-128.879z" fill="#ffffff" opacity="1" data-original="#000000" class=""></path><circle cx="259.673" cy="137.377" r="34.911" fill="#ffffff" opacity="1" data-original="#000000" class=""></circle><path d="M218.256 40.717c-.433-.894-1.387-1.135-2.586-1.122l1.762 3.633c.816-.664 1.298-1.534.824-2.511zM210.153 32.088c-1.103.836-1.315 1.71-1 2.36.382.786 1.324.932 2.564.866l-1.564-3.226z" fill="#ffffff" opacity="1" data-original="#000000" class=""></path><path d="m252.861 36.55-13.71-28.758a4.256 4.256 0 0 0-3.926-2.42c-23.371.484-33.329 28.623-56.166 30.21-1.825.127-2.945 2.053-2.16 3.7l13.71 28.759a4.256 4.256 0 0 0 3.926 2.42c23.371-.484 33.329-28.623 56.166-30.211 1.828-.127 2.944-2.057 2.16-3.7zm-33.33 10.317.381.786c.184.38-.161.982-.675 1.232-.597.29-1.203.148-1.386-.232l-.329-.679c-3.305 1.469-6.779 1.077-7.621-.657-.446-.922-.291-2.672.739-3.172 1.139-.552 2.838.6 5.015-.02l-2.131-4.393c-2.955.261-6.449.515-8.132-2.955-1.67-3.446.076-6.336 2.753-8.136l-.369-.758c-.184-.38.079-.943.676-1.233.515-.25 1.202-.147 1.385.233l.329.679c1.707-.762 5.09-1.867 5.998.006.354.732.589 2.46-.604 3.039-.895.434-1.831-.183-3.659.535l1.921 3.958c2.913-.274 6.406-.393 8.183 3.266 1.63 3.361.447 6.446-2.474 8.501zM375.26 254.135c-1.214.664-1.554 1.497-1.337 2.187.262.834 1.172 1.117 2.408 1.235l-1.071-3.422z" fill="#ffffff" opacity="1" data-original="#000000" class=""></path><path d="M416.877 264.936c-3.105-10.156-6.211-20.311-9.318-30.466a4.253 4.253 0 0 0-3.525-2.973c-23.186-2.969-37.187 23.394-60.007 21.595-1.824-.143-3.216 1.596-2.683 3.341l9.319 30.466a4.253 4.253 0 0 0 3.525 2.973c23.186 2.969 37.186-23.394 60.007-21.595 1.819.143 3.217-1.593 2.682-3.341zm-34.523 5.199.262.834c.126.403-.303.947-.85 1.118-.633.199-1.211-.03-1.337-.433l-.224-.72c-3.487.965-6.864.067-7.44-1.775-.307-.978.106-2.685 1.198-3.027 1.208-.379 2.716 1.012 4.962.72l-1.458-4.659c-2.962-.179-6.455-.442-7.607-4.124-1.144-3.653 1.01-6.253 3.923-7.639l-.252-.805c-.125-.403.218-.922.851-1.121.545-.171 1.211.032 1.336.435l.224.719c1.801-.501 5.311-1.095 5.933.89.242.777.22 2.521-1.045 2.916-.948.298-1.784-.451-3.697-.009l1.315 4.198c2.922.159 6.395.555 7.611 4.438 1.114 3.566-.511 6.442-3.705 8.044z" fill="#ffffff" opacity="1" data-original="#000000" class=""></path><path d="M382.002 263.865c-.298-.947-1.206-1.327-2.394-1.491l1.208 3.853c.905-.537 1.51-1.327 1.186-2.362zM445.202 158.596c-.682-.722-1.664-.666-2.805-.295l2.77 2.939c.58-.88.779-1.855.035-2.644zM434.885 152.793c-.802 1.126-.743 2.023-.247 2.55.6.636 1.543.493 2.705.059l-2.458-2.609z" fill="#ffffff" opacity="1" data-original="#000000" class=""></path><path d="m476.958 144.369-21.695-23.329a4.253 4.253 0 0 0-4.47-1.133c-22.153 7.463-23.223 37.293-44.535 45.649-1.702.667-2.196 2.842-.953 4.178l21.696 23.33a4.253 4.253 0 0 0 4.47 1.133c22.154-7.464 23.223-37.294 44.536-45.65 1.697-.665 2.195-2.839.951-4.178zm-28.099 20.348c.29.307.14.985-.275 1.377-.483.455-1.103.501-1.393.193l-.516-.547c-2.714 2.392-6.146 3.059-7.469 1.655-.703-.746-1.078-2.462-.244-3.247.921-.868 2.885-.278 4.777-1.521l-3.349-3.553c-2.741 1.135-5.997 2.423-8.644-.383-2.626-2.785-1.825-6.066.19-8.586l-.58-.613c-.29-.308-.207-.923.277-1.378.415-.392 1.103-.501 1.393-.193l.516.547c1.399-1.238 4.298-3.306 5.724-1.792.557.592 1.3 2.171.334 3.081-.723.682-1.8.373-3.33 1.607l3.017 3.202c2.698-1.136 5.995-2.296 8.785.664 2.563 2.72 2.359 6.018.187 8.853l.6.634zM64.623 196.003c-.802 1.126-.743 2.023-.247 2.55.6.636 1.543.493 2.705.059l-2.458-2.609zM74.94 201.806c-.682-.723-1.664-.667-2.805-.295l2.77 2.939c.58-.879.779-1.855.035-2.644z" fill="#ffffff" opacity="1" data-original="#000000" class=""></path><path d="M106.697 187.579c-7.233-7.776-14.465-15.554-21.696-23.33a4.253 4.253 0 0 0-4.47-1.133c-22.153 7.463-23.223 37.293-44.535 45.649-1.703.667-2.196 2.841-.953 4.177l21.696 23.33a4.253 4.253 0 0 0 4.47 1.133c22.153-7.463 23.223-37.294 44.535-45.649 1.699-.666 2.198-2.838.953-4.177zm-28.1 20.347c.29.307.14.985-.275 1.377-.483.455-1.103.501-1.393.193l-.516-.548c-2.714 2.392-6.146 3.059-7.469 1.655-.703-.746-1.078-2.462-.244-3.247.921-.868 2.885-.278 4.777-1.521l-3.349-3.553c-2.741 1.135-5.997 2.423-8.644-.383-2.627-2.785-1.825-6.066.19-8.586l-.58-.613c-.29-.308-.207-.923.277-1.378.415-.392 1.103-.501 1.393-.193l.516.547c1.399-1.238 4.298-3.306 5.724-1.792.558.592 1.301 2.171.334 3.081-.723.682-1.801.373-3.329 1.607l3.017 3.202c2.698-1.136 5.995-2.296 8.785.664 2.563 2.72 2.359 6.018.187 8.854l.599.634zM78.598 34.958c-.946.304-1.319 1.215-1.475 2.404l3.845-1.235c-.544-.9-1.337-1.5-2.37-1.169zM68.916 41.773c.674 1.209 1.509 1.542 2.197 1.32.832-.268 1.108-1.179 1.217-2.418l-3.414 1.098z" fill="#ffffff" opacity="1" data-original="#000000" class=""></path><path d="M82.808 2.779c.13-1.82-1.616-3.205-3.361-2.659L49.05 9.658a4.251 4.251 0 0 0-2.947 3.547c-2.801 23.208 23.662 37.016 22.027 59.85-.13 1.82 1.616 3.205 3.361 2.659l30.397-9.538a4.251 4.251 0 0 0 2.947-3.547c2.801-23.208-23.661-37.017-22.027-59.85zm3.59 33.696-.717.23c.991 3.479.116 6.862-1.721 7.452-.975.313-2.686-.087-3.037-1.176-.386-1.206.993-2.724.684-4.966l-4.648 1.493c-.157 2.963-.395 6.457-4.068 7.636-3.646 1.171-6.263-.965-7.669-3.868l-.803.259c-.402.129-.923-.21-1.125-.842-.175-.545.023-1.211.425-1.339l.716-.23c-.514-1.797-1.133-5.303.847-5.938.774-.249 2.518-.239 2.923 1.024.304.946-.439 1.786.017 3.697l4.189-1.345c.137-2.923.509-6.399 4.382-7.643 3.558-1.142 6.447.462 8.071 3.644l.833-.268c.402-.129.95.297 1.125.841.202.631-.022 1.21-.424 1.339zM317.682 34.958c-.946.304-1.319 1.215-1.475 2.404l3.845-1.235c-.544-.9-1.337-1.5-2.37-1.169zM308 41.773c.674 1.209 1.509 1.542 2.197 1.32.832-.268 1.108-1.179 1.217-2.418L308 41.773z" fill="#ffffff" opacity="1" data-original="#000000" class=""></path><path d="M321.892 2.779c.13-1.82-1.616-3.205-3.361-2.659l-30.397 9.538a4.251 4.251 0 0 0-2.947 3.547c-2.802 23.208 23.662 37.016 22.027 59.85-.13 1.82 1.616 3.205 3.361 2.659l30.397-9.538a4.251 4.251 0 0 0 2.947-3.547c2.801-23.208-23.662-37.017-22.027-59.85zm3.587 33.696-.717.23c.992 3.479.115 6.862-1.721 7.452-.975.313-2.686-.087-3.037-1.176-.388-1.206.993-2.724.684-4.966l-4.648 1.493c-.158 2.963-.395 6.457-4.069 7.636-3.643 1.171-6.259-.965-7.665-3.868l-.804.259c-.402.129-.923-.21-1.125-.842-.175-.545.022-1.211.424-1.339l.717-.23c-.514-1.797-1.133-5.303.847-5.938.774-.249 2.518-.239 2.923 1.024.304.946-.439 1.786.017 3.697l4.189-1.345c.137-2.923.509-6.399 4.382-7.643 3.559-1.142 6.448.462 8.07 3.644l.832-.268c.402-.129.95.297 1.125.841.204.631-.022 1.21-.424 1.339z" fill="#ffffff" opacity="1" data-original="#000000" class=""></path></g></svg>