<svg xmlns="http://www.w3.org/2000/svg" version="1.1" xmlns:xlink="http://www.w3.org/1999/xlink" width="50" height="50" x="0" y="0" viewBox="0 0 512 512" style="enable-background:new 0 0 512 512" xml:space="preserve" class=""><g><path d="M259.151 82.602a8.005 8.005 0 0 0-6.303 0l-139.005 59.573a8.001 8.001 0 0 0-4.849 7.353v112.399c0 39.709 14.193 78.445 39.966 109.072 25.761 30.613 61.49 51.228 100.607 58.047 2.09.364 4.305 1 6.432 1 2.121 0 4.346-.637 6.433-1 39.116-6.819 74.846-27.434 100.606-58.047 25.772-30.626 39.966-69.362 39.966-109.072v-112.4a8 8 0 0 0-4.849-7.353zm127.854 179.324c0 74.841-53.546 138.496-127.319 151.356l-3.686.643-3.685-.642c-73.774-12.861-127.32-76.516-127.32-151.356V154.802L256 98.658l131.005 56.144zM150.056 256c0 58.418 47.527 105.945 105.945 105.945S361.945 314.418 361.945 256 314.418 150.056 256 150.056 150.056 197.582 150.056 256zM256 166.055c49.596 0 89.945 40.349 89.945 89.944 0 49.596-40.349 89.945-89.945 89.945S166.056 305.596 166.056 256s40.349-89.945 89.944-89.945zm-60.118 104.913 30.285 30.285c4.065 4.066 9.471 6.305 15.221 6.305s11.155-2.239 15.221-6.305c16.377-16.377 50.033-50.545 59.562-60.169a21.347 21.347 0 0 0 6.252-15.211 21.346 21.346 0 0 0-6.336-15.177 21.343 21.343 0 0 0-15.15-6.251h-.062c-5.74.016-11.129 2.266-15.187 6.346l-44.348 44.754-15.017-15.016c-4.065-4.066-9.471-6.305-15.221-6.305s-11.155 2.239-15.221 6.305c-8.392 8.39-8.392 22.046.001 30.439zm11.313-19.127c1.044-1.044 2.432-1.619 3.908-1.619s2.863.575 3.907 1.619l20.7 20.699a8 8 0 0 0 5.657 2.343h.018a8 8 0 0 0 5.665-2.369l49.994-50.453a5.457 5.457 0 0 1 3.877-1.619h.016c1.46 0 2.833.567 3.869 1.597 1.04 1.034 1.614 2.411 1.618 3.876s-.563 2.846-1.609 3.897c-9.554 9.649-43.184 43.792-59.519 60.126a5.494 5.494 0 0 1-3.907 1.619 5.489 5.489 0 0 1-3.907-1.619l-30.286-30.285a5.529 5.529 0 0 1-.001-7.812zM55.417 372.539a7.998 7.998 0 0 1-2.889 10.938 7.995 7.995 0 0 1-10.939-2.889C14.966 334.854 3.829 282.795 9.382 230.04c6.935-65.874 39.106-125.105 90.589-166.782C151.455 21.582 216.089 2.447 281.96 9.382c43.925 4.624 85.231 20.61 120.486 46.474l-5.158-18.08a8 8 0 0 1 5.498-9.888c4.249-1.216 8.675 1.249 9.888 5.498l12.147 42.574a7.998 7.998 0 0 1-7.406 10.19l-44.245 1.59a7.999 7.999 0 0 1-8.281-7.708 7.999 7.999 0 0 1 7.708-8.282l23.287-.837c-33.597-25.459-73.299-41.167-115.597-45.62-127.208-13.389-241.6 79.208-254.991 206.42-5.197 49.353 5.219 98.05 30.121 140.826zm447.201-90.579c-6.935 65.874-39.106 125.105-90.589 166.782-44.57 36.08-99.005 55.265-155.559 55.267-8.772 0-17.584-.46-26.43-1.392-43.901-4.622-85.235-20.618-120.486-46.478l5.159 18.083a8 8 0 0 1-15.386 4.39L87.18 436.038a7.998 7.998 0 0 1 7.406-10.19l44.245-1.589c4.399-.174 8.124 3.292 8.282 7.708a7.999 7.999 0 0 1-7.708 8.282l-23.277.836c33.59 25.451 73.314 41.171 115.587 45.621a234.06 234.06 0 0 0 24.46 1.288c117.114.011 218.004-88.703 230.531-207.708 5.196-49.359-5.221-98.055-30.123-140.824a8 8 0 0 1 13.827-8.051c26.624 45.727 37.761 97.786 32.208 150.549z" fill="#ffffff" opacity="1" data-original="#000000"></path></g></svg>