<svg xmlns="http://www.w3.org/2000/svg" version="1.1" xmlns:xlink="http://www.w3.org/1999/xlink" width="50" height="50" x="0" y="0" viewBox="0 0 512 512" style="enable-background:new 0 0 512 512" xml:space="preserve" class=""><g><path d="m505.09 443.42-72.96-72.96a17.806 17.806 0 0 0-8.5-4.75c18.95-33.53 29.04-71.55 29.04-111.12 0-60.46-23.54-117.29-66.28-160.03s-99.58-66.28-160.04-66.28S109.05 51.82 66.3 94.56C23.54 137.3 0 194.14 0 254.59s23.55 117.29 66.3 160.03 99.59 66.28 160.05 66.28 117.29-23.54 160.04-66.28c3.89-3.89 7.62-7.91 11.19-12.02.36.43.73.85 1.14 1.24l72.99 72.99c4.44 4.44 10.37 6.89 16.69 6.89s12.25-2.45 16.69-6.89c4.46-4.46 6.92-10.41 6.91-16.75-.01-6.31-2.47-12.23-6.91-16.66zM16.15 262.58h107.87c.4 26.4 2.74 51.52 6.74 74.69-32.03 6.61-60.44 16.52-82.52 29.12-19.08-30.29-30.66-65.77-32.09-103.81zm32.1-119.8c22.08 12.6 50.48 22.51 82.52 29.12-4 23.17-6.35 48.29-6.74 74.69H16.15c1.43-38.03 13.01-73.51 32.1-103.81zm257.93-9.76a58.803 58.803 0 0 1 23.54-4.92c15.01 0 30.03 5.72 41.46 17.15 24.56 24.56 15.6 59.56-.98 84.13l-40.48 60.11-40.49-60.12c-10.84-16.08-18.43-36.63-15.49-55.79.07-.31.13-.62.16-.94 1.68-9.78 6.13-19.18 14.35-27.4a58.361 58.361 0 0 1 17.06-11.85c.31-.11.6-.23.87-.37zM436.51 246.6h-25.85a98.02 98.02 0 0 0-11.79-14.22 97.39 97.39 0 0 0-7.76-6.98c6.78-13.24 10.59-26.86 11.13-40.02.55-13.47-2.4-25.96-8.62-36.89 3.76-1.84 7.36-3.75 10.8-5.7 19.09 30.29 30.66 65.77 32.09 103.81zm0 15.98c-.81 21.48-4.85 42.15-11.66 61.53a98.608 98.608 0 0 0 2.63-22.65c0-13.6-2.77-26.77-8.02-38.88zm-202.17 59.97c.4 1.82.85 3.63 1.35 5.43-.45-.01-.9-.01-1.35-.02zm0-42.18v-17.78h5.73a97.473 97.473 0 0 0-5.73 17.78zm26.27-48.02a97.925 97.925 0 0 0-11.76 14.24h-14.51V181.2c7.65-.12 15.28-.4 22.85-.85-.04 1.66-.05 3.33.02 5.02.54 13.16 4.35 26.78 11.13 40.02-2.71 2.21-5.31 4.52-7.73 6.96zm16.35-98.41c-8.64 8.64-14.54 18.88-17.53 30.24-8.3.56-16.68.91-25.09 1.05V45.24c22.38 5.38 43.62 33.06 58.48 76.62a74.351 74.351 0 0 0-15.86 12.08zm-58.61-88.7v119.98c-23.87-.38-47.08-2.45-68.79-6.04 4.39-20.42 10.22-39.25 17.38-55.81 14.23-32.9 32.61-53.52 51.41-58.13zm0 135.98v65.38h-78.34c.39-24.97 2.61-49.16 6.51-71.74 22.74 3.78 46.97 5.97 71.83 6.36zm-78.33 81.36h78.34v65.38c-24.86.39-49.09 2.57-71.82 6.37-3.91-22.59-6.13-46.78-6.52-71.75zm78.33 81.37v119.98c-18.8-4.61-37.18-25.22-51.41-58.14-7.16-16.56-12.99-35.39-17.38-55.81 21.71-3.58 44.92-5.65 68.79-6.03zm15.99 119.98V343.95c2.5.04 5 .09 7.47.17a97.27 97.27 0 0 0 18.8 26.44 97.303 97.303 0 0 0 30.82 20.79c-14.79 41.16-35.48 67.34-57.09 72.58zm37.57-104.67c-31.87-31.87-31.87-83.73.02-115.62 1.5-1.51 3.08-2.96 4.71-4.35l46.45 68.98a7.99 7.99 0 0 0 13.26 0l46.45-68.98c1.64 1.4 3.22 2.86 4.73 4.38 15.45 15.44 23.96 35.96 23.96 57.8s-8.51 42.36-23.96 57.8c-31.87 31.87-83.74 31.87-115.62-.01zm132.35 5.44c1.77-2.08 3.45-4.22 5.03-6.43a226.34 226.34 0 0 1-4.28 7.18zm-8.9-235.16a187.97 187.97 0 0 1-11.45 5.88c-.47-.5-.93-1-1.42-1.49-20.25-20.25-49.33-26.39-74.96-18.45-10.11-29.23-23.02-51.84-37.74-66.7 51.13 10.78 95.47 40.18 125.57 80.76zm-212.29-80.8c-21.72 21.85-39.14 59.86-49.29 107.51-29.72-6.13-56-15.21-76.48-26.7 30.14-40.63 74.56-70.06 125.77-80.81zM57.3 379.63c20.47-11.49 46.76-20.57 76.48-26.7 10.16 47.65 27.58 85.66 49.29 107.51-51.21-10.75-95.63-40.18-125.77-80.81zm212.41 80.78c14.29-14.41 26.9-36.1 36.88-64.02a98.201 98.201 0 0 0 23.13 2.76c22.52 0 45.04-7.74 63.21-23.17l2.95 2.94c-30.12 40.97-74.71 70.66-126.17 81.49zm224.07 5.12c-1.42 1.42-3.34 2.21-5.39 2.21s-3.96-.78-5.39-2.21l-73.01-73.01c-.47-.47-.57-1.02-.57-1.4 0-.32.08-.93.59-1.45l7.91-7.91c.49-.49 1.06-.59 1.45-.59s.96.1 1.45.59l72.98 72.98c1.43 1.42 2.21 3.33 2.22 5.37 0 2.06-.8 3.98-2.24 5.42zm-164.05-243.1c10.68 0 20.7-4.14 28.22-11.65 15.57-15.57 15.57-40.89 0-56.46-15.56-15.56-40.87-15.56-56.43 0-15.57 15.57-15.57 40.89 0 56.46 7.5 7.51 17.52 11.65 28.21 11.65zm-16.92-56.81c4.66-4.66 10.79-6.99 16.91-6.99s12.25 2.33 16.91 6.99c9.33 9.33 9.33 24.52 0 33.85-4.5 4.5-10.5 6.97-16.91 6.97s-12.42-2.48-16.91-6.97c-9.33-9.33-9.33-24.52 0-33.85z" fill="#ffffff" opacity="1" data-original="#000000"></path></g></svg>