<svg xmlns="http://www.w3.org/2000/svg" version="1.1" xmlns:xlink="http://www.w3.org/1999/xlink" width="50" height="50" x="0" y="0" viewBox="0 0 512 512" style="enable-background:new 0 0 512 512" xml:space="preserve" class=""><g><path d="M55.398 372.616a7.998 7.998 0 0 1-2.885 10.939 7.996 7.996 0 0 1-10.94-2.885C19.609 342.974 8 299.863 8 256c0-66.243 25.797-128.521 72.638-175.362S189.757 8 256 8c52.733 0 104.151 16.905 146.472 47.884L397.3 37.758a8 8 0 1 1 15.387-4.391l12.148 42.578a7.998 7.998 0 0 1-7.407 10.19l-44.249 1.59a8 8 0 1 1-.574-15.99l23.235-.834C355.728 40.585 306.511 24 256 24 128.075 24 24 128.075 24 256c0 41.036 10.857 81.361 31.398 116.616zm415.028-241.27a8 8 0 0 0-13.824 8.054C477.143 174.653 488 214.973 488 256c0 127.925-104.075 232-232 232-50.522 0-99.746-16.586-139.857-46.902l23.251-.834a8.001 8.001 0 0 0 7.708-8.282c-.159-4.415-3.829-7.836-8.282-7.708l-44.248 1.589a8.007 8.007 0 0 0-6.185 3.292 8.005 8.005 0 0 0-1.222 6.898l12.148 42.578a8.004 8.004 0 0 0 7.689 5.807 8.002 8.002 0 0 0 7.697-10.198l-5.167-18.109C151.849 487.1 203.266 504 256 504c66.243 0 128.521-25.797 175.362-72.638S504 322.243 504 256c0-43.854-11.609-86.959-33.574-124.654zm-294.534 81.402a119.214 119.214 0 0 1 44.705-25.485c-17.433-11.528-28.961-31.296-28.961-53.715 0-2.469.16-4.943.443-7.401a7.97 7.97 0 0 1-.968-3.803V83.047l-20.363-5.409a7.999 7.999 0 0 1 0-15.462l83.2-22.101a8.009 8.009 0 0 1 4.107 0l83.199 22.101a7.995 7.995 0 0 1 .913 15.153v30.911l5.563 3.212a7.997 7.997 0 0 1 4 6.928v29.17a8 8 0 0 1-12.809 6.394l-4.755-3.576-4.755 3.576a8.01 8.01 0 0 1-8.382.765 7.98 7.98 0 0 1-3.279-3.042c-4.334 14.744-13.807 27.303-26.347 35.596a119.22 119.22 0 0 1 44.703 25.485c20.03 18.114 33.241 42.275 37.691 68.648h35.217a8 8 0 0 1 8 8c0 88.783-72.23 161.014-161.015 161.014S94.986 378.18 94.986 289.396a8 8 0 0 1 8-8H138.2c4.451-26.373 17.662-50.534 37.692-68.648zm-64.688 84.648c1.835 33.578 15.15 64.148 36.073 87.852 9.232-5.258 19.373-9.699 30.135-13.334-11.208-22.865-17.737-48.129-18.874-74.518zM248 375.51c-15.974.506-31.82 2.531-46.804 6.07 12.033 18.804 27.826 35.29 46.804 48.429zm-62.879 10.565c-9.267 3.024-18.05 6.689-26.151 10.995 17.786 16.043 39.553 27.748 63.619 33.445-14.883-12.902-27.484-27.896-37.468-44.44zm125.683-4.496c-14.984-3.539-30.831-5.564-46.804-6.07v54.499c18.978-13.139 34.771-29.625 46.804-48.429zm-21.393 48.937c24.067-5.697 45.835-17.401 63.622-33.445-8.102-4.306-16.886-7.972-26.153-10.996-9.985 16.544-22.586 31.539-37.469 44.441zm29.57-63.2c10.902-21.355 17.292-45.086 18.463-69.919H264v62.417c18.821.551 37.492 3.056 54.981 7.502zM248 297.396h-73.444c1.171 24.833 7.561 48.565 18.463 69.919 17.49-4.446 36.16-6.951 54.981-7.502zm152.798 0h-47.335c-1.137 26.389-7.666 51.653-18.874 74.518 10.763 3.635 20.904 8.077 30.136 13.335 20.922-23.704 34.238-54.274 36.073-87.853zM263.25 198.163a105.502 105.502 0 0 0-14.5 0l7.25 5.615zm-35.819 3.723c-1.248.356-2.485.739-3.714 1.14l12.38 22.061 8.411-9.974zm40.061 13.228 8.412 9.974 12.379-22.061a103.49 103.49 0 0 0-3.713-1.14zm58.675-106.874V81.645l-5.275 1.401v28.239zm9.563 14.759-1.563-.903-1.563.903v9.513a7.987 7.987 0 0 1 3.126 0zM203.962 69.906l52.039 13.823 52.038-13.823-52.038-13.823zm3.148 17.391v28.39c6.851 1.278 12.711 2.411 17.646 3.365 31.242 6.04 31.243 6.042 62.489 0 4.936-.954 10.795-2.087 17.646-3.365v-28.39l-46.837 12.441a7.988 7.988 0 0 1-4.108 0zm48.891 94.615c26.668 0 48.364-21.696 48.364-48.364 0-.492-.021-.984-.036-1.477-5.327 1.004-10.001 1.908-14.047 2.69-16.82 3.252-25.551 4.878-34.281 4.878s-17.461-1.626-34.281-4.878c-4.046-.782-8.722-1.686-14.048-2.69-.015.492-.036.985-.036 1.477 0 26.668 21.696 48.364 48.365 48.364zm-101.547 99.484h203.092c-6.191-31.851-26.726-58.073-54.384-72.189l-18.954 33.778a8 8 0 0 1-13.092 1.242L256 226.305l-15.115 17.923a7.999 7.999 0 0 1-13.092-1.242l-18.955-33.779c-27.658 14.116-48.193 40.339-54.384 72.189z" fill="#ee4a62" opacity="1" data-original="#000000" class=""></path></g></svg>