<svg xmlns="http://www.w3.org/2000/svg" version="1.1" xmlns:xlink="http://www.w3.org/1999/xlink" width="50" height="50" x="0" y="0" viewBox="0 0 64 64" style="enable-background:new 0 0 512 512" xml:space="preserve" class=""><g><path d="m44.447 17.105-12-6a1 1 0 0 0-.894 0l-12 6a1 1 0 0 0 0 1.79l1.447.723V24h2v-3.382l2 1V26a1 1 0 0 0 .445.832l.5.336a10.909 10.909 0 0 0 12.1 0l.5-.336A1 1 0 0 0 39 26v-4.382l5.447-2.718a1 1 0 0 0 0-1.79ZM37 25.465l-.059.039a9.051 9.051 0 0 1-9.882 0L27 25.465v-2.847l4.553 2.282a1 1 0 0 0 .894 0L37 22.618Zm-5-2.583L22.236 18 32 13.118 41.764 18ZM43 32H23a3 3 0 0 0-3 3v25a3 3 0 0 0 3 3h20a1 1 0 0 0 1-1V33a1 1 0 0 0-1-1Zm-1 25H26V34h16ZM23 34h1v23h-1a2.966 2.966 0 0 0-1 .184V35a1 1 0 0 1 1-1Zm0 27a1 1 0 0 1 0-2h19v2Z" fill="#ffffff" opacity="1" data-original="#000000"></path><path d="M30 37h8v2h-8zM28 41h12v2H28zM34 47a4 4 0 1 0 4 4 4 4 0 0 0-4-4Zm0 6a2 2 0 1 1 2-2 2 2 0 0 1-2 2ZM14.518 16.161a3.32 3.32 0 0 0-.252-.515L21.349 6.2A3.25 3.25 0 0 0 18.75 1a5.031 5.031 0 0 0-3.674 1.6L4.953 13.5A7.3 7.3 0 0 0 3.1 19.679l1.829 10.978-3.636 3.636a1 1 0 0 0 0 1.414l7 7a1 1 0 0 0 1.414 0l6.559-6.559a9.332 9.332 0 0 0 2.111-9.948Zm.334 18.573L9 40.586 3.414 35l3.293-3.293a1 1 0 0 0 .279-.871L5.072 19.351a5.313 5.313 0 0 1 1.347-4.486l10.123-10.9A3.022 3.022 0 0 1 18.75 3a1.25 1.25 0 0 1 1 2l-6.981 9.308A3.365 3.365 0 0 0 8 17.372a5.5 5.5 0 0 0 .21 1.5L10 25.14V27h2v-2a.97.97 0 0 0-.039-.274l-1.827-6.4a3.462 3.462 0 0 1-.134-.954 1.371 1.371 0 0 1 2.651-.492l3.86 10.034a7.336 7.336 0 0 1-1.659 7.82ZM59.071 30.657 60.9 19.679a7.3 7.3 0 0 0-1.853-6.179L48.924 2.6A5.031 5.031 0 0 0 45.25 1a3.249 3.249 0 0 0-2.6 5.2l7.084 9.447a3.32 3.32 0 0 0-.252.515L45.622 26.2a9.335 9.335 0 0 0 2.112 9.951l6.559 6.559a1 1 0 0 0 1.414 0l7-7a1 1 0 0 0 0-1.414ZM55 40.586l-5.852-5.852a7.334 7.334 0 0 1-1.659-7.819l3.86-10.035a1.371 1.371 0 0 1 2.651.492 3.5 3.5 0 0 1-.133.954l-1.828 6.4A.97.97 0 0 0 52 25v2h2v-1.86l1.79-6.265a5.5 5.5 0 0 0 .21-1.5 3.365 3.365 0 0 0-4.769-3.064L44.249 5a1.25 1.25 0 0 1 1-2 3.022 3.022 0 0 1 2.208.963l10.123 10.9a5.313 5.313 0 0 1 1.347 4.486l-1.913 11.487a1 1 0 0 0 .279.871L60.586 35Z" fill="#ffffff" opacity="1" data-original="#000000"></path></g></svg>