<svg xmlns="http://www.w3.org/2000/svg" version="1.1" xmlns:xlink="http://www.w3.org/1999/xlink" width="50" height="50" x="0" y="0" viewBox="0 0 100 100" style="enable-background:new 0 0 512 512" xml:space="preserve" class=""><g><g data-name="Layer 29"><path d="M50 34.09a8.35 8.35 0 1 0-8.34-8.34A8.35 8.35 0 0 0 50 34.09Zm0-15.19a6.85 6.85 0 1 1-6.84 6.85A6.85 6.85 0 0 1 50 18.9Z" fill="#0b3a6c" opacity="1" data-original="#000000" class=""></path><path d="M95 83.64h-3.37v-3.3a.76.76 0 0 0-.75-.75h-2.63v-3.3a.76.76 0 0 0-.75-.75h-2V65.36a.75.75 0 0 0-.75-.75h-1.17V46h1.17a.76.76 0 0 0 .75-.75v-3h2.75a.76.76 0 0 0 .75-.75v-4.31h6a.77.77 0 0 0 .73-.57.76.76 0 0 0-.37-.84l-45-25a.71.71 0 0 0-.72 0l-45 25a.76.76 0 0 0-.37.84.77.77 0 0 0 .73.57h5.5v4.25a.76.76 0 0 0 .75.75h3v3A.76.76 0 0 0 15 46h1.17v18.61H15a.75.75 0 0 0-.75.75v10.18H12.5a.76.76 0 0 0-.75.75v3.3H9.13a.75.75 0 0 0-.75.75v3.3H5a.75.75 0 0 0-.75.75v4.06a.76.76 0 0 0 .75.75h90a.76.76 0 0 0 .75-.75v-4.06a.75.75 0 0 0-.75-.75Zm-.75 4.06H5.75v-2.56h88.5Zm-78.5-21.59h9.31v9.42h-9.31ZM50 12.29l42.11 23.4H7.89Zm-38 24.9h75.5v3.5H12Zm70.08 27.42h-5.46V46h5.46Zm-56.27 0h-1.18V46h1.18a.76.76 0 0 0 .75-.75v-3h4.18v3a.76.76 0 0 0 .75.75h1.17v18.61h-1.17a.75.75 0 0 0-.75.75v10.18h-4.18V65.36a.75.75 0 0 0-.75-.75ZM73.94 46h1.18v18.61h-1.18a.75.75 0 0 0-.75.75v10.18H69V65.36a.75.75 0 0 0-.75-.75h-1.16V46h1.17a.76.76 0 0 0 .75-.75v-3h4.18v3a.76.76 0 0 0 .75.75ZM43.05 75.54V65.36a.75.75 0 0 0-.75-.75h-1.17V46h1.17a.76.76 0 0 0 .75-.75v-3H56.7v3a.76.76 0 0 0 .75.75h1.18v18.61h-1.18a.75.75 0 0 0-.75.75v10.18Zm-1.5 0h-9.31v-9.43h9.31ZM32.24 42.2h9.31v2.28h-9.31Zm7.39 3.8v18.61h-5.47V46Zm18.57-3.8h9.31v2.28H58.2Zm7.39 22.41h-5.46V46h5.46Zm1.92 10.92H58.2v-9.42h9.31Zm16.49 0h-9.31v-9.42H84Zm0-31.05h-9.31V42.2H84ZM15.75 42.2h9.31v2.28h-9.31Zm7.38 3.8v18.61h-5.46V46Zm63.62 31v2.55h-73.5V77Zm3.38 4v2.55H9.88v-2.46Z" fill="#0b3a6c" opacity="1" data-original="#000000" class=""></path></g></g></svg>