<svg xmlns="http://www.w3.org/2000/svg" version="1.1" xmlns:xlink="http://www.w3.org/1999/xlink" width="50" height="50" x="0" y="0" viewBox="0 0 105.746 237.182" style="enable-background:new 0 0 512 512" xml:space="preserve" class=""><g><path d="M5.395 116.433h-.061c-1.705 0-3.484-.051-5.31-.135-.468 10.105 6.084 19.546 16.25 22.329l4.799 1.314a22.11 22.11 0 0 0 5.621.786v-27.256c-5.801 1.912-12.84 2.963-21.299 2.962zM26.693 106.019V101.8a24.37 24.37 0 0 1-4.623.495h-.014c-2.348 0-4.548-.412-6.54-1.229a14.785 14.785 0 0 1-5.755-4.188A15.78 15.78 0 0 1 6.546 90.4L1.36 109.345c1.362.051 2.697.086 3.973.086 9.197-.003 16.13-1.312 21.36-3.412zM37.981 97.571a63.378 63.378 0 0 1-3.586 1.714c-2.06.886-3.931 1.551-5.701 2.036v3.816c2.777-1.338 5.015-2.916 6.789-4.649a21.694 21.694 0 0 0 2.498-2.917z" fill="#ffffff" opacity="1" data-original="#000000"></path><circle cx="55.738" cy="22.5" r="22.5" fill="#ffffff" opacity="1" data-original="#000000"></circle><path d="m73.781 50.694-.018.003H42.509c2.117 4.867 5.617 14.099 6.729 24.315a9.955 9.955 0 0 1 2.092 2.224 9.93 9.93 0 0 1 1.549 7.492 9.93 9.93 0 0 1-4.205 6.393c-.1.068-.196.13-.296.197-1.308 5.136-3.788 10.065-8.009 14.179-3.051 2.975-6.906 5.435-11.676 7.265v112.057c0 6.83 5.537 12.363 12.363 12.363 6.828 0 12.365-5.533 12.365-12.363v-90.271h4.635v90.271c0 6.83 5.537 12.363 12.363 12.363 6.828 0 12.365-5.533 12.365-12.363V74.762A43.375 43.375 0 0 1 84.563 79c.075.207.148.433.223.647 2.72 7.867 4.969 20.516 4.959 39.993 0 5.513-.177 11.572-.566 18.222a8.003 8.003 0 0 0 7.994 8.467 8 8 0 0 0 7.98-7.536c.404-6.93.592-13.298.592-19.153-.041-30.184-4.861-46.887-11.434-56.932-3.286-4.987-7.129-8.185-10.679-9.956-.356-.18-.706-.335-1.054-.487-3.105-1.359-5.789-1.656-7.383-1.651-.635 0-1.114.042-1.414.08z" fill="#ffffff" opacity="1" data-original="#000000"></path><path d="M33.592 97.453c4.098-1.791 8.656-4.392 13.957-7.984a7.998 7.998 0 0 0 2.127-11.111 8 8 0 0 0-11.111-2.129c-4.711 3.203-8.527 5.324-11.367 6.559-1.158.512-2.15.863-2.953 1.096.176-.852.459-1.871.867-2.949.77-2.083 1.949-4.41 3.345-6.538l.007-.009a30.908 30.908 0 0 1 3.293-4.224 9.932 9.932 0 0 1-1.619 5.317 33.005 33.005 0 0 0-1.443 2.421v1.958c2.123-1.085 5.006-2.742 8.747-5.286a9.948 9.948 0 0 1 4.47-1.642c-1.641-10.272-5.777-19.555-6.98-22.003l-.086-.175c-4.424.51-7.997 2.598-11.014 4.977-3.439 2.766-6.318 6.189-8.753 9.891-.007.01-.011.021-.018.03-2.02 3.093-3.705 6.375-4.948 9.714-1.232 3.361-2.07 6.746-2.089 10.355.008 3.072.645 6.682 3.278 9.881a12.77 12.77 0 0 0 4.973 3.613c1.903.779 3.876 1.08 5.783 1.08 3.788-.025 7.427-1.074 11.534-2.842z" fill="#ffffff" opacity="1" data-original="#000000"></path></g></svg>