<svg xmlns="http://www.w3.org/2000/svg" version="1.1" xmlns:xlink="http://www.w3.org/1999/xlink" width="50" height="50" x="0" y="0" viewBox="0 0 512 512" style="enable-background:new 0 0 512 512" xml:space="preserve" class=""><g><path d="M427.6 277.8c0-72.3-45.9-136.6-114.3-160-3.9-1.4-8.2.7-9.6 4.6s.7 8.2 4.6 9.6c0 0 .1 0 .1.1 31.3 10.7 58.3 31.2 77 58.5-9.7.7-24.3 1.8-40.3 2.9-7-20.9-16.7-39.2-28.5-53.5-2.5-3.3-7.2-3.9-10.5-1.3-3.3 2.5-3.9 7.2-1.3 10.5.1.1.2.3.3.4 10 12 18.3 27.4 24.6 44.9-6.4.4-12.9.8-19.3 1.2-9.6.9-9.2 14.7.4 15 7.8-.4 15.7-1 23.5-1.4 5.4 20 8.4 40.5 8.9 61.2h-77.3v-48.1c0-4.1-3.4-7.5-7.5-7.5s-7.5 3.4-7.5 7.5v48.1h-77.3c.4-17.2 2.6-34.3 6.4-51.1.9-4-1.6-8.1-5.6-9s-8.1 1.6-9 5.6c-4.1 17.9-6.3 36.1-6.7 54.5h-54.1c.6-12.6 2.7-25.1 6.4-37.2 1.2-4-1-8.2-5-9.3-4-1.2-8.2 1-9.3 5C63 335 147.1 448.9 258.6 447.1c93.8 0 169.3-77.5 169-169.3zm-15.2 7.5c-1.1 22.9-7.3 45.3-18.2 65.5-8-.6-24.9-1.9-44.5-3.2 5.3-20.3 8.2-41.2 8.6-62.2h54.1zm-62.8-77.2c19.7-1.4 36.7-2.6 44.7-3.2 10.9 20.2 17.1 42.6 18.2 65.5h-54.1c-.6-21.1-3.5-42-8.8-62.3zm-6.3 77.2c-.5 20.7-3.5 41.2-8.9 61.2-24.8-1.6-51.2-3.1-68.5-3.5v-57.7zM199.6 388.4c-4.9-8.7-9.1-17.7-12.4-27.1 23.4-1.5 47.7-2.9 63.8-3.3v73.3c-19.2-3.1-37.2-18.1-51.4-42.9zm66.3 42.9V358c16 .4 40.4 1.7 63.8 3.2-10.6 31.4-35.3 66.4-63.8 70.1zm-15-88.3c-17.3.4-43.7 1.9-68.4 3.5-5.4-20-8.4-40.5-8.9-61.2h77.3zm-146.4-57.7h54.1c.5 21 3.4 41.9 8.6 62.3-19.8 1.4-36.7 2.6-44.5 3.2-10.9-20.2-17.1-42.6-18.2-65.5zm27 79.9c9.6-.7 24.1-1.8 40.1-2.9 7.6 22.4 19.3 44.7 35.1 60.7-30.4-10.9-56.8-31.2-75.2-57.8zM310.1 423c15.8-16 27.6-38.3 35.1-60.7 16 1.1 30.4 2.1 40.1 2.9-18.3 26.6-44.7 46.9-75.2 57.8z" fill="#ffffff" opacity="1" data-original="#000000" class=""></path><path d="M273.9 61.2c-27.1-4.3-54.9 0-79.3 12.4-24.5-12.4-52.2-16.7-79.3-12.4-3.7.6-6.3 3.7-6.3 7.4v5.5c-6.9 2-13 6-17.7 11.4-1.2 1.4-1.9 3.2-1.9 5v124c0 4.1 3.4 7.5 7.5 7.5 1.2 0 2.3-.3 3.3-.8 24.6-12.4 55.8-17.3 94.4-15.3 38.5-2.1 69.7 2.9 94.4 15.3 1 .5 2.2.8 3.4.8 4.1 0 7.5-3.4 7.5-7.5v-124c0-1.8-.7-3.6-1.9-5-4.7-5.4-10.8-9.3-17.7-11.4v-5.5c-.1-3.6-2.8-6.8-6.4-7.4zm-8.7 14v101.2c-21.6-2-43.3 1.4-63.2 10V86.6c19.6-9.8 41.5-13.7 63.2-11.4zm-141.4 0c21.7-2.4 43.6 1.6 63.2 11.4v99.8c-19.9-8.6-41.6-12-63.2-10zm-19.5 18.3c1.4-1.3 2.9-2.4 4.5-3.2V185c0 4.1 3.4 7.5 7.5 7.5.4 0 .8 0 1.1-.1 11-1.8 22.1-1.9 33.2-.6-15.9 1.5-31.5 5.2-46.3 11zm180.5 0v109.3c-14.9-5.8-30.5-9.5-46.3-11 11-1.4 22.2-1.2 33.1.6 4.1.6 7.9-2.2 8.6-6.3.1-.4.1-.7.1-1.1V90.3c1.6.9 3.1 1.9 4.5 3.2z" fill="#ffffff" opacity="1" data-original="#000000" class=""></path></g></svg>