<svg xmlns="http://www.w3.org/2000/svg" version="1.1" xmlns:xlink="http://www.w3.org/1999/xlink" width="50" height="50" x="0" y="0" viewBox="0 0 1000 1000" style="enable-background:new 0 0 512 512" xml:space="preserve" class=""><g><path d="M500 916a16 16 0 0 1-16-16V317.59a16 16 0 0 1 3-9.29c1.08-1.52 27.17-37.61 80.39-70.89a358.43 358.43 0 0 1 101.27-43.23c45-11.52 93.15-14.8 143.26-9.74a16 16 0 0 1 14.39 15.92v596.19a16 16 0 0 1-16 16h-4.11a496 496 0 0 0-204.51 43.61c-36.29 16.3-67 35.13-91.24 56A16 16 0 0 1 500 916Zm16-592.9v544.36c21.21-14.78 45.5-28.34 72.56-40.49a527 527 0 0 1 205.73-46.29V215.06c-77.74-5.28-147.88 11.08-208.68 48.69-38.67 23.93-61.79 49.8-69.61 59.35Z" fill="#39c0fa" opacity="1" data-original="#000000" class=""></path><path d="M900 916H500a16 16 0 0 1 0-32h384V294.57h-73.71a16 16 0 0 1 0-32H900a16 16 0 0 1 16 16V900a16 16 0 0 1-16 16ZM575.37 394.3a16 16 0 0 1-7.72-30c74.64-41.07 131.77-51.61 166.55-53.22a16 16 0 0 1 1.48 32C710 344.22 656 352.2 583.07 392.32a16 16 0 0 1-7.7 1.98Z" fill="#39c0fa" opacity="1" data-original="#000000" class=""></path><path d="M575.37 501.91a16 16 0 0 1-7.72-30c74.64-41.06 131.77-51.6 166.55-53.21a16 16 0 1 1 1.48 32c-25.7 1.19-79.69 9.18-152.61 49.29a15.87 15.87 0 0 1-7.7 1.92ZM575.37 609.51a16 16 0 0 1-7.72-30c74.65-41.07 131.77-51.61 166.55-53.22a16 16 0 0 1 1.48 32c-25.7 1.19-79.69 9.17-152.61 49.29a16 16 0 0 1-7.7 1.93ZM575.37 717.12a16 16 0 0 1-7.72-30c74.64-41.12 131.77-51.63 166.55-53.24a16 16 0 0 1 1.48 32C710 667 656 675 583.07 715.13a15.87 15.87 0 0 1-7.7 1.99Z" fill="#39c0fa" opacity="1" data-original="#000000" class=""></path><path d="M500 916a16 16 0 0 1-16-16V317.59a16 16 0 0 1 3-9.29c1.08-1.52 27.17-37.61 80.39-70.89a358.43 358.43 0 0 1 101.27-43.23c45-11.52 93.15-14.8 143.26-9.74a16 16 0 0 1 14.39 15.92v596.19a16 16 0 0 1-16 16h-4.11a496 496 0 0 0-204.51 43.61c-36.29 16.3-67 35.13-91.24 56A16 16 0 0 1 500 916Zm16-592.9v544.36c21.21-14.78 45.5-28.34 72.56-40.49a527 527 0 0 1 205.73-46.29V215.06c-77.74-5.28-147.88 11.08-208.68 48.69-38.67 23.93-61.79 49.8-69.61 59.35Z" fill="#39c0fa" opacity="1" data-original="#000000" class=""></path><path d="M900 916H500a16 16 0 0 1 0-32h384V294.57h-73.71a16 16 0 0 1 0-32H900a16 16 0 0 1 16 16V900a16 16 0 0 1-16 16ZM575.37 394.3a16 16 0 0 1-7.72-30c74.64-41.07 131.77-51.61 166.55-53.22a16 16 0 0 1 1.48 32C710 344.22 656 352.2 583.07 392.32a16 16 0 0 1-7.7 1.98Z" fill="#39c0fa" opacity="1" data-original="#000000" class=""></path><path d="M575.37 501.91a16 16 0 0 1-7.72-30c74.64-41.06 131.77-51.6 166.55-53.21a16 16 0 1 1 1.48 32c-25.7 1.19-79.69 9.18-152.61 49.29a15.87 15.87 0 0 1-7.7 1.92ZM575.37 609.51a16 16 0 0 1-7.72-30c74.65-41.07 131.77-51.61 166.55-53.22a16 16 0 0 1 1.48 32c-25.7 1.19-79.69 9.17-152.61 49.29a16 16 0 0 1-7.7 1.93ZM575.37 717.12a16 16 0 0 1-7.72-30c74.64-41.12 131.77-51.63 166.55-53.24a16 16 0 0 1 1.48 32C710 667 656 675 583.07 715.13a15.87 15.87 0 0 1-7.7 1.99ZM500 916a16 16 0 0 1-10.43-3.87c-24.25-20.84-54.95-39.67-91.24-56a495.93 495.93 0 0 0-204.51-43.61h-4.11a16 16 0 0 1-16-16V200.36a16 16 0 0 1 14.4-15.92 432.75 432.75 0 0 1 85.34-.38 16 16 0 0 1-3.12 31.85 394.28 394.28 0 0 0-64.62-.84v565.61A527 527 0 0 1 411.43 827c27.07 12.15 51.36 25.71 72.57 40.49v-544.4a257 257 0 0 0-34.3-34 323.56 323.56 0 0 0-113.36-60.35 16 16 0 1 1 9.16-30.66C457.25 231.53 510.8 305.19 513 308.31a16 16 0 0 1 3 9.29V900a16 16 0 0 1-16 16Z" fill="#39c0fa" opacity="1" data-original="#000000" class=""></path><path d="M500 916H100a16 16 0 0 1-16-16V278.57a16 16 0 0 1 16-16h89.71a16 16 0 0 1 0 32H116V884h384a16 16 0 0 1 0 32Z" fill="#39c0fa" opacity="1" data-original="#000000" class=""></path><path d="M424.63 609.51a16 16 0 0 1-7.7-2c-39.36-21.66-77.55-36.48-113.52-44a16 16 0 0 1 3-31.73 16.21 16.21 0 0 1 3.84.46c39 8.25 80.08 24.15 122.12 47.28a16 16 0 0 1-7.72 30ZM424.63 717.12a15.9 15.9 0 0 1-7.7-2C344 675 290 667 264.32 665.85a16 16 0 0 1 1.48-32c34.78 1.61 91.91 12.15 166.55 53.22a16 16 0 0 1-7.72 30ZM340.92 441.06h-69a16 16 0 0 1-16-16V159.6a16 16 0 0 1 16-16h69a16 16 0 0 1 16 16v265.46a16 16 0 0 1-16 16Zm-53-32h37V175.6h-37Z" fill="#39c0fa" opacity="1" data-original="#000000" class=""></path><path d="M340.92 175.6h-69a16 16 0 0 1-16-16v-35.52A40.12 40.12 0 0 1 296 84h20.88a40.13 40.13 0 0 1 40.08 40.08v35.52a16 16 0 0 1-16.04 16Zm-53-32h37v-19.52a8.08 8.08 0 0 0-8.08-8.08H296a8.08 8.08 0 0 0-8.07 8.08ZM306.4 563.76a16 16 0 0 1-15.4-11.67l-34.52-122.7a16 16 0 0 1 30.81-8.66l19.11 67.94 19.12-67.94a16 16 0 1 1 30.8 8.66l-34.52 122.7a16 16 0 0 1-15.4 11.67Z" fill="#39c0fa" opacity="1" data-original="#000000" class=""></path></g></svg>