<svg xmlns="http://www.w3.org/2000/svg" version="1.1" xmlns:xlink="http://www.w3.org/1999/xlink" width="50" height="50" x="0" y="0" viewBox="0 0 66 66" style="enable-background:new 0 0 512 512" xml:space="preserve" class=""><g><path d="M43.9 51.2c-6.9 0-12.5-5.6-12.5-12.5S37 26.2 43.9 26.2s12.5 5.6 12.5 12.5-5.6 12.5-12.5 12.5zm0-23c-5.8 0-10.5 4.7-10.5 10.5s4.7 10.5 10.5 10.5 10.5-4.7 10.5-10.5-4.7-10.5-10.5-10.5z" fill="#ffffff" opacity="1" data-original="#000000" class=""></path><path d="M50.9 35c-.3 0-.6-.2-.8-.5-1.1-1.6-2.7-2.7-4.6-3.1s-3.9 0-5.6 1.1c-.5.3-1.1.2-1.4-.3s-.2-1.1.3-1.4c2.1-1.4 4.6-1.9 7.1-1.4 2.4.5 4.5 1.9 5.9 4 .3.5.2 1.1-.3 1.4-.2.1-.4.2-.6.2zM58.7 64.8c-.3 0-.6 0-.8-.1-1-.2-1.9-.8-2.5-1.7l-7.7-13.1c-.3-.5-.1-1.1.4-1.4s1.1-.1 1.4.4L57.2 62c.3.4.7.7 1.2.8s1 0 1.5-.3c.4-.3.7-.7.8-1.2s0-1.1-.4-1.5L50.8 48c-.3-.4-.3-1.1.2-1.4.4-.3 1.1-.3 1.4.2l9.5 11.8c.7.9.9 2 .8 3.1-.2 1.1-.8 2-1.7 2.6-.8.3-1.6.5-2.3.5z" fill="#ffffff" opacity="1" data-original="#000000" class=""></path><path d="M61.2 40.5h-5.8c-.6 0-1-.4-1-1s.4-1 1-1h4.8V6c0-1.4-1.3-2.7-2.7-2.7h-49C7 3.3 5.8 4.5 5.8 6v32.4h26.6c.6 0 1 .4 1 1s-.4 1-1 1H4.8c-.6 0-1-.4-1-1V6c0-2.6 2.1-4.7 4.7-4.7h49c2.5 0 4.7 2.2 4.7 4.7v33.5c0 .6-.4 1-1 1z" fill="#ffffff" opacity="1" data-original="#000000" class=""></path><path d="M36 48H6.4c-3 0-5.4-2.4-5.4-5.4v-3.2c0-.6.4-1 1-1h30.4c.6 0 1 .4 1 1s-.4 1-1 1H3v2.2C3 44.4 4.6 46 6.4 46H36c.6 0 1 .4 1 1s-.4 1-1 1zM59.6 48h-7.7c-.6 0-1-.4-1-1s.4-1 1-1h7.7c1.8 0 3.4-1.6 3.4-3.4v-2.2h-7.6c-.6 0-1-.4-1-1s.4-1 1-1H64c.6 0 1 .4 1 1v3.2c0 3-2.4 5.4-5.4 5.4zM34.8 6.4h-3.6c-.6 0-1-.4-1-1s.4-1 1-1h3.6c.6 0 1 .4 1 1s-.4 1-1 1zM17 23.3h-3.6c-.6 0-1-.4-1-1V10.5c0-.6.4-1 1-1H17c.6 0 1 .4 1 1v11.8c0 .6-.4 1-1 1zm-2.6-2H16v-9.8h-1.6zM32.6 23.2H29c-.6 0-1-.4-1-1v-3.9c0-.6.4-1 1-1h3.6c.6 0 1 .4 1 1v3.9c0 .6-.4 1-1 1zm-2.6-2h1.6v-1.9H30zM24.8 23.2h-3.6c-.6 0-1-.4-1-1v-7.5c0-.6.4-1 1-1h3.6c.6 0 1 .4 1 1v7.5c0 .6-.4 1-1 1zm-2.6-2h1.6v-5.5h-1.6zM50.5 14.5h-7.9c-.6 0-1-.4-1-1s.4-1 1-1h7.9c.6 0 1 .4 1 1s-.4 1-1 1zM53.9 18.5h-14c-.6 0-1-.4-1-1s.4-1 1-1h14c.6 0 1 .4 1 1s-.4 1-1 1zM25.3 30.2H13.1c-.6 0-1-.4-1-1s.4-1 1-1h12.2c.6 0 1 .4 1 1s-.4 1-1 1zM25.3 34.2H13.1c-.6 0-1-.4-1-1s.4-1 1-1h12.2c.6 0 1 .4 1 1s-.4 1-1 1zM53.9 22.3h-14c-.6 0-1-.4-1-1s.4-1 1-1h14c.6 0 1 .4 1 1s-.4 1-1 1z" fill="#ffffff" opacity="1" data-original="#000000" class=""></path></g></svg>