<svg xmlns="http://www.w3.org/2000/svg" version="1.1" xmlns:xlink="http://www.w3.org/1999/xlink" width="50" height="50" x="0" y="0" viewBox="0 0 495.994 495" style="enable-background:new 0 0 512 512" xml:space="preserve" class=""><g><path d="M295.23 435.77H38.336C17.199 435.77 0 418.379 0 397V39.266C0 17.89 17.2.496 38.336.496h197.367c2.016 0 3.961.762 5.442 2.137l89.863 83.258a7.987 7.987 0 0 1 2.558 5.863V195.41a8 8 0 0 1-16 0V95.25l-85-78.754H38.336C26.023 16.496 16 26.707 16 39.266V397c0 12.555 10.023 22.777 22.336 22.777h256.887c12.32 0 22.336-10.215 22.336-22.777v-46.832a8 8 0 0 1 16 0V397c.007 21.379-17.192 38.77-38.329 38.77zm0 0" fill="#8e56ff" opacity="1" data-original="#000000" class=""></path><path d="M325.465 99.754H254.39c-14.711 0-26.68-12.098-26.68-26.953V8.496a8 8 0 0 1 16 0v64.305c0 6.039 4.793 10.953 10.68 10.953h71.074c4.414 0 8 3.574 8 8a8 8 0 0 1-8 8zM194.938 264.09h50.984v16h-50.984zM194.938 318.176h75.816v16h-75.816zM54.543 368.426h224.48v16H54.543zM194.887 213.84h67.586v16h-67.586zM157.887 334.176H54.543c-4.414 0-8-3.574-8-8V214.664a8 8 0 0 1 8-8h103.344c4.418 0 8 3.578 8 8v111.512c0 4.426-3.575 8-8 8zm-95.344-16h87.344v-95.512H62.543zm0 0" fill="#8e56ff" opacity="1" data-original="#000000" class=""></path><path d="M322.016 358.344c-46.582 0-84.48-38.383-84.48-85.559 0-47.176 37.898-85.558 84.48-85.558 46.586 0 84.48 38.382 84.48 85.558 0 47.176-37.894 85.559-84.48 85.559zm0-155.117c-37.758 0-68.48 31.199-68.48 69.558s30.722 69.559 68.48 69.559c37.761 0 68.48-31.2 68.48-69.559s-30.719-69.558-68.48-69.558zm0 0" fill="#8e56ff" opacity="1" data-original="#000000" class=""></path><path d="M410.52 369.61c-2.063 0-4.13-.801-5.696-2.383l-33.922-34.403a8 8 0 0 1 .082-11.312c3.145-3.11 8.207-3.063 11.313.082l33.918 34.398a7.997 7.997 0 0 1-.078 11.313 8 8 0 0 1-5.617 2.304zm0 0" fill="#8e56ff" opacity="1" data-original="#000000" class=""></path><path d="M473.383 448.496c-6.055 0-11.774-2.422-16.137-6.832l-52.66-53.414c-4.203-4.09-6.57-9.648-6.648-15.68-.09-6.199 2.308-12.242 6.574-16.578 4.281-4.336 9.96-6.726 15.992-6.726 5.992 0 11.848 2.457 16.062 6.726l52.73 53.48c4.184 4.016 6.614 9.633 6.696 15.673.086 6.183-2.297 12.058-6.687 16.52-3.992 4.273-9.594 6.753-15.617 6.831h-.305zm-52.88-83.23c-1.214 0-3 .343-4.593 1.96-1.285 1.294-2 3.169-1.972 5.118.007 1.027.269 2.96 1.816 4.449l.156.16 52.738 53.488c1.344 1.36 3.016 1.977 4.832 2.07a5.954 5.954 0 0 0 4.29-1.91c1.52-1.542 2.261-3.351 2.238-5.222-.024-1.73-.711-3.328-1.938-4.504l-52.886-53.625a6.465 6.465 0 0 0-4.68-1.984zM151.93 101.336c2.59-2.023 3.91-4.902 3.91-8.566 0-1.84-.274-3.457-.809-4.793a10.266 10.266 0 0 0-2.367-3.575h-.008c-1-.976-2.222-1.816-3.625-2.496-1.289-.633-2.758-1.258-4.511-1.922a26.184 26.184 0 0 1-2.415-.984 10.519 10.519 0 0 1-1.777-1.055c-.398-.304-.71-.64-.914-1.007-.176-.313-.262-.696-.262-1.2 0-.777.239-1.297.786-1.695 1.292-.984 4.382-.898 6.789-.297 1.21.305 2.328.742 3.312 1.313l1.57.886 3.047-8.09-1.136-.664c-1.063-.636-2.512-1.222-4.305-1.742-1.8-.527-3.871-.8-6.168-.8-4.055 0-7.352 1.03-9.774 3.058-2.52 2.102-3.793 5.016-3.793 8.645 0 1.738.313 3.28.926 4.57a10.748 10.748 0 0 0 2.395 3.246c.941.863 2.054 1.602 3.32 2.203a39.305 39.305 0 0 0 3.598 1.484c1.113.387 2.136.778 3.043 1.188.84.375 1.527.781 2.07 1.191a3.9 3.9 0 0 1 1.063 1.153c.21.36.312.824.312 1.375 0 .91-.277 1.527-.918 2.008-.504.382-1.61.847-3.984.847-1.97 0-3.664-.23-5.032-.68-1.48-.496-2.578-.945-3.363-1.39l-1.59-.89-2.504 7.058a460.054 460.054 0 0 0-3.113-8.664c-1.2-3.219-2.36-6.242-3.437-8.992a284.582 284.582 0 0 0-3.32-8.106 284.376 284.376 0 0 0-3.403-7.617l-.422-.887H107.2l-.414.895a268.507 268.507 0 0 0-3.402 7.61 294.723 294.723 0 0 0-3.313 8.105 442.026 442.026 0 0 0-3.414 8.992 536.907 536.907 0 0 0-3.207 9.023l-2.36-7.242-1.616.84-.008.008c-.688.363-1.695.761-2.992 1.175-1.207.403-2.871.602-4.93.602-1.633 0-3.016-.266-4.11-.785-1.097-.52-2.007-1.238-2.699-2.152-.734-.957-1.285-2.118-1.636-3.446-.38-1.41-.57-2.976-.57-4.672 0-1.898.242-3.578.71-4.992.457-1.36 1.09-2.496 1.883-3.367a7.476 7.476 0 0 1 2.781-1.938c2.403-1.007 5.512-.808 7.93-.062 1.352.414 2.375.848 3.031 1.262l1.64 1.03 2.93-8.284-1.152-.649c-.234-.129-.648-.351-1.226-.664-.621-.336-1.407-.648-2.39-.96-.895-.29-1.946-.544-3.208-.786-1.242-.23-2.64-.351-4.152-.351-2.543 0-4.953.449-7.168 1.328a16.566 16.566 0 0 0-5.914 3.906c-1.672 1.719-3 3.82-3.942 6.246-.945 2.434-1.426 5.23-1.426 8.336 0 3.082.418 5.863 1.223 8.273.824 2.438 2.043 4.543 3.61 6.27 1.57 1.723 3.519 3.059 5.792 3.945 2.215.871 4.75 1.32 7.512 1.32 1.352 0 2.672-.081 3.93-.242 1.223-.168 2.344-.375 3.324-.636 1.027-.282 1.875-.555 2.57-.84.801-.313 1.43-.633 1.918-.969l.243-.168-.739 2.094h9.809l.379-1.055c.453-1.336.926-2.68 1.414-4.039.36-1.031.719-2.058 1.07-3.113h12.305c.36 1.055.73 2.09 1.105 3.113.489 1.328.97 2.672 1.422 4.024l.363 1.07h10.079l-.735-2.086v-.008l.137.078c.46.274 1.055.563 1.758.864.703.304 1.527.593 2.535.89 1.016.297 2.137.543 3.328.735a27.96 27.96 0 0 0 4.129.289c4.55.007 8.129-.985 10.594-2.93zm-37.434-14.32h-6.879c.781-2.168 1.551-4.23 2.285-6.168.41-1.07.785-2.047 1.153-2.957.36.902.738 1.879 1.136 2.91.746 1.96 1.52 4.039 2.305 6.215zM184.633 94.969h-17.031v-7.063h14.101v-8.441h-14.101V74h15.84v-8.543H158.23v38.055h26.403zM70.887 153.29c-1-.977-2.223-1.825-3.64-2.505a49.478 49.478 0 0 0-4.493-1.91 24.78 24.78 0 0 1-2.426-.992c-.695-.328-1.289-.68-1.77-1.059-.398-.297-.71-.633-.91-.984-.183-.328-.265-.719-.265-1.215 0-.777.242-1.297.785-1.695 1.305-.97 4.312-.899 6.8-.297 1.184.297 2.305.746 3.313 1.312l1.567.887 3.047-8.086-1.133-.664c-1.067-.64-2.524-1.227-4.305-1.746-1.785-.527-3.855-.79-6.168-.79-4.059 0-7.352 1.024-9.785 3.048-2.52 2.113-3.793 5.023-3.793 8.648 0 1.75.312 3.285.93 4.567a10.75 10.75 0 0 0 2.39 3.25c.961.879 2.082 1.62 3.313 2.199a39.168 39.168 0 0 0 3.617 1.496c1.11.375 2.129.773 3.031 1.176.817.367 1.512.777 2.07 1.191a3.97 3.97 0 0 1 1.067 1.152c.207.368.312.825.312 1.383 0 .914-.28 1.528-.914 2-.496.387-1.597.84-3.968.84-1.965 0-3.664-.23-5.032-.68-1.414-.464-2.543-.925-3.343-1.375l-1.598-.921-2.906 8.187 1.129.664c.464.27 1.054.559 1.757.863.707.293 1.532.59 2.54.895.972.289 2.093.527 3.32.719 1.222.203 2.613.297 4.133.297 4.586 0 8.152-.977 10.617-2.918 2.594-2.036 3.902-4.915 3.902-8.57 0-1.856-.27-3.466-.805-4.802a10.285 10.285 0 0 0-2.386-3.566zm0 0" fill="#8e56ff" opacity="1" data-original="#000000" class=""></path><path d="M73 142.984h10.574v29.41h9.418v-29.41h10.574v-8.656H73zM125.832 157.113c0 1.399-.152 2.602-.45 3.582-.277.89-.663 1.618-1.152 2.153a4.24 4.24 0 0 1-1.71 1.144c-1.422.528-3.457.528-4.856 0a4.232 4.232 0 0 1-1.68-1.144c-.488-.536-.87-1.254-1.152-2.153-.305-.972-.45-2.183-.45-3.582v-22.785h-9.413v23.387c0 2.168.297 4.191.87 6.023.602 1.895 1.544 3.551 2.786 4.95 1.262 1.425 2.871 2.539 4.773 3.304 1.868.762 4.106 1.145 6.633 1.145s4.778-.383 6.672-1.145c1.938-.765 3.57-1.879 4.84-3.304 1.25-1.407 2.191-3.07 2.809-4.942.601-1.824.894-3.863.894-6.031v-23.387h-9.414zM166.55 138.61c-1.855-1.602-4.116-2.794-6.71-3.536-2.504-.73-5.313-1.097-8.32-1.097-1.375 0-2.97.046-4.856.16-1.887.113-3.68.36-5.312.746l-1.223.27v36.41l1.215.292c1.633.38 3.398.633 5.258.77 1.757.113 3.382.176 4.824.176 3.047 0 5.887-.383 8.414-1.145 2.601-.781 4.863-2.008 6.726-3.64 1.883-1.645 3.356-3.72 4.371-6.176 1-2.414 1.512-5.285 1.512-8.496 0-3.285-.512-6.184-1.512-8.598-1.042-2.473-2.511-4.527-4.386-6.137zm-3.773 14.726c0 3.45-.898 6.144-2.664 7.992-1.754 1.832-4.547 2.77-8.289 2.77-.96 0-1.734-.008-2.32-.024v-21.402c.656-.024 1.465-.04 2.418-.04 3.781 0 6.558.907 8.262 2.688 1.718 1.793 2.593 4.496 2.593 8.016zM194.754 134.328l-.418.938a100.025 100.025 0 0 1-3.809 7.68c-.976 1.769-1.992 3.55-3.023 5.35a170.052 170.052 0 0 1-2.992-5.335 114.724 114.724 0 0 1-3.77-7.695l-.414-.938h-10.937l1.21 2.32a304.51 304.51 0 0 0 5.84 10.68 269.01 269.01 0 0 0 6.239 10.352v14.715h9.367v-14.81c2.2-3.448 4.289-6.905 6.226-10.28a333.578 333.578 0 0 0 5.817-10.649l1.2-2.32h-10.536zm0 0" fill="#8e56ff" opacity="1" data-original="#000000" class=""></path></g></svg>