<svg xmlns="http://www.w3.org/2000/svg" version="1.1" xmlns:xlink="http://www.w3.org/1999/xlink" width="50" height="50" x="0" y="0" viewBox="0 0 60 60" style="enable-background:new 0 0 512 512" xml:space="preserve" class=""><g><path d="M3 60h54a3 3 0 0 0 3-3c0-6.979-1.3-17.778-1.311-17.9a7.056 7.056 0 0 0-5.162-5.859A7.178 7.178 0 0 0 55 28.88v-1.76A7.069 7.069 0 0 0 48 20a6.9 6.9 0 0 0-4.957 2.093A7.173 7.173 0 0 0 41 27.12v1.76a7.179 7.179 0 0 0 2.046 5.031 6.922 6.922 0 0 0 3.576 1.952 6.036 6.036 0 0 0-.649 1.413l-.36 1.2A3.021 3.021 0 0 0 43.03 37H16.97a3.022 3.022 0 0 0-2.582 1.478l-.361-1.2a6 6 0 0 0-.649-1.413 6.923 6.923 0 0 0 3.579-1.956A7.173 7.173 0 0 0 19 28.88v-1.76a7.179 7.179 0 0 0-2.046-5.031A6.9 6.9 0 0 0 12 20a7.069 7.069 0 0 0-7 7.12v1.76a7.178 7.178 0 0 0 1.473 4.362 7.064 7.064 0 0 0-5.164 5.871C1.3 39.222 0 50.021 0 57a3 3 0 0 0 3 3Zm6-3v-2.1a2.656 2.656 0 0 0 .7.1h40.6a2.656 2.656 0 0 0 .7-.1V57a1 1 0 0 1-1 1H10a1 1 0 0 1-1-1Zm47.705-17.646C56.719 39.46 58 50.142 58 57a1 1 0 0 1-1 1h-4.184A2.966 2.966 0 0 0 53 57v-4.7a2.692 2.692 0 0 0-.348-1.32l-2.5-4.457 1.77-4.129a1 1 0 0 0-1.838-.788l-1.964 4.576A3 3 0 0 1 45.362 48H39.5a1.5 1.5 0 0 1 0-3h4.012a2.982 2.982 0 0 0 2.874-2.138l1.5-5.011A3.974 3.974 0 0 1 51.72 35a5.045 5.045 0 0 1 4.985 4.354ZM43 28.88v-1.76a5.174 5.174 0 0 1 1.474-3.629A4.906 4.906 0 0 1 48 22a5.067 5.067 0 0 1 5 5.12v1.76a5.128 5.128 0 0 1-2.132 4.188 5.941 5.941 0 0 0-2.394.9A4.445 4.445 0 0 1 48 34a4.907 4.907 0 0 1-3.523-1.487A5.181 5.181 0 0 1 43 28.88ZM16.088 39.517A1.006 1.006 0 0 1 16.97 39h26.06a1 1 0 0 1 .879.511l.909 1.614-.348 1.162a1 1 0 0 1-.958.713H39.5a3.5 3.5 0 0 0 0 7h5.862a4.982 4.982 0 0 0 3.585-1.532l1.958 3.487A.694.694 0 0 1 51 52.3a.7.7 0 0 1-.7.7H9.7a.7.7 0 0 1-.7-.7.689.689 0 0 1 .092-.34l1.961-3.492A4.982 4.982 0 0 0 14.638 50H20.5a3.5 3.5 0 0 0 0-7h-4.012a1 1 0 0 1-.958-.712l-.348-1.162ZM7 27.12A5.067 5.067 0 0 1 12 22a4.907 4.907 0 0 1 3.523 1.487A5.181 5.181 0 0 1 17 27.12v1.76a5.174 5.174 0 0 1-1.474 3.629A4.906 4.906 0 0 1 12 34a4.407 4.407 0 0 1-.473-.035 5.951 5.951 0 0 0-2.395-.9A5.128 5.128 0 0 1 7 28.88ZM3.293 39.366A5.049 5.049 0 0 1 8.28 35a3.974 3.974 0 0 1 3.831 2.851l1.5 5.011A2.982 2.982 0 0 0 16.488 45H20.5a1.5 1.5 0 0 1 0 3h-5.862a3 3 0 0 1-2.758-1.818l-1.961-4.576a1 1 0 1 0-1.838.788l1.77 4.129-2.506 4.463A2.682 2.682 0 0 0 7 52.3V57a2.966 2.966 0 0 0 .184 1H3a1 1 0 0 1-1-1c0-6.858 1.281-17.54 1.293-17.634Z" fill="#ffffff" opacity="1" data-original="#000000"></path><path d="M26 20h5.671l4.819 3.561a2.159 2.159 0 0 0 2.272.207A2.249 2.249 0 0 0 40 21.741V20h2a3 3 0 0 0 3-3V7a3 3 0 0 0-3-3h-9V3a3 3 0 0 0-3-3H14a3 3 0 0 0-3 3v10a3 3 0 0 0 3 3h2v1.741a2.248 2.248 0 0 0 1.239 2.028 2.154 2.154 0 0 0 2.265-.2L23 16.983V17a3 3 0 0 0 3 3ZM42 6a1 1 0 0 1 1 1v10a1 1 0 0 1-1 1h-3a1 1 0 0 0-1 1v2.74a.251.251 0 0 1-.133.239.156.156 0 0 1-.183-.023l-5.09-3.76A.993.993 0 0 0 32 18h-6a1 1 0 0 1-1-1v-1h5a2.982 2.982 0 0 0 2.221-1H37a1 1 0 0 0 0-2h-4v-2h6a1 1 0 0 0 0-2h-6V6ZM18.31 17.962a.153.153 0 0 1-.176.019.252.252 0 0 1-.134-.239V15a1 1 0 0 0-1-1h-3a1 1 0 0 1-1-1V3a1 1 0 0 1 1-1h16a1 1 0 0 1 1 1v10a1 1 0 0 1-1 1h-6a1 1 0 0 0-.594.2Z" fill="#ffffff" opacity="1" data-original="#000000"></path><path d="M17 7h10a1 1 0 0 0 0-2H17a1 1 0 0 0 0 2ZM26 10a1 1 0 0 0-1-1h-8a1 1 0 0 0 0 2h8a1 1 0 0 0 1-1Z" fill="#ffffff" opacity="1" data-original="#000000"></path></g></svg>