<svg xmlns="http://www.w3.org/2000/svg" version="1.1" xmlns:xlink="http://www.w3.org/1999/xlink" width="50" height="50" x="0" y="0" viewBox="0 0 64 64" style="enable-background:new 0 0 512 512" xml:space="preserve" class=""><g><path d="M58.65 61.32H5.35C2.4 61.32 0 58.92 0 55.97v-1.64c0-.27.22-.49.49-.49h63.02c.27 0 .49.22.49.49v1.64c0 2.95-2.4 5.35-5.35 5.35zM.98 54.82v1.15c0 2.41 1.96 4.37 4.37 4.37h53.29c2.41 0 4.37-1.96 4.37-4.37v-1.15z" fill="#f8941f" opacity="1" data-original="#000000" class=""></path><path d="M37.42 58.07H26.8c-.66 0-1.2-.54-1.2-1.2v-2.54a.49.49 0 0 1 .98 0v2.54c0 .12.1.22.22.22h10.62c.12 0 .22-.1.22-.22v-2.54a.49.49 0 0 1 .98 0v2.54c0 .66-.54 1.2-1.2 1.2zM60.43 54.82a.49.49 0 0 1-.49-.49V20.2c0-.92-.75-1.66-1.66-1.66H46.05a.49.49 0 0 1 0-.98h12.23c1.46 0 2.65 1.19 2.65 2.65v34.13c-.01.26-.23.48-.5.48zM3.57 54.82a.49.49 0 0 1-.49-.49V20.2c0-1.46 1.19-2.65 2.65-2.65h12.23a.49.49 0 0 1 0 .98H5.73c-.92 0-1.66.75-1.66 1.66v34.13c-.01.28-.23.5-.5.5z" fill="#f8941f" opacity="1" data-original="#000000" class=""></path><path d="M38.21 37.34H25.49c-.14 0-.27-.06-.36-.15a.497.497 0 0 1-.13-.37c.2-3.44-.73-6.24-2.77-8.33-1.02-1.04-2.16-2.3-2.94-3.81-2.57-4.94-2.45-10.62.32-15.18 2.59-4.27 7.13-6.83 12.12-6.83 5.34 0 10.12 2.67 12.79 7.14 2.68 4.5 2.73 10.07.13 14.87-.82 1.51-2.01 2.77-3.06 3.81-2.12 2.08-3.09 4.88-2.88 8.32.01.14-.04.27-.13.37-.11.1-.24.16-.37.16zM26 36.36h11.69c-.1-3.5.97-6.38 3.2-8.56 1-.98 2.13-2.18 2.89-3.57 2.44-4.5 2.39-9.7-.11-13.9-2.49-4.17-6.95-6.66-11.94-6.66-4.65 0-8.87 2.37-11.28 6.35-2.59 4.27-2.7 9.58-.28 14.22.72 1.39 1.81 2.59 2.77 3.57 2.13 2.18 3.16 5.05 3.06 8.55z" fill="#f8941f" opacity="1" data-original="#000000" class=""></path><path d="M36.74 44.53h-9.58c-1.19 0-2.16-.97-2.16-2.16v-5.52a.49.49 0 0 1 .98 0v5.52c0 .65.53 1.18 1.18 1.18h9.58c.65 0 1.18-.53 1.18-1.18v-5.52a.49.49 0 0 1 .98 0v5.52c0 1.19-.97 2.16-2.16 2.16z" fill="#f8941f" opacity="1" data-original="#000000" class=""></path><path d="M33.95 48.61h-4c-1.64 0-2.98-1.34-2.98-2.98v-1.59a.49.49 0 0 1 .98 0v1.59c0 1.1.89 1.99 1.99 1.99h4c1.1 0 1.99-.89 1.99-1.99v-1.59a.49.49 0 0 1 .98 0v1.59a2.964 2.964 0 0 1-2.96 2.98zM32 25.94c-.06 0-.13-.01-.19-.04-2.47-1.04-5.3-1.69-8.64-1.98-.8-.07-1.42-.72-1.43-1.52l-.19-11.42c-.01-.43.16-.83.46-1.13s.73-.44 1.13-.45c2.6.07 5.55.67 9.01 1.83.26.09.4.37.31.62s-.36.4-.62.31c-3.37-1.13-6.22-1.71-8.72-1.78-.17-.02-.3.05-.41.16s-.17.26-.17.42l.19 11.42c0 .29.23.53.53.56 3.45.3 6.37.97 8.94 2.05.25.11.37.39.26.65-.09.18-.27.3-.46.3z" fill="#f8941f" opacity="1" data-original="#000000" class=""></path><path d="M32 25.94a.49.49 0 0 1-.49-.49V11.7c0-.21.14-.4.34-.47 3.46-1.16 6.41-1.76 9.01-1.83.42 0 .83.15 1.13.45.31.3.47.7.46 1.13l-.19 11.42c-.01.8-.63 1.45-1.43 1.52-3.34.29-6.17.93-8.64 1.98-.06.02-.13.04-.19.04zm.49-13.89v12.66c2.4-.92 5.11-1.5 8.25-1.77.3-.03.53-.26.53-.56l.19-11.42c0-.16-.06-.31-.17-.42s-.25-.18-.42-.16c-2.41.07-5.16.62-8.38 1.67zM30.3 16.54c-.07 0-.14-.02-.21-.05-1.75-.84-3.69-1.12-6.26-1.32a.493.493 0 0 1 .08-.98c2.68.2 4.72.51 6.61 1.41.25.12.35.41.23.66-.09.18-.26.28-.45.28zM30.3 18.76c-.07 0-.14-.02-.21-.05-1.75-.84-3.69-1.12-6.26-1.32a.493.493 0 0 1 .08-.98c2.68.2 4.71.51 6.61 1.41.25.12.35.41.23.66-.09.18-.26.28-.45.28zM30.3 20.99c-.07 0-.14-.02-.21-.05-1.75-.84-3.69-1.12-6.26-1.32a.493.493 0 0 1 .08-.98c2.68.2 4.72.51 6.61 1.41.25.12.35.41.23.66-.09.17-.26.28-.45.28z" fill="#f8941f" opacity="1" data-original="#000000" class=""></path><path d="M33.69 16.54a.48.48 0 0 1-.44-.28.497.497 0 0 1 .23-.66c1.89-.9 3.93-1.21 6.61-1.41a.493.493 0 0 1 .08.98c-2.56.19-4.5.48-6.26 1.32-.07.04-.15.05-.22.05zM33.69 18.76a.48.48 0 0 1-.44-.28.497.497 0 0 1 .23-.66c1.89-.9 3.93-1.21 6.61-1.41a.493.493 0 0 1 .08.98c-2.56.19-4.5.48-6.26 1.32-.07.04-.15.05-.22.05zM33.69 20.99a.48.48 0 0 1-.44-.28.497.497 0 0 1 .23-.66c1.89-.9 3.93-1.21 6.61-1.41a.493.493 0 0 1 .08.98c-2.56.19-4.5.48-6.26 1.32-.07.03-.15.05-.22.05z" fill="#f8941f" opacity="1" data-original="#000000" class=""></path></g></svg>