<svg xmlns="http://www.w3.org/2000/svg" version="1.1" xmlns:xlink="http://www.w3.org/1999/xlink" width="50" height="50" x="0" y="0" viewBox="0 0 512 512" style="enable-background:new 0 0 512 512" xml:space="preserve" class=""><g><path d="M485.4 75.7H26.6C13 75.7 2 86.8 2 100.3v311.4c0 13.6 11 24.6 24.6 24.6h458.8c13.6 0 24.6-11 24.6-24.6V100.3c0-13.5-11-24.6-24.6-24.6zm8.2 336c0 4.5-3.7 8.2-8.2 8.2H26.6c-4.5 0-8.2-3.7-8.2-8.2V100.3c0-4.5 3.7-8.2 8.2-8.2h458.8c4.5 0 8.2 3.7 8.2 8.2z" fill="#f92596" opacity="1" data-original="#000000" class=""></path><path d="M256 305.2c45.2 0 81.9-36.8 81.9-81.9s-36.8-81.9-81.9-81.9-81.9 36.8-81.9 81.9 36.7 81.9 81.9 81.9zm0-147.5c36.1 0 65.5 29.4 65.5 65.5s-29.4 65.5-65.5 65.5-65.5-29.4-65.5-65.5 29.4-65.5 65.5-65.5zM157.7 329.7c-15.2 0-27.9 10.5-31.6 24.6H59.4v16.4h66.7c3.7 14.1 16.4 24.6 31.6 24.6s27.9-10.5 31.6-24.6h263.4v-16.4H189.3c-3.7-14.1-16.4-24.6-31.6-24.6zm0 49.2c-9 0-16.4-7.3-16.4-16.4 0-9 7.4-16.4 16.4-16.4s16.4 7.3 16.4 16.4-7.4 16.4-16.4 16.4z" fill="#f92596" opacity="1" data-original="#000000" class=""></path><path d="M231.4 175.1v96.2l72.1-48.1zm16.4 30.7 26.2 17.5-26.2 17.5z" fill="#f92596" opacity="1" data-original="#000000" class=""></path></g></svg>