<svg xmlns="http://www.w3.org/2000/svg" version="1.1" xmlns:xlink="http://www.w3.org/1999/xlink" width="50" height="50" x="0" y="0" viewBox="0 0 128 128" style="enable-background:new 0 0 512 512" xml:space="preserve" class=""><g><path d="M39 30a5.996 5.996 0 0 0 2-11.65v-5.855l5.938 1.964v9.416A6.978 6.978 0 0 0 49 28.831v7.514A14.672 14.672 0 0 0 63.655 51h.69A14.672 14.672 0 0 0 79 36.345V28.83a6.978 6.978 0 0 0 2.062-4.956v-9.414l8.566-2.836a2 2 0 0 0-.037-3.81L64.596.09a1.996 1.996 0 0 0-1.181 0s-25 7.725-25.005 7.726a2.1 2.1 0 0 0-1.37 1.56 1.857 1.857 0 0 0-.04.352v8.623A5.996 5.996 0 0 0 39 30Zm36 6.345A10.667 10.667 0 0 1 64.345 47h-.69A10.667 10.667 0 0 1 53 36.345v-5.54a6.992 6.992 0 0 0 .938.07h20.124a6.992 6.992 0 0 0 .938-.07ZM50.938 15.783l12.438 4.115a1.995 1.995 0 0 0 1.257 0l12.429-4.114v8.091a3.003 3.003 0 0 1-3 3H53.938a3.003 3.003 0 0 1-3-3ZM70.334 104.5v-5c0-.152-.378-.5-1-.5H63v6h6.333c.623 0 1-.348 1-.5ZM88 99c-2.757 0-5 1.906-5 4.25v3.73h10v-3.73c0-2.344-2.243-4.25-5-4.25ZM70.166 109H63v5.5c0 .152.378.5 1 .5h6.167c.622 0 1-.348 1-.5v-5c0-.152-.378-.5-1-.5Z" fill="#da04f8" opacity="1" data-original="#000000" class=""></path><path d="M108 86H95V64.13c0-9.043-6.575-15.476-16.157-16.071A18.787 18.787 0 0 1 74.454 52h2.93C84.163 52 91 55.751 91 64.13v21.762H79V78a2 2 0 0 0-4 0v7.892H53V78a2 2 0 0 0-4 0v7.892H37V64.13C37 55.75 43.838 52 50.615 52h2.93a18.787 18.787 0 0 1-4.388-3.941C39.575 48.654 33 55.087 33 64.129V86H20a6.007 6.007 0 0 0-6 6v30a6.007 6.007 0 0 0 6 6h88a6.007 6.007 0 0 0 6-6V92a6.007 6.007 0 0 0-6-6Zm-53 31a2 2 0 0 1-4 0v-15.148l-6.581 6.625a2.06 2.06 0 0 1-2.838 0L35 101.852V117a2 2 0 0 1-4 0V97a2 2 0 0 1 3.419-1.41L43 104.23l8.581-8.64A2 2 0 0 1 55 97Zm20.166-2.5a4.775 4.775 0 0 1-5 4.5H64a4.775 4.775 0 0 1-5-4.5V97a2 2 0 0 1 2-2h8.334a4.775 4.775 0 0 1 5 4.5v5a4.112 4.112 0 0 1-.495 1.95 4.248 4.248 0 0 1 1.328 3.05ZM97 117a2 2 0 0 1-4 0v-6.02H83V117a2 2 0 0 1-4 0v-13.75c0-4.549 4.038-8.25 9-8.25s9 3.701 9 8.25Z" fill="#da04f8" opacity="1" data-original="#000000" class=""></path></g></svg>