<svg xmlns="http://www.w3.org/2000/svg" version="1.1" xmlns:xlink="http://www.w3.org/1999/xlink" width="44" height="44" x="0" y="0" viewBox="0 0 60 60" style="enable-background:new 0 0 512 512" xml:space="preserve" class=""><g><path d="m38.273 13.023-4.731-4.739a6.385 6.385 0 0 0-8.992 0l-9.468 9.458a3.67 3.67 0 0 0 .472 5.6 3.541 3.541 0 0 0 2.067.65 3.889 3.889 0 0 0 2.757-1.157l8.425-8.4a.348.348 0 0 1 .488 0l4.726 4.72a6.3 6.3 0 0 0 4.483 1.872h.01a6.333 6.333 0 0 0 4.5-1.867l8.761-8.753.387.386a2.474 2.474 0 0 0 4.226-1.521l.6-6.568V2.7A2.48 2.48 0 0 0 54.285.012L47.7.6a2.479 2.479 0 0 0-1.52 4.219l.39.39-7.809 7.813a.35.35 0 0 1-.488.001Zm10.419-7.107a1 1 0 0 0 0-1.415l-1.1-1.1a.45.45 0 0 1-.111-.493.469.469 0 0 1 .4-.319L54.475 2a.458.458 0 0 1 .379.134.478.478 0 0 1 .146.389l-.6 6.563a.472.472 0 0 1-.32.418.447.447 0 0 1-.5-.121l-1.1-1.1a1 1 0 0 0-1.413 0L41.6 17.745a4.345 4.345 0 0 1-3.088 1.282h-.007a4.312 4.312 0 0 1-3.072-1.282l-4.728-4.723a2.348 2.348 0 0 0-3.315 0l-8.43 8.406a1.76 1.76 0 0 1-2.245.289 1.656 1.656 0 0 1-.709-1.227 1.679 1.679 0 0 1 .489-1.33l9.469-9.46a4.378 4.378 0 0 1 6.166 0l4.729 4.737a2.35 2.35 0 0 0 3.315 0ZM57 19h-8a3 3 0 0 0-3 3v3h-8a3 3 0 0 0-3 3v3h-7a3 3 0 0 0-3 3v3h-2.1c-.408-2.13-2.159-5-6.9-5s-6.488 2.87-6.9 5H3a3 3 0 0 0-3 3v4.858A2.979 2.979 0 0 0 1 47.1V57a3 3 0 0 0 3 3h24a3 3 0 0 0 3-3v-4h26a3 3 0 0 0 3-3V22a3 3 0 0 0-3-3ZM16 34c3.409 0 4.491 1.8 4.836 3h-9.672c.346-1.2 1.429-3 4.836-3ZM2 40a1 1 0 0 1 1-1h26a1 1 0 0 1 1 1v4.858a.975.975 0 0 1-.521.879 24.709 24.709 0 0 1-10.667 2.251 2.983 2.983 0 0 0-5.624 0 24.709 24.709 0 0 1-10.667-2.251.975.975 0 0 1-.521-.879Zm15 9v1a1 1 0 0 1-2 0v-1a1 1 0 0 1 2 0Zm11 9H4a1 1 0 0 1-1-1v-8.857a28.814 28.814 0 0 0 10 1.842V50a3 3 0 0 0 6 0v-.015a28.814 28.814 0 0 0 10-1.842V57a1 1 0 0 1-1 1Zm30-8a1 1 0 0 1-1 1H31v-3.9a2.979 2.979 0 0 0 1-2.238V40a3 3 0 0 0-3-3h-2v-3a1 1 0 0 1 1-1h8a1 1 0 0 0 1-1v-4a1 1 0 0 1 1-1h9a1 1 0 0 0 1-1v-4a1 1 0 0 1 1-1h8a1 1 0 0 1 1 1Z" fill="#ffffff" opacity="1" data-original="#000000"></path></g></svg>