<svg xmlns="http://www.w3.org/2000/svg" version="1.1" xmlns:xlink="http://www.w3.org/1999/xlink" width="44" height="44" x="0" y="0" viewBox="0 0 512 512" style="enable-background:new 0 0 512 512" xml:space="preserve" class=""><g><path d="M376.8 300.9c-4.5-23.2-25.1-30.1-45-36.6-12.9-4.6-28-14.1-42-10.5l-2.3-15.7c15.8-12.1 25.4-31.3 26-52.5 23.5-31.2 14.8-76.3-19.5-96.5-25.8-16.6-68.5-18-83.4 13.1-36.4 8.9-48.2 53.1-19.3 83.3.6 20.2 9.5 38.9 24 50.9l-2.5 17.3c-7.9-2.4-16.3 1-23.6 3.9l-37.4 13.6c-13.3 4.8-23 15.9-26 29.7l-35 158.8c-4.9 19.9 11.7 40.8 32.3 40.2h256.3c20.5.5 37.2-20.3 32.3-40.2l-34.9-158.8zm-88.6-35c5-3.2 11.2-2.6 16.5-.2l-20.4 47.7c-6.7-8.3-18-22.4-24.8-30.8 3-1.7 26.2-15.3 28.7-16.7zm-36.9 47.5-10.2-9.9c3.4-4.5 6.9-9.1 10.3-13.6L262 303zm.1 25.7 14.7 81.7-14.7 30.4-14.8-30.4zm-.2-64.1c-9.5-5.5-18.9-11.1-28.4-16.6.7-4.7 1-9.8 2.3-14.4 8.2.7 16.2 5.8 25.1 6.1 9.4.3 18.9-1.6 27.3-5.7l2.1 14.1c-9.4 5.5-18.8 10.9-28.4 16.5zm-63.4-115.8c-6.8-18.8 3.8-41 23.6-45.8 4.1-.6 7.4-2.7 8.8-6.8 9.2-17.7 32.4-21.8 50.3-16.3 36.7 9 59.8 53.7 35.9 85.9-10.7-5.8-19.7-14.6-25.8-25.1-1.1-1.9-2.2-4-4.2-4.9s-4.4-.4-6.5.1c-11.8 2.6-24.2 2.4-35.9-.4-2.1-.5-4.3-1.1-6.4-.4-2.3.8-3.6 3.1-4.9 5.1-6.4 10.3-15.1 19.1-25.4 25.7-2 .4-9-15.6-9.5-17.1zm14.1 27.1c12.1-7.8 22.2-17.7 30-29.8 13 2.9 26.5 3 39.6.5 7.7 12.4 18.5 22.6 31.4 29.6-5.5 70.4-96 70-101-.3zm-.8 78.3c4.3-1.6 9.3-1.1 13.3 1.2l29.1 17c-7.8 10.3-16.1 21.3-23.9 31.6l-21.4-48.7zm178.3 224.6h-44.8v-49.6c0-3-2.4-5.3-5.3-5.3-3 0-5.3 2.4-5.3 5.3v49.6H178.6v-49.6c0-7-10.7-7-10.7 0v49.6h-44.8c-13.9.4-25.2-13.7-21.8-27.2l34.9-158.8c2.2-10 9.5-18.4 19.2-21.9l32.7-11.9 25.4 57.7c1.5 3.7 6.9 4.3 9.2 1.1l12.1-16.1 9.1 8.9-18 99.7c-.2 1.1 0 2.3.5 3.3l20.3 41.9c.9 1.8 2.8 3 4.8 3s3.9-1.2 4.8-3l20.3-41.9c.5-1 .6-2.2.4-3.3L259 321l9.8-9.6c3.6 4.4 7 8.8 10.6 13.2 1.7 2.2 3.9 5.3 7 4.6 1.9-.3 3.5-1.5 4.2-3.2 8-18.8 16.1-37.6 24.1-56.5l32.5 11.9c9.7 3.5 17 11.9 19.2 21.9l34.9 158.8c3.3 13.3-8.1 27.5-21.9 27.1zm-289.1-380h18.4c4.1.1 6.9-5 4.4-8.3L72.6 40.5c-2-3-6.9-3-8.9 0l-40.5 60.4c-2.4 3.4.3 8.5 4.4 8.3H46v90.5c0 3 2.4 5.3 5.3 5.3h33.6c3 0 5.3-2.4 5.3-5.3v-90.5zm-5.4-10.6c-3 0-5.3 2.4-5.3 5.3v90.5H56.7v-90.5c0-3-2.4-5.3-5.3-5.3H37.6l30.5-45.5 30.5 45.5zm425.2 223.3-40.5-60.4c-1-1.5-2.7-2.4-4.4-2.4-1.8 0-3.4.9-4.4 2.4l-40.5 60.4c-2.4 3.4.3 8.5 4.4 8.3h18.4v90.5c0 3 2.4 5.3 5.3 5.3H482c3 0 5.3-2.4 5.3-5.3v-90.5h18.4c4.1.2 6.8-4.9 4.4-8.3zm-28.2-2.3c-3 0-5.3 2.4-5.3 5.3v90.5h-22.9v-90.5c0-3-2.4-5.3-5.3-5.3h-13.7l30.5-45.5 30.5 45.5zm-431.1 1.2c-2-3-6.9-3-8.9 0l-24.8 37c-2.4 3.4.3 8.5 4.4 8.3h9.2v53.2c0 3 2.4 5.3 5.3 5.3h20.5c3 0 5.3-2.4 5.3-5.3v-53.2H71c4.1.1 6.9-5 4.4-8.3.2 0-24.6-37-24.6-37zm5.9 34.6c-3 0-5.3 2.4-5.3 5.3V414h-9.8v-53.2c0-3-2.4-5.3-5.3-5.3h-4.5l14.8-22 14.8 22h-4.7zM351 77.3h9V130c0 3 2.4 5.3 5.3 5.3h20.4c3 0 5.3-2.4 5.3-5.3V77.3h9c4.1.1 6.9-5 4.4-8.3l-24.6-36.6c-2-3-6.9-3-8.9 0L346.6 69c-2.4 3.4.3 8.5 4.4 8.3zM375.6 45l14.5 21.7h-4.4c-3 0-5.3 2.4-5.3 5.3v52.7h-9.7V72c0-3-2.4-5.3-5.3-5.3H361zm58 178.8c0 7 10.7 7 10.7 0 0-11.5 9.3-20.8 20.8-20.8 7 0 7-10.7 0-10.7-11.5 0-20.8-9.3-20.8-20.8 0-7-10.7-7-10.7 0 0 11.5-9.3 20.8-20.8 20.8-7 0-7 10.7 0 10.7 11.5 0 20.8 9.3 20.8 20.8zM439 189c2.3 3.4 5.2 6.3 8.6 8.6-3.4 2.3-6.3 5.2-8.6 8.6-2.3-3.4-5.2-6.3-8.6-8.6 3.4-2.2 6.3-5.2 8.6-8.6zM27 281.4c0 7 10.7 7 10.7 0 0-11.5 9.3-20.8 20.8-20.8 7 0 7-10.7 0-10.7-11.5 0-20.8-9.3-20.8-20.8 0-7-10.7-7-10.7 0 0 11.5-9.3 20.8-20.8 20.8-7 0-7 10.7 0 10.7 11.5 0 20.8 9.3 20.8 20.8zm5.4-34.8c2.3 3.4 5.2 6.3 8.6 8.6-3.4 2.3-6.3 5.2-8.6 8.6-2.3-3.4-5.2-6.3-8.6-8.6 3.4-2.2 6.3-5.2 8.6-8.6zM147.2 48.8c11.5 0 20.8 9.3 20.8 20.8 0 7 10.7 7 10.7 0 0-11.5 9.3-20.8 20.8-20.8 7 0 7-10.7 0-10.7-11.5 0-20.8-9.3-20.8-20.8 0-7-10.7-7-10.7 0 0 11.5-9.3 20.8-20.8 20.8-7 0-7.1 10.7 0 10.7zm26.1-13.9c2.3 3.4 5.2 6.3 8.6 8.6-3.4 2.3-6.3 5.2-8.6 8.6-2.3-3.4-5.2-6.3-8.6-8.6 3.4-2.3 6.3-5.2 8.6-8.6z" fill="#ffffff" opacity="1" data-original="#000000" class=""></path></g></svg>