<svg xmlns="http://www.w3.org/2000/svg" version="1.1" xmlns:xlink="http://www.w3.org/1999/xlink" width="44" height="44" x="0" y="0" viewBox="0 0 512 512" style="enable-background:new 0 0 512 512" xml:space="preserve" class=""><g><path d="M110.5 182.8V169l.3-.1 9.8 9.8c3.5 3.5 9.6 3.5 13.1 0l22.6-22.6c3.5-3.6 3.5-9.4 0-13l-9.8-9.8.1-.3h13.8c5.1 0 9.2-4.1 9.2-9.2v-32c0-5.1-4.1-9.2-9.2-9.2h-13.8l-.1-.3 9.8-9.8c3.5-3.6 3.5-9.4 0-13l-22.6-22.6c-3.5-3.5-9.6-3.5-13.1 0l-9.8 9.8c-.1 0-.2-.1-.3-.1V32.8c0-5.1-4.1-9.2-9.2-9.2h-32c-5.1 0-9.2 4.1-9.2 9.2v13.8c-.1 0-.2.1-.2.1L50 36.9c-3.5-3.5-9.6-3.5-13 0L14.4 59.5c-3.6 3.4-3.6 9.6 0 13.1l9.8 9.8-.2.2H10.2c-5.1 0-9.2 4.1-9.2 9.2v32c0 5.1 4.1 9.2 9.2 9.2H24l.1.3-9.8 9.8c-3.6 3.4-3.6 9.6 0 13.1l22.6 22.6c3.5 3.5 9.6 3.5 13 0l9.8-9.8c.1 0 .2.1.3.1v13.8c0 5.1 4.1 9.2 9.2 9.2h32c5.1 0 9.3-4.2 9.3-9.3zm-10.9-1.6H70.9v-15.9c.1-5.3-6.6-5.7-9.9-7.7-2.1-1-4.6-.6-6.2 1l-11.3 11.3-20.3-20.3 11.3-11.3c3.8-3.7-.6-8.6-1.5-12.5-.7-2.2-2.8-3.7-5.1-3.7h-16V93.5h15.9c5.4 0 5.6-6.3 7.7-9.9 1-2.1.6-4.6-1-6.2L23.2 66l20.3-20.3L54.8 57c3.9 3.8 8.2-.4 12.5-1.6 2.2-.8 3.6-2.8 3.6-5.1V34.4h28.7v15.9c0 5.4 6.4 5.7 10 7.7 2.1 1 4.6.6 6.2-1.1L127 45.7 147.3 66 136 77.3c-3.8 3.8.5 8.3 1.5 12.5.7 2.2 2.8 3.7 5.1 3.7h15.9v28.7h-15.9c-5.4 0-5.6 6.3-7.7 9.9-1 2.1-.6 4.6 1 6.2l11.3 11.3-20.2 20.3-11.3-11.3c-3.9-3.8-8.3.5-12.5 1.6-2.2.8-3.6 2.8-3.6 5.1zm24.7-73.4c0-21.5-17.5-39-39-39-51.7 1.8-51.7 76.2 0 78.1 21.5-.1 39-17.6 39-39.1zm-39 28.2c-37.2-1.2-37.3-55.2 0-56.4 37.2 1.2 37.2 55.2 0 56.4zM418 322.8h-26.8c-10.5-28.7-37.2-49.9-67.6-51.4l-25.7-11.1c19.6-9.2 30.2-26 30.2-48.5v-50.3c0-48-48.2-83.8-94.3-69.5-28 8.8-48.5 34.7-51.2 63.8-1.8 18.5-.3 37.4-.3 55.9 0 22.8 10.3 39.3 30 48.5l-25.9 11.2c-30.4 1.6-57.1 22.8-67.5 51.4H91.8c-10.3-.3-18.3 10.9-14.7 20.6l42.5 124.4h-5.3c-4.8 0-8.7 3.9-8.7 8.7v13.6c0 4.8 3.9 8.7 8.7 8.7h282.3c4.8 0 8.7-3.9 8.7-8.7v-13.6c0-4.8-3.9-8.7-8.7-8.7h-6.4l42.5-124.4c3.6-9.7-4.4-20.9-14.7-20.6zm-93.2-40.3c24.1 1.7 45.1 18.3 54.7 40.3h-71.8l1.4-2.9c2.4-5.5-4.5-8.7-7.6-12.3 7.7-8.3 15.5-16.7 23.3-25.1zm-11.5-3.7c-7.4 7.9-16.1 17.4-23.5 25.3-4.9 6.1 4.2 10.6 7.6 14.6l-1.9 4h-16.2l11.1-48.8c.1-.5.1-1 .1-1.5l.2-3.3zm-81.4-9-.6-.3c1.5-6.5 5.4-23.6 6.9-30.4 11.4 5.3 22.7 5.3 34-.2l6.3 29c-14.4 7.4-31.6 8-46.6 1.9zm45.9 10.5-9.6 42.5h-26.4l-9.3-41.2c14.7 4.8 30.9 4.3 45.3-1.3zm-9.9-51.3c-24.5 13.5-55.8-18.8-61.6-41.4-.2-.6-1.6-5.9-1.5-6 1.9-.6 3.9-1.4 5.5-2 11-3.8 21.5-9.1 31.2-15.6 2.4-1.6 27.4-21.2 26.6-21.9 11.5 10.7 24.6 20 38.7 26.9.3 25.6-15.7 49.7-38.9 60zm49.2-17.2c0 20.9-10.3 34.8-30.7 41.4l-4.3-19.5c19.1-12.5 32.2-33.2 35-55.8zM285 115.5c1.1-2.3 2-4.5 3-6.6 18 11.1 29.5 31.6 29.2 53-15.6-6.7-29.9-16.6-42.3-28.3 3.6-5.9 7.1-11.9 10.1-18.1zm-91.7 41.3c3.8-40.2 46.8-68.4 84.9-52.9-10.9 28.4-34.2 49.1-61.7 61.1-1.7.8-23.5 9.2-23.5 8.3-.1-5.4-.2-11.1.3-16.5zm-.2 55v-27.4l1-.2c3.9 19.5 16.8 39 34.1 49.6 0 .2-4.4 19.1-4.4 19.3-20.3-6.6-30.7-20.5-30.7-41.3zm26.2 57.3c.1.9.2 4 .3 4.9l11 48.9h-16.2l-1.9-4c3.5-4 12.7-8.5 7.6-14.6-7.8-8.4-15.7-16.9-23.5-25.4zm-75.9 34.1c10.9-11.9 25.9-19.5 41.9-20.7 7.7 8.4 15.5 16.8 23.3 25.2-3 3.6-10 6.7-7.5 12.3l1.4 2.9h-71.8c3.2-7.4 7.5-14.1 12.7-19.7zm251 175.5v9.3h-278v-9.3zm28-138.8-43.7 127.9H131L87.3 339.9c-.5-1.5-.3-3 .6-4.3s2.3-2 3.8-2H418c3.1 0 5.5 3.3 4.4 6.3zM256 369.7c-22.5-1.1-40.4 19.8-33.9 41.1 9.2 30.7 56.3 31.4 66.5 1 7.2-21-10.2-42.5-32.6-42.1zm22.3 38.7c-11.9 30.2-61.3 10.6-42.5-18.9 14.1-18.7 50.5-6 42.5 18.9zM462.5 56.7c-29.4-27.2-79.6-8.2-83.5 31.8-1.5 13.5 2.4 26.7 10.8 37.2 6.4 7.9 9.7 16.7 9.7 25.6v21.4c.9 37.6 57.9 37.7 58.9 0 0-15.8-2.2-33.8 9.8-47 16.6-20.1 14-52-5.7-69zm-15 115.9c-.2 23.2-36.9 23.2-37.2 0v-11.7h37.2zm12.2-53.8c-7.6 9.5-11.8 20.3-12.2 31.2h-37.2c-.3-11-4.5-21.7-12.1-31.2-6.6-8.2-9.7-18.6-8.5-29.2 2.8-31.1 42.8-46.3 65.5-24.9 15.5 13.4 17.7 38.5 4.5 54.1zM371 153.1c-5.1-5.4 3-10.2 6.2-13.8 2.1-2.1 5.6-2.1 7.7 0s2.1 5.6 0 7.7c-3.7 3.1-8.5 11.2-13.9 6.1zm116-116c2.1 2.1 2.1 5.6 0 7.7-3.6 3.1-8.4 11.2-13.8 6.2-5.1-5.4 3-10.2 6.2-13.8 2-2.2 5.5-2.2 7.6-.1zm-140.1 58c0-3 2.4-5.4 5.4-5.4h8.7c3 0 5.4 2.4 5.4 5.4s-2.4 5.4-5.4 5.4h-8.7c-2.9 0-5.4-2.4-5.4-5.4zm164.1 0c0 3-2.4 5.4-5.4 5.4h-8.7c-3 0-5.4-2.4-5.4-5.4s2.4-5.4 5.4-5.4h8.7c3 0 5.4 2.4 5.4 5.4zM371 44.8c-5-5 2.6-12.7 7.7-7.7l6.2 6.2c5 5-2.6 12.7-7.7 7.7l-6.2-6.2zm116 100.6c5 5-2.6 12.7-7.7 7.7l-6.2-6.2c-5-5 2.6-12.7 7.7-7.7 0 .1 6.2 6.2 6.2 6.2zM423.5 27.2v-8.7c0-7.1 10.8-7.1 10.9 0v8.7c0 7.1-10.8 7.1-10.9 0z" fill="#ffffff" opacity="1" data-original="#000000"></path></g></svg>