<svg xmlns="http://www.w3.org/2000/svg" version="1.1" xmlns:xlink="http://www.w3.org/1999/xlink" width="44" height="44" x="0" y="0" viewBox="0 0 512 512" style="enable-background:new 0 0 512 512" xml:space="preserve" class=""><g><path d="M457.81 83.5 401 75.93V51.01C401 31.15 384.84 15 364.99 15H109.57c-19.86 0-36.01 16.15-36.01 36.01v194.92l-3.18 3.18c-3.75 3.75-5.81 8.74-5.81 14.07s2.06 10.32 5.81 14.07c.99.99 2.06 1.85 3.18 2.58v45.52l-44.38 44.37c-7.9 7.9-8.47 17.19-1.7 27.61.11.17.22.33.31.47.3.81.77 1.55 1.39 2.17 4.03 4.03 9.4 6.25 15.13 6.25s11.1-2.22 15.13-6.25l14.12-14.12v9.96c0 20.43 13.53 33.73 35.72 35.74v18.94c0 3.31 2.69 6 6 6h18.09a35.781 35.781 0 0 0 16.2 6.44l253.18 33.74c1.61.21 3.2.32 4.78.32 17.76 0 33.26-13.18 35.67-31.26l45.55-341.79c2.62-19.67-11.26-37.81-30.94-40.44zm-249.5 230.07-36.74 36.74c-1.48 1.48-3.46 2.3-5.58 2.3s-4.1-.82-5.58-2.3c-3.08-3.08-3.08-8.09 0-11.17l36.74-36.74c1.54-1.54 3.56-2.31 5.58-2.31s4.04.77 5.58 2.31a7.834 7.834 0 0 1 2.3 5.58c-.01 2.12-.82 4.11-2.3 5.59zm-29.04-21.81.01.01 5.76 5.76-29.51 29.51-53.4-53.4 29.51-29.51zm-52.5-59.73-36.74 36.74c-3.08 3.08-8.09 3.08-11.17 0s-3.08-8.09 0-11.17l36.74-36.74c1.48-1.48 3.46-2.29 5.58-2.29s4.1.81 5.58 2.29c1.48 1.48 2.3 3.46 2.3 5.58s-.81 4.11-2.29 5.59zm-41.21 50.99c2.47-.14 4.91-.73 7.2-1.78l12.46 12.46-19.66 19.66zM50.95 391.5c-1.76 1.76-4.12 2.73-6.64 2.73-2.19 0-4.26-.73-5.93-2.09-.26-.45-.55-.9-.84-1.35-3.26-5.01-4.13-8.33.12-12.58l76.03-76.03 13.28 13.28zm58.33 19.72v8.29c-10.75-1.19-23.72-6.25-23.72-23.69v-21.96l49.91-49.91 12.46 12.46c-3.37 7.35-2.06 16.34 3.98 22.38 3.75 3.75 8.74 5.81 14.07 5.81s10.32-2.06 14.07-5.81l29.52-29.52h124.44c3.31 0 6-2.69 6-6s-2.69-6-6-6H220.32c1.49-2.83 2.29-5.99 2.29-9.29 0-5.33-2.06-10.32-5.81-14.07-.14-.14-.29-.26-.43-.39h117.65c3.31 0 6-2.69 6-6s-2.69-6-6-6H186l-46.77-46.77a19.9 19.9 0 0 0 1.83-8.32c0-5.32-2.06-10.32-5.81-14.07-3.75-3.75-8.74-5.81-14.07-5.81s-10.32 2.06-14.07 5.81l-21.56 21.56V51.01C85.56 37.77 96.33 27 109.57 27h255.42C378.23 27 389 37.77 389 51.01v344.81c0 13.24-10.77 24.01-24.01 24.01h-56.04v-8.61c0-3.31-2.69-6-6-6h-19.64v-10.91c0-.3-.01-.6-.02-.9h50.72c3.31 0 6-2.69 6-6s-2.69-6-6-6h-54.69c-4.13-6.04-11.07-10.01-18.92-10.01H157.84c-12.63 0-22.91 10.28-22.91 22.91v10.91h-19.64c-3.32 0-6.01 2.69-6.01 6zm162.03-16.91v10.91H146.92v-10.91c0-6.02 4.9-10.91 10.91-10.91H260.4c6.01 0 10.91 4.89 10.91 10.91zm-150.03 22.91h175.67v27.28H121.28zm355.57-294.85L431.3 464.16c-1.75 13.12-13.87 22.37-26.97 20.63L192.06 456.5h110.88c3.31 0 6-2.69 6-6v-18.67h56.04c19.86 0 36.01-16.15 36.01-36.01V88.04l55.22 7.36c13.14 1.75 22.39 13.85 20.64 26.97zM326.71 67.98c-33.2-1.08-62.04-11.02-85.74-29.56a5.992 5.992 0 0 0-7.39 0c-23.7 18.54-52.54 28.49-85.74 29.56-3.05.1-5.54 2.47-5.79 5.5-4.47 54.29 2.44 96.74 21.13 129.77 15.27 26.98 37.96 47.31 71.42 63.96a5.984 5.984 0 0 0 5.34 0c33.46-16.65 56.15-36.98 71.41-63.96 18.69-33.03 25.6-75.48 21.13-129.77-.23-3.03-2.72-5.4-5.77-5.5zm-89.43 187.14c-46.3-23.67-91.39-63.75-83.66-175.4 31.87-1.92 59.97-11.68 83.66-29.05 23.69 17.37 51.79 27.13 83.66 29.05 7.73 111.66-37.36 151.73-83.66 175.4zm64.27-165c-23.8-.77-43.61-7.6-60.58-20.87a5.992 5.992 0 0 0-7.39 0C216.62 82.52 196.8 89.35 173 90.12c-3.05.1-5.54 2.47-5.79 5.5-7.52 91.29 32.06 123.18 67.38 140.76a5.984 5.984 0 0 0 5.34 0c35.32-17.58 74.9-49.47 67.38-140.76-.22-3.03-2.71-5.4-5.76-5.5zm-64.27 134.17c-32.27-16.69-63.42-45-58.48-122.45 22.16-1.58 41.79-8.41 58.48-20.36 16.69 11.95 36.32 18.78 58.48 20.36 4.94 77.45-26.21 105.75-58.48 122.45zm34.27-95.16c2.34 2.34 2.34 6.14 0 8.49l-38.25 38.25a5.991 5.991 0 0 1-8.48 0L203 154.05c-2.34-2.34-2.34-6.14 0-8.49a6 6 0 0 1 8.48 0l17.57 17.57 34.01-34.01c2.35-2.34 6.15-2.34 8.49.01zm-11.4 229.89c0-3.31 2.69-6 6-6h67.86c3.31 0 6 2.69 6 6s-2.69 6-6 6h-67.86c-3.31 0-6-2.69-6-6z" fill="#ffffff" opacity="1" data-original="#000000"></path></g></svg>