<svg xmlns="http://www.w3.org/2000/svg" version="1.1" xmlns:xlink="http://www.w3.org/1999/xlink" width="44" height="44" x="0" y="0" viewBox="0 0 66 66" style="enable-background:new 0 0 44 44" xml:space="preserve" class=""><g><path d="M14.51 49.16a.74.74 0 0 1-.74-.67c-.37-3.25-.63-5.8-.71-6.65l-.03-.22c-.06-.41.23-.79.64-.85s.79.23.85.64l.04.26c.08.88.34 3.42.71 6.65.05.41-.25.78-.66.83-.04.01-.07.01-.1.01z" fill="#ffffff" opacity="1" data-original="#000000" class=""></path><path d="M13.55 65c-.33 0-.64-.22-.72-.56l-2.54-9.63a.717.717 0 0 1 .05-.52l1.04-2.1-1.8-1.54a.788.788 0 0 1-.26-.48c-.34-2.81 1.33-5.79 2.79-7.79.31-.42.58-.75.77-.98.21-.25.33-.38.33-.38.28-.31.75-.33 1.06-.05s.33.75.06 1.06c0 .01-.11.12-.29.34-.18.21-.43.52-.72.91-1.02 1.4-2.66 4.06-2.53 6.44l2.01 1.72c.26.22.34.6.18.9l-1.17 2.37 2.46 9.36c.11.4-.13.81-.53.92-.06 0-.13.01-.19.01zM30.53 65c-.06 0-.13-.01-.19-.02a.75.75 0 0 1-.53-.92l2.46-9.36-1.17-2.37a.748.748 0 0 1 .18-.9l2.01-1.72c.14-2.38-1.51-5.05-2.53-6.45-.28-.37-.53-.69-.71-.9s-.29-.33-.29-.34a.755.755 0 0 1 1.12-1.01s.12.13.33.38c.19.23.46.57.77.97 1.46 2.01 3.13 4.99 2.79 7.8a.7.7 0 0 1-.26.48l-1.8 1.54 1.04 2.1c.08.16.1.35.05.52l-2.54 9.63c-.1.34-.4.57-.73.57z" fill="#ffffff" opacity="1" data-original="#000000" class=""></path><path d="M29.56 49.16h-.09a.751.751 0 0 1-.66-.83c.37-3.24.63-5.78.7-6.62l.04-.3c.06-.41.44-.69.85-.64.41.06.7.44.64.85l-.04.26c-.07.81-.33 3.36-.7 6.61a.74.74 0 0 1-.74.67zM41.48 65H30.53c-.41 0-.75-.34-.75-.75s.34-.75.75-.75h10.95c.41 0 .75.34.75.75s-.34.75-.75.75z" fill="#ffffff" opacity="1" data-original="#000000" class=""></path><path d="M41.48 59.49c-.41 0-.75-.34-.75-.75v-3.92c0-5.96-4.36-11.13-10.59-12.57a.75.75 0 0 1 .34-1.46c6.92 1.6 11.75 7.37 11.75 14.03v3.92c0 .41-.34.75-.75.75zM13.55 65H2.6c-.41 0-.75-.34-.75-.75v-9.43c0-6.66 4.83-12.43 11.75-14.03a.75.75 0 0 1 .34 1.46C7.7 43.69 3.35 48.86 3.35 54.82v8.68h10.2c.41 0 .75.34.75.75s-.34.75-.75.75z" fill="#ffffff" opacity="1" data-original="#000000" class=""></path><path d="M27.02 65h-9.97c-.36 0-.66-.25-.74-.6-1.15-5.71-2.01-11.06-2.55-15.9-.04-.35.17-.68.5-.79s.7.02.88.32c.79 1.28 1.69 2.31 2.23 2.89l4.15-4.02c.29-.28.76-.28 1.05 0l4.12 4.02c.54-.58 1.44-1.61 2.23-2.89.18-.3.55-.43.88-.32s.54.44.5.79c-.54 4.84-1.4 10.19-2.55 15.9-.06.35-.37.6-.73.6zm-9.35-1.5h8.74c.87-4.35 1.56-8.48 2.06-12.33-.69.82-1.22 1.3-1.26 1.34-.29.27-.75.26-1.03-.02l-4.13-4.03-4.15 4.04c-.29.28-.74.28-1.03.01-.04-.03-.57-.52-1.26-1.34.5 3.85 1.19 7.98 2.06 12.33z" fill="#ffffff" opacity="1" data-original="#000000" class=""></path><path d="M17.05 65h-3.5c-.41 0-.75-.34-.75-.75s.34-.75.75-.75h3.5a.749.749 0 1 1 0 1.5zM30.53 65h-3.5c-.41 0-.75-.34-.75-.75s.34-.75.75-.75h3.5c.41 0 .75.34.75.75s-.34.75-.75.75zM13.77 42.27c-.34 0-.65-.23-.73-.57-.1-.4.15-.81.55-.9.7-.17 1.42-.29 2.15-.35.09-.02.17-.02.22-.02.41 0 .75.34.75.75s-.33.74-.74.75c-.04.01-.09.01-.14.01-.61.06-1.26.16-1.89.31-.05.02-.11.02-.17.02zm2.19-.93v.02-.18z" fill="#ffffff" opacity="1" data-original="#000000" class=""></path><path d="M22.05 48.17a.62.62 0 0 1-.23-.04c-4.76-1.51-6.4-6.2-6.57-6.73a.748.748 0 0 1 .65-.98c.35-.03.7-.05 1.05-.06l2-2.91c.23-.34.7-.43 1.04-.19.34.23.43.7.19 1.04l-2.22 3.23c-.2.29-.57.32-.92.33.63 1.35 2.12 3.76 5 4.77 2.87-1 4.38-3.38 5.04-4.77-.36-.01-.78-.03-.99-.33l-2.18-3.21c-.23-.34-.14-.81.2-1.04s.81-.14 1.04.2l1.96 2.89c.38.01.75.03 1.14.07.23.02.43.15.56.34.12.19.15.43.08.65-.3.87-2.02 5.25-6.62 6.71a.78.78 0 0 1-.22.03z" fill="#ffffff" opacity="1" data-original="#000000" class=""></path><path d="M30.3 42.27c-.06 0-.12-.01-.18-.02-.62-.15-1.26-.25-1.93-.31-.2 0-.4-.07-.54-.22a.754.754 0 0 1 0-1.06c.18-.18.45-.25.7-.21.77.07 1.46.18 2.12.34.4.1.65.5.55.9-.07.35-.38.58-.72.58zM59.79 65h-19.2c-.22 0-.43-.1-.57-.27s-.2-.39-.17-.61l2.57-15.08c.06-.36.37-.62.74-.62h19.2c.22 0 .43.1.57.27s.2.39.17.61l-2.57 15.08c-.07.36-.38.62-.74.62zm-18.31-1.5h17.68l2.32-13.58H43.79z" fill="#ffffff" opacity="1" data-original="#000000" class=""></path><path d="M52.16 62h-7.57c-.41 0-.75-.34-.75-.75s.34-.75.75-.75h7.57a.749.749 0 1 1 0 1.5zM56.81 62H55.4c-.41 0-.75-.34-.75-.75s.34-.75.75-.75h1.41c.41 0 .75.34.75.75s-.34.75-.75.75zM51.47 59.49c-1.52 0-2.75-1.25-2.75-2.78s1.23-2.78 2.75-2.78 2.75 1.25 2.75 2.78-1.23 2.78-2.75 2.78zm0-4.06c-.69 0-1.25.57-1.25 1.28s.56 1.28 1.25 1.28 1.25-.57 1.25-1.28-.56-1.28-1.25-1.28zM63.4 40.69H41.48c-.41 0-.75-.34-.75-.75V21.88c0-.41.34-.75.75-.75H63.4c.41 0 .75.34.75.75v18.06c0 .42-.33.75-.75.75zm-21.17-1.5h20.42V22.63H42.23z" fill="#ffffff" opacity="1" data-original="#000000" class=""></path><path d="M48.5 36.03h-3.34c-.41 0-.75-.34-.75-.75v-4.37c0-.41.34-.75.75-.75h3.34c.41 0 .75.34.75.75v4.37c0 .42-.33.75-.75.75zm-2.59-1.5h1.84v-2.87h-1.84zM54.11 36.03h-3.34c-.41 0-.75-.34-.75-.75v-6.26c0-.41.34-.75.75-.75h3.34c.41 0 .75.34.75.75v6.26c0 .42-.34.75-.75.75zm-2.59-1.5h1.84v-4.76h-1.84zM59.72 36.03h-3.34c-.41 0-.75-.34-.75-.75v-9.32c0-.41.34-.75.75-.75h3.34c.41 0 .75.34.75.75v9.32c0 .42-.34.75-.75.75zm-2.59-1.5h1.84v-7.82h-1.84zM37.86 20.51h-.07a.766.766 0 0 1-.68-.82c1.05-10.95-.91-14.68-2.74-15.88-1.89-1.25-4.16-.03-4.18-.02-.17.09-.38.12-.57.06-7.81-2.2-13.67-1.71-17.4 1.45-5.5 4.66-4.57 13.68-4.56 13.77.05.41-.25.78-.66.83a.753.753 0 0 1-.83-.66c-.04-.4-1.02-9.91 5.08-15.08C15.34.69 21.57.08 29.75 2.33c.82-.37 3.22-1.23 5.43.21 3.17 2.07 4.33 7.89 3.43 17.29a.75.75 0 0 1-.75.68z" fill="#ffffff" opacity="1" data-original="#000000" class=""></path><path d="M34.15 27.56h-.19c-.41-.01-.74-.36-.72-.77s.37-.73.77-.72c1.12.04 2.22-.38 3.02-1.16.69-.67 1.08-1.52 1.08-2.4a3.55 3.55 0 0 0-3.55-3.55c-.41 0-.75-.34-.75-.75s.34-.75.75-.75c2.79 0 5.05 2.27 5.05 5.05 0 1.29-.54 2.52-1.53 3.48-1.05 1-2.47 1.57-3.93 1.57zM10 27.56c-1.46 0-2.88-.57-3.92-1.58-.99-.96-1.53-2.19-1.53-3.48 0-2.79 2.27-5.05 5.05-5.05.41 0 .75.34.75.75s-.34.75-.75.75a3.55 3.55 0 0 0-3.55 3.55c0 .88.38 1.73 1.08 2.4.8.77 1.91 1.19 3.02 1.16.43-.03.76.31.77.72s-.31.76-.72.77c-.07.01-.14.01-.2.01z" fill="#ffffff" opacity="1" data-original="#000000" class=""></path><path d="M22.07 39.61c-.09 0-.18-.02-.27-.05l-2.3-.89c-2.78-1.19-5.2-3.09-7.03-5.48A17.633 17.633 0 0 1 9.43 27c-.01-.03-.01-.06-.02-.09-.38-1.43-.57-2.93-.57-4.45v-5.23c0-.12.03-.23.08-.34.03-.06 2.88-5.52 9.63-3.06.37.13.78.09 1.14-.13l5.07-2.96c.7-.4 1.49-.51 2.24-.3 1.99.52 6.79 2.2 8.26 6.55.03.08.04.16.04.24v5.23c0 1.52-.19 3.02-.58 4.46 0 .03-.01.06-.02.08-1.4 5.25-5.06 9.5-10.03 11.66-.01 0-.02.01-.03.01l-2.31.89c-.07.04-.16.05-.26.05zM10.9 26.68a16.088 16.088 0 0 0 9.17 10.6l2 .78 2.02-.78c4.52-1.97 7.86-5.83 9.15-10.61 0-.03.01-.06.02-.08.36-1.32.54-2.71.54-4.13v-5.1c-1.28-3.57-5.45-5.01-7.19-5.46-.37-.1-.75-.05-1.1.15L20.46 15a2.8 2.8 0 0 1-2.42.25c-4.96-1.81-7.24 1.43-7.69 2.18v5.03c0 1.41.18 2.8.54 4.13 0 .03.01.06.01.09z" fill="#ffffff" opacity="1" data-original="#000000" class=""></path><path d="M18.71 34.73a.74.74 0 0 1-.42-.13c-3.47-2.32-5.83-6.16-6.33-10.28-.05-.41.24-.79.65-.83.42-.05.79.24.83.65.44 3.69 2.57 7.14 5.67 9.21.34.23.44.7.21 1.04-.13.23-.36.34-.61.34zM23.27 35.93c-.29 0-.56-.17-.69-.45-.17-.38 0-.82.38-.99.63-.28 1.24-.61 1.83-.99.35-.22.81-.13 1.04.22s.13.81-.22 1.04c-.65.42-1.34.8-2.04 1.1-.1.05-.2.07-.3.07z" fill="#ffffff" opacity="1" data-original="#000000" class=""></path></g></svg>