<svg xmlns="http://www.w3.org/2000/svg" version="1.1" xmlns:xlink="http://www.w3.org/1999/xlink" width="44" height="44" x="0" y="0" viewBox="0 0 512 512" style="enable-background:new 0 0 512 512" xml:space="preserve" class=""><g><path d="M287.108 147.29a7.993 7.993 0 0 0 3.843-.984l25.577-14.011c4.457 4.104 10.402 6.617 16.924 6.617 13.79 0 25.008-11.219 25.008-25.009s-11.219-25.009-25.008-25.009c-13.79 0-25.009 11.219-25.009 25.009 0 1.489.138 2.946.389 4.365L285.06 131.29h-30.829v-23.507h22.601a8 8 0 0 0 6.651-3.554l11.441-17.114c2.079.562 4.262.867 6.516.867 13.79 0 25.008-11.219 25.008-25.009S315.23 37.964 301.44 37.964s-25.009 11.219-25.009 25.009a24.877 24.877 0 0 0 5.199 15.239l-9.073 13.572h-18.326V59.39a8 8 0 0 0-8-8H225.04a8 8 0 0 0-8 8v14.894a114.427 114.427 0 0 0-29.425 12.197l-10.538-10.537a8 8 0 0 0-11.313 0l-29.97 29.969a7.999 7.999 0 0 0 0 11.313l10.539 10.539a114.41 114.41 0 0 0-12.197 29.425h-14.895a8 8 0 0 0-8 8v42.383a8 8 0 0 0 8 8h14.895a114.494 114.494 0 0 0 12.196 29.424l-10.538 10.538a8 8 0 0 0 0 11.313l29.969 29.97a8 8 0 0 0 11.314 0l10.539-10.539a114.467 114.467 0 0 0 29.424 12.197v14.895a8 8 0 0 0 8 8h21.191a8 8 0 0 0 8-8V280.98h18.326l9.073 13.572a24.877 24.877 0 0 0-5.199 15.239c0 13.79 11.219 25.009 25.009 25.009s25.008-11.219 25.008-25.009-11.219-25.009-25.008-25.009c-2.254 0-4.437.305-6.516.866l-11.441-17.115a8 8 0 0 0-6.651-3.554h-22.601v-23.506h30.829l23.772 13.022a25.03 25.03 0 0 0-.389 4.365c0 13.79 11.219 25.009 25.009 25.009s25.008-11.219 25.008-25.009-11.219-25.009-25.008-25.009c-6.522 0-12.467 2.512-16.924 6.616l-25.577-14.011a7.993 7.993 0 0 0-3.843-.984h-32.876V194.38h55.532c3.345 9.877 12.697 17.009 23.689 17.009 13.79 0 25.008-11.219 25.008-25.009s-11.219-25.009-25.008-25.009c-10.992 0-20.344 7.132-23.689 17.009h-55.532v-31.09zm-48.876-34.505c-37.073 4.003-66.034 35.477-66.034 73.596s28.961 69.593 66.034 73.596v45.396h-5.191v-13.266a8 8 0 0 0-6.436-7.846c-12.797-2.551-24.808-7.53-35.699-14.797a8.002 8.002 0 0 0-10.097.998l-9.388 9.388-18.655-18.657 9.387-9.387a8 8 0 0 0 .997-10.098c-7.264-10.884-12.242-22.895-14.796-35.699a8 8 0 0 0-7.845-6.435h-13.267V173.19h13.267a8 8 0 0 0 7.846-6.437c2.55-12.797 7.529-24.808 14.796-35.699a7.998 7.998 0 0 0-.998-10.097l-9.387-9.388 18.656-18.656 9.387 9.386a7.998 7.998 0 0 0 10.098.997c10.886-7.265 22.896-12.244 35.699-14.797a8 8 0 0 0 6.436-7.845V67.39h5.191v45.395zm224.969 179.95c-4.192-24.761-16.684-40.516-26.721-53.175-9.002-11.354-16.129-20.341-16.246-32.75 5.172-63.34-9.841-116.093-43.426-152.573-15.756-17.114-35.424-30.326-58.458-39.268C294.473 5.699 266.87 1 236.308 1c-44.283 0-84.369 12.821-115.923 37.078-28.722 22.079-50.106 53.081-61.841 89.654-12.521 39.025-13.134 82.292-1.725 121.83 11.896 41.226 35.768 76.057 69.155 100.976 2.416 50.851-11.531 90.745-21.779 120.063-4.488 12.839-8.033 22.981-9.192 31.294a7.998 7.998 0 0 0 7.924 9.105h.016l218.764-.426a8 8 0 0 0 7.984-8c0-20.031-6.552-37.8-11.816-52.077-8.906-24.154-8.853-28.751.382-32.793 5.28-2.312 21.208 1.551 34.005 4.655 23.996 5.82 48.809 11.837 60.226-2.371a8.01 8.01 0 0 0 1.554-3.191c5.713-24.456 11.098-32.211 14.662-37.343 3.159-4.548 6.142-8.845 6.142-18.299a8 8 0 0 0-3.152-6.364c-5.255-4.003-8.995-7.075-11.185-9.186 3.295-1.403 8.208-2.99 10.219-3.639a8.002 8.002 0 0 0 5.542-7.566l.168-28.627 20.36-3.842a8 8 0 0 0 6.403-9.196zm-36.209-1.462a8.001 8.001 0 0 0-6.517 7.814l-.173 29.468c-9.102 3.123-16.307 6.577-17.558 13.896-1.332 7.79 4.935 13.955 15.786 22.403-.415 1.796-1.297 3.066-2.97 5.475-4.14 5.961-10.337 14.886-16.566 40.586-6.636 4.706-28.329-.556-42.962-4.105-18.227-4.421-33.968-8.24-44.191-3.763-11.14 4.875-16.708 13.013-16.55 24.187.122 8.594 3.574 17.958 7.571 28.799 4.277 11.601 9.036 24.506 10.426 38.559l-200.337.39c1.599-5.518 3.869-12.011 6.347-19.1 10.33-29.551 25.94-74.21 22.439-130.066a8 8 0 0 0-3.33-6.006c-62.783-44.914-89.359-130.113-64.629-207.19C97.008 60.222 157.767 17 236.308 17c56.05 0 99.361 16.174 128.729 48.074 30.538 33.169 44.101 81.846 39.224 140.765a8.09 8.09 0 0 0-.027.66c0 18.143 9.574 30.217 19.71 43.001 8.548 10.782 17.35 21.881 21.8 38.235z" fill="#ffffff" opacity="1" data-original="#000000" class=""></path></g></svg>