<svg xmlns="http://www.w3.org/2000/svg" version="1.1" xmlns:xlink="http://www.w3.org/1999/xlink" width="50" height="50" x="0" y="0" viewBox="0 0 64 64" style="enable-background:new 0 0 512 512" xml:space="preserve" class=""><g><path d="M58 32h-9.273a19 19 0 1 0-33.454 0H6a5.006 5.006 0 0 0-5 5v16a5.006 5.006 0 0 0 5 5h52a5.006 5.006 0 0 0 5-5V37a5.006 5.006 0 0 0-5-5ZM32 6a16.991 16.991 0 0 1 2.887 33.736 1 1 0 0 0-.645.405L32 43.279l-2.242-3.138a1 1 0 0 0-.645-.405A16.991 16.991 0 0 1 32 6Zm21 46H11v-1a1 1 0 0 1 1-1h40a1 1 0 0 1 1 1Zm-42 2h42v2H11Zm50-1a3 3 0 0 1-3 3h-3v-5a3 3 0 0 0-3-3H12a3 3 0 0 0-3 3v5H6a3 3 0 0 1-3-3V37a3 3 0 0 1 3-3h10.507a18.932 18.932 0 0 0 11.859 7.633l2.82 3.948a1 1 0 0 0 1.628 0l2.82-3.948A18.932 18.932 0 0 0 47.493 34H58a3 3 0 0 1 3 3Z" fill="#f8941f" opacity="1" data-original="#000000" class=""></path><path d="M56 36a3 3 0 1 0 3 3 3 3 0 0 0-3-3Zm0 4a1 1 0 1 1 1-1 1 1 0 0 1-1 1ZM21.02 32.4l2.394-2.4H25v1.586l-2.395 2.394a1 1 0 0 0 .369 1.649A5.908 5.908 0 0 0 25 36a6.006 6.006 0 0 0 6-6 5.727 5.727 0 0 0-.181-1.405l.681-.681 7.793 7.793a1 1 0 0 0 1.414 0l4-4a1 1 0 0 0 0-1.414L36.914 22.5l.681-.681A5.727 5.727 0 0 0 39 22a5.955 5.955 0 0 0 5.628-8.027 1 1 0 0 0-1.648-.368L40.586 16H39v-1.586l2.4-2.394a1 1 0 0 0-.368-1.648A5.975 5.975 0 0 0 33 16a5.727 5.727 0 0 0 .181 1.405L32 18.586l-1-1V16a1 1 0 0 0-.293-.707l-5-5a1 1 0 0 0-1.414 0l-5 5a1 1 0 0 0 0 1.414l5 5A1 1 0 0 0 25 22h1.586l1 1-1.181 1.181A5.727 5.727 0 0 0 25 24a5.955 5.955 0 0 0-5.628 8.027 1 1 0 0 0 1.648.368ZM40 33.586 32.414 26 35 23.414 42.586 31ZM35.02 18.4a1 1 0 0 0 .233-1.047A3.937 3.937 0 0 1 35 16a4.006 4.006 0 0 1 3.562-3.976l-1.269 1.269A1 1 0 0 0 37 14v3a1 1 0 0 0 1 1h3a1 1 0 0 0 .707-.293l1.269-1.269A4.006 4.006 0 0 1 39 20a3.937 3.937 0 0 1-1.348-.253 1 1 0 0 0-1.047.233l-1.147 1.148a.977.977 0 0 0-.916 0L33.414 20ZM25.414 20l-4-4L25 12.414l4 4V18a1 1 0 0 0 .293.707l3.793 3.793-1.586 1.586-3.793-3.793A1 1 0 0 0 27 20ZM25 26a3.937 3.937 0 0 1 1.348.253 1 1 0 0 0 1.052-.233l1.6-1.606 1.128 1.128a.977.977 0 0 0 0 .916l-1.148 1.147a1 1 0 0 0-.233 1.047A3.937 3.937 0 0 1 29 30a4.007 4.007 0 0 1-3.562 3.977l1.269-1.27A1 1 0 0 0 27 32v-3a1 1 0 0 0-1-1h-3a1 1 0 0 0-.707.293l-1.269 1.269A4.006 4.006 0 0 1 25 26Z" fill="#f8941f" opacity="1" data-original="#000000" class=""></path></g></svg>