<svg xmlns="http://www.w3.org/2000/svg" version="1.1" xmlns:xlink="http://www.w3.org/1999/xlink" width="50" height="50" x="0" y="0" viewBox="0 0 512 512" style="enable-background:new 0 0 512 512" xml:space="preserve" class=""><g><path d="m498.874 183.335-23.179-8.922a146.934 146.934 0 0 0-14.66-35.362l10.089-22.713a7.999 7.999 0 0 0-1.655-8.904l-31.241-31.24a7.999 7.999 0 0 0-8.903-1.655L406.602 84.63a146.969 146.969 0 0 0-35.352-14.656l-8.924-23.186a7.998 7.998 0 0 0-7.466-5.126h-44.18a8 8 0 0 0-7.466 5.126l-8.925 23.187a147.026 147.026 0 0 0-35.352 14.656l-22.722-10.092a8 8 0 0 0-8.904 1.655l-31.24 31.241a8 8 0 0 0-1.654 8.904l2.16 4.863c-8.599-5.334-19.598-5.83-23.324-5.83h-.038c-4.572 0-20.051.742-28.66 10.211-2.493 2.742-4.131 5.928-4.865 9.412-35.126 13.678-58.415 47.279-58.62 85.35-7.896 2.516-13.632 9.92-13.632 18.64 0 10.781 8.77 19.553 19.551 19.557 5.197 26.166 21.843 47.859 44.289 60.04-25.628 6.675-49.454 19.438-69.44 37.511-30.353 27.448-49.457 64.877-53.792 105.394A8.004 8.004 0 0 0 16 470.338h314.459a7.997 7.997 0 0 0 7.954-8.851c-3.005-28.083-13.111-54.68-29.133-77.501.458.081.923.135 1.4.135h44.181a8 8 0 0 0 7.466-5.126l8.922-23.179a146.981 146.981 0 0 0 35.362-14.66l22.714 10.088a8 8 0 0 0 8.904-1.655l31.24-31.241a8 8 0 0 0 1.654-8.904l-10.092-22.722a147.076 147.076 0 0 0 14.656-35.35l23.186-8.925a8 8 0 0 0 5.126-7.466V190.8a7.998 7.998 0 0 0-5.125-7.465zm-342.48-46.989c2.663-2.93 9.576-4.974 16.823-4.974h.034c7.239 0 14.153 2.044 16.816 4.975.941 1.035 1.265 2.095 1.114 3.659-.009.095-.009.188-.015.282l-.015-.002-4.163 32.057c-.396 3.058-2.923 5.277-6.006 5.277h-15.504c-3.084 0-5.61-2.219-6.007-5.277l-4.163-32.057-.015.002c-.006-.094-.006-.188-.015-.282-.149-1.565.175-2.625 1.116-3.66zm-15.702 15.631 2.913 22.427c1.423 10.955 10.826 19.216 21.874 19.216h15.504c11.047 0 20.45-8.261 21.873-19.216l2.912-22.427c26.018 12.239 43.057 38.176 43.595 67.45H97.097c.538-29.274 17.577-55.211 43.595-67.45zm124.699 68.367a92.23 92.23 0 0 0-8.75-38.789c12.616-30.623 42.785-50.969 76.129-50.969 45.384 0 82.306 36.922 82.306 82.306 0 45.382-36.922 82.304-82.306 82.304-27.912 0-53.774-14.271-68.842-37.188 8.638-2.027 15.096-9.777 15.096-19.024 0-8.72-5.736-16.125-13.633-18.64zm-181.953 18.64c0-1.928 1.629-3.557 3.558-3.557h172.471c1.929 0 3.558 1.629 3.558 3.557s-1.629 3.557-3.558 3.557H86.996c-1.929 0-3.558-1.629-3.558-3.557zm19.935 19.557h139.715c-7.785 31.718-36.36 54.667-69.844 54.673H173.216c-33.484-.006-62.059-22.955-69.843-54.673zm69.858 70.673h.014c18.776.002 36.788 3.44 53.415 9.74l-53.43 53.43-53.431-53.43c16.627-6.299 34.641-9.738 53.417-9.74zM68.743 371.348a150.05 150.05 0 0 1 15.789-13.281c.004 15.093.01 30.181.02 45.264.012 16.992.02 33.993.023 51.007H68.743zm31.809 31.972c-.013-18.478-.023-36.957-.025-55.454a149.44 149.44 0 0 1 3.625-1.933l61.078 61.078v47.326h-64.655c-.003-17.016-.012-34.021-.023-51.017zm-47.809-13.769v64.787H25.165c4.023-24.143 13.704-46.169 27.578-64.787zm128.487 64.787v-47.326l61.078-61.078c40.95 21.153 71.027 60.642 78.988 108.404zm103.393-98.246a166.732 166.732 0 0 0-6.74-5.765 146.852 146.852 0 0 0 16.408 5.482l6.654 17.29a167.137 167.137 0 0 0-16.322-17.007zM488 229.489l-21.923 8.438a7.997 7.997 0 0 0-4.908 5.613 131.173 131.173 0 0 1-15.941 38.45 8.002 8.002 0 0 0-.499 7.441l9.543 21.487-23.472 23.473-21.479-9.539a7.993 7.993 0 0 0-7.442.5 131.095 131.095 0 0 1-38.459 15.943 8 8 0 0 0-5.614 4.909l-8.437 21.917h-33.194l-8.438-21.923a8 8 0 0 0-5.614-4.909 131.09 131.09 0 0 1-38.449-15.94 8.008 8.008 0 0 0-7.441-.499l-10.867 4.826a165.44 165.44 0 0 0-30.18-11.094c18.088-9.816 32.403-25.812 40.005-45.346 18.395 23.566 46.952 37.961 77.582 37.961 54.206 0 98.306-44.099 98.306-98.304 0-54.206-44.1-98.306-98.306-98.306-35.977 0-68.861 19.835-85.988 50.636a91.751 91.751 0 0 0-25.678-23.151 7.997 7.997 0 0 0-.292-5.723l-9.542-21.484 23.472-23.473 21.487 9.543a8 8 0 0 0 7.441-.5 131.106 131.106 0 0 1 38.449-15.94 8 8 0 0 0 5.614-4.909l8.439-21.924h33.194l8.438 21.923a8 8 0 0 0 5.614 4.909 131.133 131.133 0 0 1 38.449 15.94 8.003 8.003 0 0 0 7.441.5l21.487-9.543 23.473 23.472-9.54 21.478a8.003 8.003 0 0 0 .5 7.443 131.034 131.034 0 0 1 15.942 38.459 8 8 0 0 0 4.909 5.614L488 196.293zm-169.938 1.252-5.272 45.182a8.001 8.001 0 0 0 14.169 5.957l60.896-75.33a7.999 7.999 0 0 0-6.222-13.03H346.97l2.569-44.124a8.001 8.001 0 0 0-14.291-5.39l-57.645 73.81a8 8 0 0 0 6.304 12.924h34.155zm14.014-56.678-1.571 26.992a8.001 8.001 0 0 0 7.986 8.465h26.388l-32.994 40.814 3.112-26.666a7.997 7.997 0 0 0-7.947-8.927h-26.743z" fill="#ee4a62" opacity="1" data-original="#000000"></path></g></svg>