<svg xmlns="http://www.w3.org/2000/svg" version="1.1" xmlns:xlink="http://www.w3.org/1999/xlink" width="50" height="50" x="0" y="0" viewBox="0 0 512 512" style="enable-background:new 0 0 512 512" xml:space="preserve" class=""><g><path d="M162.494 145.2h19.592a74.935 74.935 0 0 0-.315 6.67c0 40.933 33.302 74.234 74.235 74.234s74.234-33.301 74.234-74.234a74.97 74.97 0 0 0-.315-6.67h19.582a7 7 0 0 0 7-7v-32.58a7 7 0 0 0-7-7h-9.638c-6.742-27.778-26.944-50.475-53.711-60.452v-4.051C286.158 20.268 274.891 9 261.042 9h-10.083c-13.849 0-25.116 11.268-25.116 25.117v4.05c-26.815 9.985-46.958 32.636-53.704 60.453h-9.644a7 7 0 0 0-7 7v32.58a6.998 6.998 0 0 0 6.999 7zm153.746 6.67c0 33.213-27.021 60.234-60.234 60.234s-60.235-27.021-60.235-60.234c0-2.232.133-4.46.376-6.67h119.716c.244 2.211.377 4.439.377 6.67zm-90.398-98.557v22.718a7 7 0 1 0 14 0V34.118c0-6.13 4.987-11.117 11.116-11.117h10.083c6.129 0 11.116 4.987 11.116 11.117v41.913a7 7 0 1 0 14 0V53.316c18.95 8.694 33.322 25.242 39.216 45.304H186.622c5.892-20.091 20.239-36.613 39.22-45.307zm-56.348 59.308h173.012v18.58H169.494zM503 289.847a7 7 0 0 1-7 7h-16.854a7 7 0 1 1 0-14H496a7 7 0 0 1 7 7zm-114.108-83.255v-16.854a7 7 0 1 1 14 0v16.854a7 7 0 1 1-14 0zm-46.92 137.174a6.999 6.999 0 0 1 0 9.899l-11.918 11.918a6.979 6.979 0 0 1-4.95 2.05 6.999 6.999 0 0 1-4.95-11.949l11.918-11.918a7.002 7.002 0 0 1 9.9 0zm107.839-107.839a6.999 6.999 0 0 1 0-9.899l11.918-11.918a7 7 0 0 1 9.899 9.899l-11.918 11.918c-1.367 1.367-3.158 2.05-4.95 2.05s-3.582-.684-4.949-2.05zm-130.173 53.919a7 7 0 0 1-7 7h-16.854a7 7 0 1 1 0-14h16.854a7 7 0 0 1 7 7zm10.416-75.737 11.918 11.918a6.999 6.999 0 0 1-4.95 11.949 6.981 6.981 0 0 1-4.95-2.05l-11.918-11.918c-2.734-2.733-2.734-7.166 0-9.899s7.167-2.733 9.9 0zm141.574 141.575a6.999 6.999 0 0 1-4.95 11.949 6.981 6.981 0 0 1-4.95-2.05l-11.918-11.918a7 7 0 0 1 9.899-9.899zm-16.313-65.837c0-32.766-26.658-59.424-59.424-59.424-27.634 0-50.922 18.961-57.54 44.556-24.543-15.817-52.781-24.129-82.346-24.129-84.075 0-152.475 68.395-152.475 152.464 0 28.228 28.925 49.715 81.446 60.503 21.889 4.496 46.416 6.763 71.015 6.763 20.589 0 41.229-1.589 60.402-4.789 32.037-5.346 56.78-14.634 72.498-26.922v50.129H48.487v-66.771c14.559-3.211 25.487-16.209 25.487-31.719V252.909a7 7 0 0 0-7-7h-9.035V139.588l11.039-13.562a6.998 6.998 0 0 0 1.445-5.74l-8.427-43.854a7 7 0 0 0-6.874-5.679h-27.27a7 7 0 0 0-6.874 5.679l-8.427 43.854a6.999 6.999 0 0 0 1.445 5.739l11.039 13.563v106.321H16a7 7 0 0 0-7 7V390.51c0 15.51 10.928 28.508 25.487 31.719V496a7 7 0 0 0 7 7h354.405a7 7 0 0 0 7-7v-72.542c.091-.154.19-.306.279-.461h4.604c8.368 0 15.176-6.808 15.176-15.176v-1.689h1.909c8.638 0 15.666-7.028 15.666-15.667V371.76c0-6.11-3.524-11.4-8.638-13.982 2.252-18.563 7.579-26.812 12.747-34.811 5.25-8.128 10.68-16.531 10.68-33.12zM37.463 132.681l-10.548-12.96 6.719-34.968h15.705l6.72 34.968L45.51 132.68a7.002 7.002 0 0 0-1.571 4.419v108.81h-4.904v-108.81c0-1.61-.556-3.17-1.572-4.418zm22.511 127.228v5.933H23v-5.933zM23 390.509V279.842h36.974v110.667c0 10.193-8.293 18.486-18.487 18.486S23 400.703 23 390.509zm291.089 61.474c-40.471 6.753-87.685 6.051-126.296-1.879-44.653-9.172-70.263-26.226-70.263-46.79 0-76.35 62.12-138.464 138.475-138.464 29.175 0 56.915 8.927 80.479 25.809.178 16.042 5.502 24.318 10.665 32.308 5.168 7.998 10.495 16.247 12.747 34.81-5.115 2.582-8.639 7.872-8.639 13.982v18.705c0 8.639 7.028 15.667 15.667 15.667h1.908v1.689c0 8.368 6.808 15.176 15.176 15.176h1.753c-12.407 12.999-37.576 23.297-71.672 28.987zm112.436-61.519a1.69 1.69 0 0 1-1.666 1.667h-8.909a7 7 0 0 0-7 7v8.689c0 .626-.549 1.176-1.176 1.176h-23.766c-.626 0-1.176-.549-1.176-1.176v-8.689a7 7 0 0 0-7-7h-8.908a1.689 1.689 0 0 1-1.667-1.667v-18.705a1.69 1.69 0 0 1 1.667-1.667h57.934c.903 0 1.666.763 1.666 1.667v18.705zm6.35-75.096c-5.491 8.498-12.207 18.903-14.88 40.725h-15.103v-52.448l18.981-10.958a7 7 0 1 0-7-12.124l-18.981 10.958-18.98-10.958a7 7 0 1 0-7 12.124l18.98 10.958v52.448h-15.103c-2.673-21.821-9.389-32.226-14.88-40.724-4.9-7.583-8.44-13.062-8.44-25.522 0-25.047 20.377-45.424 45.424-45.424s45.424 20.377 45.424 45.424c-.002 12.46-3.542 17.938-8.442 25.521zm-391.388 74.64a7 7 0 0 1-7-7v-77.179a7 7 0 1 1 14 0v77.179a7 7 0 0 1-7 7z" fill="#1ab69d" opacity="1" data-original="#000000"></path></g></svg>