<svg xmlns="http://www.w3.org/2000/svg" version="1.1" xmlns:xlink="http://www.w3.org/1999/xlink" width="50" height="50" x="0" y="0" viewBox="0 0 64 64" style="enable-background:new 0 0 512 512" xml:space="preserve" class=""><g><path d="M53 60H11c-1.654 0-3-1.346-3-3V31.002c0-1.654 1.346-3 3-3h42c1.654 0 3 1.346 3 3V57c0 1.654-1.346 3-3 3zM11 30.002a1 1 0 0 0-1 1V57a1 1 0 0 0 1 1h42a1 1 0 0 0 1-1V31.002a1 1 0 0 0-1-1z" fill="#ee4a62" opacity="1" data-original="#000000" class=""></path><path d="M53 64.002H11c-1.654 0-3-1.346-3-3V35.004a1 1 0 1 1 2 0v25.998a1 1 0 0 0 1 1h42a1 1 0 0 0 1-1V35.004a1 1 0 1 1 2 0v25.998c0 1.654-1.346 3-3 3zM24 30.002a1 1 0 0 1-1-1v-3a1 1 0 1 1 2 0v3a1 1 0 0 1-1 1zM27 30.002a1 1 0 0 1-1-1v-3a1 1 0 1 1 2 0v3a1 1 0 0 1-1 1zM37.001 30.002a1 1 0 0 1-1-1v-3a1 1 0 1 1 2 0v3a1 1 0 0 1-1 1zM40.001 30.002a1 1 0 0 1-1-1v-3a1 1 0 1 1 2 0v3a1 1 0 0 1-1 1z" fill="#ee4a62" opacity="1" data-original="#000000" class=""></path><path d="M40.001 27.002H24a1 1 0 1 1 0-2h16.001a1 1 0 1 1 0 2zM24 25.002a1 1 0 0 1-1-1c0-1.654 1.346-3 3-3a1 1 0 1 1 0 2 1 1 0 0 0-1 1 1 1 0 0 1-1 1zM40.001 25.002a1 1 0 0 1-1-1 1 1 0 0 0-1-1 1 1 0 1 1 0-2c1.654 0 3 1.346 3 3a1 1 0 0 1-1 1z" fill="#ee4a62" opacity="1" data-original="#000000" class=""></path><path d="M38.001 23.002H26a1 1 0 1 1 0-2h12.001a1 1 0 1 1 0 2zM24 27.002a1 1 0 0 1-1-1v-2a1 1 0 1 1 2 0v2a1 1 0 0 1-1 1zM40.001 27.002a1 1 0 0 1-1-1v-2a1 1 0 1 1 2 0v2a1 1 0 0 1-1 1zM32 53.994c-5.514 0-10-4.486-10-10s4.486-10 10-10 10 4.486 10 10-4.486 10-10 10zm0-18c-4.411 0-8 3.589-8 8s3.589 8 8 8 8-3.589 8-8-3.589-8-8-8z" fill="#ee4a62" opacity="1" data-original="#000000" class=""></path><path d="M32 47.984a1 1 0 0 1-1-1v-5.98a1 1 0 1 1 2 0v5.98a1 1 0 0 1-1 1z" fill="#ee4a62" opacity="1" data-original="#000000" class=""></path><path d="M34.99 44.994h-5.98a1 1 0 1 1 0-2h5.98a1 1 0 1 1 0 2zM32.018 20.002a.996.996 0 0 1-.707-.293L29.603 18H16.018a1 1 0 0 1-1-1V.998a1 1 0 0 1 1-1H48.02a1 1 0 0 1 1 1V17a1 1 0 0 1-1 1H34.432l-1.707 1.709a1.003 1.003 0 0 1-.707.293zm-15-4.002h12.999c.266 0 .52.105.707.293l1.294 1.294 1.293-1.294a.996.996 0 0 1 .707-.293H47.02V1.998H17.018z" fill="#ee4a62" opacity="1" data-original="#000000" class=""></path><path d="M21.019 12.998a1 1 0 0 1-1-1v-6a1 1 0 1 1 2 0v6a1 1 0 0 1-1 1z" fill="#ee4a62" opacity="1" data-original="#000000" class=""></path><path d="M24.019 6.998h-3a1 1 0 1 1 0-2h3a1 1 0 1 1 0 2zM23.019 10h-2a1 1 0 1 1 0-2h2a1 1 0 1 1 0 2zM27.019 12.998a1 1 0 0 1-1-1v-6a1 1 0 1 1 2 0v6a1 1 0 0 1-1 1z" fill="#ee4a62" opacity="1" data-original="#000000" class=""></path><path d="M30.02 12.998a1 1 0 0 1-.833-.445l-2-2.998a1 1 0 1 1 1.664-1.11l2 2.998a1 1 0 0 1-.831 1.555z" fill="#ee4a62" opacity="1" data-original="#000000" class=""></path><path d="M28.519 10a1 1 0 1 1 0-2 .501.501 0 0 0 0-1.002 1 1 0 1 1 0-2 2.502 2.502 0 0 1 0 5.002z" fill="#ee4a62" opacity="1" data-original="#000000" class=""></path><path d="M28.519 10h-1.5a1 1 0 1 1 0-2h1.5a1 1 0 1 1 0 2zM28.519 6.998h-1.5a1 1 0 1 1 0-2h1.5a1 1 0 1 1 0 2zM33.519 12.998a1 1 0 0 1-1-1v-6a1 1 0 1 1 2 0v6a1 1 0 0 1-1 1z" fill="#ee4a62" opacity="1" data-original="#000000" class=""></path><path d="M36.519 12.998h-3a1 1 0 1 1 0-2h3a1 1 0 1 1 0 2zM36.519 6.998h-3a1 1 0 1 1 0-2h3a1 1 0 1 1 0 2zM35.519 10h-2a1 1 0 1 1 0-2h2a1 1 0 1 1 0 2zM40.019 12.998a1 1 0 0 1-1-1v-6a1 1 0 1 1 2 0v6a1 1 0 0 1-1 1z" fill="#ee4a62" opacity="1" data-original="#000000" class=""></path><path d="M43.019 12.998h-3a1 1 0 1 1 0-2h3a1 1 0 1 1 0 2zM43.019 6.998h-3a1 1 0 1 1 0-2h3a1 1 0 1 1 0 2zM42.019 10h-2a1 1 0 1 1 0-2h2a1 1 0 1 1 0 2z" fill="#ee4a62" opacity="1" data-original="#000000" class=""></path></g></svg>