<svg xmlns="http://www.w3.org/2000/svg" version="1.1" xmlns:xlink="http://www.w3.org/1999/xlink" width="50" height="50" x="0" y="0" viewBox="0 0 512 512" style="enable-background:new 0 0 512 512" xml:space="preserve"><g><path d="m507.219 275.177-40.985-90.167A42.749 42.749 0 0 0 427.4 160H352v-32a32.035 32.035 0 0 0-32-32H53.333a32.035 32.035 0 0 0-32 32v128a10.667 10.667 0 1 0 21.333 0V128a10.679 10.679 0 0 1 10.667-10.667H320A10.679 10.679 0 0 1 330.667 128v170.667A10.681 10.681 0 0 1 320 309.333H192a10.667 10.667 0 0 0 0 21.333h128a32.035 32.035 0 0 0 32-32V181.333h75.4a21.381 21.381 0 0 1 19.422 12.505l4.013 8.828h-45.5A21.356 21.356 0 0 0 384 224v42.667A21.354 21.354 0 0 0 405.333 288h83.8a31.657 31.657 0 0 1 1.538 9.24v44.094A10.681 10.681 0 0 1 480 352h-33.078a53.333 53.333 0 0 0-104.51 0H169.589a53.333 53.333 0 0 0-104.51 0H53.333a10.681 10.681 0 0 1-10.667-10.667v-10.666a10.667 10.667 0 0 0 0-21.333h-32a10.667 10.667 0 0 0 0 21.333h10.667v10.667a32.035 32.035 0 0 0 32 32h11.745a53.333 53.333 0 0 0 104.51 0h172.823a53.333 53.333 0 0 0 104.51 0H480a32.035 32.035 0 0 0 32-32V297.24a52.9 52.9 0 0 0-4.781-22.063Zm-389.886 119.49a32 32 0 1 1 32-32 32.035 32.035 0 0 1-32 32Zm277.333 0a32 32 0 1 1 32-32 32.035 32.035 0 0 1-31.999 32ZM405.333 224h55.194l19.394 42.667h-74.588Z" fill="#8e56ff" opacity="1" data-original="#000000"></path><path d="M184.224 197.333a26.7 26.7 0 0 0-26.667-26.667h-21.333a10.667 10.667 0 0 0-10.667 10.667v64a10.667 10.667 0 1 0 21.333 0v-12.755l17.31 19.779a10.665 10.665 0 1 0 16.05-14.047l-13.839-15.82a26.715 26.715 0 0 0 17.813-25.157Zm-26.667 5.333h-10.666V192h10.667a5.333 5.333 0 0 1 0 10.667ZM106.667 192a10.667 10.667 0 0 0 0-21.333h-32A10.667 10.667 0 0 0 64 181.333v64a10.667 10.667 0 1 0 21.333 0V224h16a10.667 10.667 0 1 0 0-21.333h-16V192ZM298.667 192a10.667 10.667 0 0 0 0-21.333h-32A10.667 10.667 0 0 0 256 181.333v64A10.667 10.667 0 0 0 266.667 256h32a10.667 10.667 0 0 0 0-21.333h-21.334V224h15.76a10.667 10.667 0 1 0 0-21.333h-15.76V192ZM237.333 192a10.667 10.667 0 1 0 0-21.333h-32a10.667 10.667 0 0 0-10.667 10.667v64A10.667 10.667 0 0 0 205.333 256h32a10.667 10.667 0 1 0 0-21.333H216V224h15.766a10.667 10.667 0 1 0 0-21.333H216V192ZM10.667 298.667H64a10.667 10.667 0 0 0 0-21.333H10.667a10.667 10.667 0 0 0 0 21.333Z" fill="#8e56ff" opacity="1" data-original="#000000"></path></g></svg>