<svg xmlns="http://www.w3.org/2000/svg" version="1.1" xmlns:xlink="http://www.w3.org/1999/xlink" width="50" height="50" x="0" y="0" viewBox="0 0 128 128" style="enable-background:new 0 0 512 512" xml:space="preserve" class=""><g><path d="M119.419 54.909 105 40.399V22.981a2 2 0 0 0-2-2h-8a2 2 0 0 0-2 2v5.342L65.418.567a2.059 2.059 0 0 0-2.838 0L8.581 54.909A2 2 0 0 0 8 56.319v11.67a2 2 0 0 0 3.419 1.41L18 62.776v39.7a5.476 5.476 0 0 0 5.419 5.52H74a2 2 0 0 0 2-2v-17.1a10.917 10.917 0 0 0-10.903-10.905h-2.194A10.917 10.917 0 0 0 52 88.896v15.1H23.419a1.474 1.474 0 0 1-1.419-1.52V58.751l41.999-42.267L105 57.744v47.252a1.994 1.994 0 0 0 3.723 1h3.204L99 122.728l-12.927-16.732H91a2 2 0 0 0 2-2V83.992a2 2 0 1 0-4 0v18.003h-7a2 2 0 0 0-1.583 3.223l17 22.004a2 2 0 0 0 3.166 0l17-22.004a2 2 0 0 0-1.583-3.223h-7V61.77l7.581 7.629a2 2 0 0 0 3.419-1.41v-11.67a2 2 0 0 0-.581-1.41ZM56 88.896a6.912 6.912 0 0 1 6.903-6.904h2.194A6.912 6.912 0 0 1 72 88.896v15.1H56Zm41-63.915h4v11.393l-4-4.026Zm19 38.158L65.418 12.237a2 2 0 0 0-2.838 0L12 63.14v-5.995l51.999-52.33L116 57.144Z" fill="#1ab69d" opacity="1" data-original="#000000" class=""></path><path d="M69 46.985a2 2 0 0 0 0-4h-2v-2a2 2 0 1 0-4 0v2h-1a4.005 4.005 0 0 0-4 4v3a4.005 4.005 0 0 0 4 4.001h5v3.001h-7a2 2 0 0 0 0 4h2v2.001a2 2 0 1 0 4 0v-2h1a4.005 4.005 0 0 0 4-4.001v-3a4.005 4.005 0 0 0-4-4.001h-5v-3ZM49 56.987a2 2 0 0 0 0-4h-2v-2.001a2 2 0 1 0-4 0v2h-1a4.005 4.005 0 0 0-4 4.001v3a4.005 4.005 0 0 0 4 4.001h5v3h-7a2 2 0 0 0 0 4.002h2v2a2 2 0 1 0 4 0v-2h1a4.005 4.005 0 0 0 4-4.001v-3a4.005 4.005 0 0 0-4-4.001h-5v-3.001ZM82 72.99a2 2 0 1 0 4 0v-2h1a4.005 4.005 0 0 0 4-4.001v-3a4.005 4.005 0 0 0-4-4.001h-5v-3.001h7a2 2 0 0 0 0-4h-2v-2.001a2 2 0 1 0-4 0v2h-1a4.005 4.005 0 0 0-4 4.001v3a4.005 4.005 0 0 0 4 4.001h5v3h-7a2 2 0 0 0 0 4.002h2Z" fill="#1ab69d" opacity="1" data-original="#000000" class=""></path></g></svg>