<svg xmlns="http://www.w3.org/2000/svg" version="1.1" xmlns:xlink="http://www.w3.org/1999/xlink" width="50" height="50" x="0" y="0" viewBox="0 0 500 500" style="enable-background:new 0 0 512 512" xml:space="preserve" class=""><g><path fill-rule="evenodd" d="M417.834 315.489c-4.424 4.424-11.661 4.413-16.057 0-4.39-4.424-4.39-11.609 0-16.034 7.057-7.062 19.349-2.147 19.349 8.017 0 3.027-1.155 5.875-3.292 8.017zm-25.761-25.725c-9.761 9.767-9.76 25.651.001 35.412 9.768 9.767 25.624 9.831 35.406-.001 9.884-9.934 9.845-25.573-.001-35.412-9.761-9.76-25.645-9.766-35.406.001zm48.981 48.984c8.375-8.352 12.995-19.459 12.995-31.276-.001-30.368-30.281-51.908-59.146-41.66-2.541.895-5.314.266-7.162-1.611l-14.44-14.405c-1.276 1.821-18.136 18.371-21.081 21.314l14.324 14.301a6.963 6.963 0 0 1 1.617 7.156c-5.775 16.034-1.674 34.158 10.34 46.183 17.272 17.267 45.323 17.325 62.553-.002zm-133.02-52.014c-4.563 1.6-11.841 3.044-19.58 4.575-19.696 3.899-33.096 6.972-38.929 13.817l-80.802 94.357c-27.655-2.272-50.866-21.605-57.875-48.597l72.601-89.378c17.154-21.088 28.301-35.748 27.492-46.918-1.155-16.005 4.216-30.381 15.536-41.581l24.027-23.739c10.881-10.755 15.014-7.294 17.039-5.245l46.497 46.46c-4.736 4.251-9.53 6.435-14.555 6.637-9.646.376-21.198-6.336-35.291-20.556-5.012-5.101-13.529.126-11.436 6.874 8.78 27.989 4.622 49.99-12.763 67.254-4.394 4.342-1.226 11.719 4.794 11.719 1.79 0 3.523-.664 4.852-1.993 16.461-16.34 23.391-36.574 20.734-60.318 11.094 8.02 20.891 11.387 31.074 10.621-2.732 21.153 19.984 35.729 38.006 25.338 2.044 6.289 7.724 12.11 13.862 14.578l-20.619 20.62c-7.279 7.302-14.903 12.073-24.664 15.475zm-68.674 51.309-51.519 60.209c28.587-6.107 49.91-30.706 51.519-60.209zm-81.21-67.125c-28.299 7.04-48.174 32.049-49.324 60.757zm143.474 50.425-4.737-17.743c-10.509 2.167-33.221 6.086-36.965 10.449l-7.566 8.837c3.582 24.698-4.619 49.678-22.351 67.405-30.858 30.848-80.97 30.846-111.821.003-30.844-30.842-30.845-81.023-.003-111.873 14.151-14.157 32.748-22.278 52.618-23.082 9.277-11.372 26.928-32.703 26.453-39.75a108.73 108.73 0 0 1-.173-6.117l-9.992-2.668-17.442 26.852c-1.097 1.756-3.003 2.888-5.083 3.09-10.801 1.051-21.255 3.841-31.074 8.312a6.844 6.844 0 0 1-5.949-.139l-28.475-14.526-28.938 28.917 14.556 28.498a6.927 6.927 0 0 1 .116 5.949c-4.447 9.831-7.277 20.285-8.317 31.092-.173 2.074-1.328 3.945-3.061 5.089l-26.857 17.444 10.571 39.483 31.941 1.674a6.83 6.83 0 0 1 5.198 2.847c6.401 8.952 13.882 16.34 22.815 22.768a6.926 6.926 0 0 1 2.831 5.221l1.676 31.958 39.507 10.58 17.442-26.864c1.098-1.744 3.003-2.888 5.083-3.09a97.466 97.466 0 0 0 31.074-8.301 6.847 6.847 0 0 1 5.949.133l28.475 14.52 28.936-28.903-14.498-28.498a6.734 6.734 0 0 1-.174-5.949c4.505-9.837 7.277-20.302 8.317-31.098.173-2.074 1.328-3.951 3.119-5.095zm-83.119-183.942 12.187 12.164 10.165-10.045c4.621-4.615 8.952-7.578 12.822-9.34l-13.978-13.983c-5.256-5.279-7.682-12.262-6.701-19.667l3.523-28.389c.404-3.206-.578-5.99-2.83-8.271L214.228 40.4c-2.08-2.073-4.505-3.038-7.451-2.905l-24.432.988 25.992 26.02a6.92 6.92 0 0 1 2.022 5.071L209.32 100.4c-.115 3.61-3.003 6.504-6.584 6.625l-30.843 1.017a6.818 6.818 0 0 1-5.083-2.004l-25.992-26.02-.981 24.444c-.115 2.923.809 5.354 2.888 7.427l19.465 19.476c2.31 2.276 5.083 3.24 8.259 2.836l28.417-3.547c7.393-.934 14.382 1.474 19.639 6.747zm81.265-18.843L280.595 137.7l16.75 16.709 19.118-19.142c4.62-4.604 4.62-12.101 0-16.71-4.621-4.597-12.13-4.602-16.693.001zm43.089 26.407c-4.621-4.603-12.13-4.603-16.692 0l-19.175 19.13 16.75 16.721 19.118-19.142c4.614-4.636 4.626-12.022-.001-16.709zm9.704 26.407-25.124 25.137-.058-.046c-.751.82-1.502 1.6-2.253 2.351l-7.566 7.647c-3.812 4.661-3.465 11.587.751 15.843 4.621 4.598 12.13 4.609 16.75-.012l9.819-9.808v-.017l24.373-24.386c4.621-4.609 4.62-12.101 0-16.71s-12.071-4.609-16.692.001zm36.678 43.63c3.754-3.795 3.754-9.958 0-13.741-3.812-3.783-9.992-3.783-13.747-.011l-20.908 20.926a9.113 9.113 0 0 0 0 12.921l.808.809c3.524 3.564 9.357 3.564 12.938 0zm61.514 51.49c-14.671-14.705-36.388-20.336-56.257-14.912l-11.263-11.234 15.652-15.653c13.729-13.695 5.704-36.864-12.997-39.714 3.331-16.209-9.225-31.348-25.935-30.744.058-.3.058-.601.058-.913 0-14.491-11.993-26.051-26.396-25.483.231-6.839-2.253-13.758-7.451-18.968-9.992-9.952-26.165-9.951-36.099.001l-19.175 19.13-21.487-21.497c-2.253-2.287-3.234-5.065-2.83-8.271l3.522-28.388c.924-7.405-1.444-14.388-6.7-19.667l-19.523-19.476c-4.794-4.788-10.859-7.185-17.674-6.913l-40.085 1.624c-5.917.24-8.747 7.488-4.562 11.69l35.003 34.99-.692 21.44-21.429.705-35.003-34.99c-4.29-4.25-11.482-1.292-11.725 4.575l-1.616 40.079c-.231 6.775 2.137 12.886 6.932 17.686l19.465 19.47c5.314 5.285 12.245 7.676 19.638 6.746l28.417-3.547c3.235-.404 6.007.554 8.26 2.842l12.129 12.112-4.101 4.06c-9.357 9.265-15.479 20.262-18.193 32.426l-10.743-2.876a9.774 9.774 0 0 0-10.743 4.136l-17.211 26.517a111.243 111.243 0 0 0-29.052 7.764l-28.129-14.341a9.752 9.752 0 0 0-11.378 1.808L58.46 251.612c-3.061 3.027-3.754 7.607-1.848 11.402l14.383 28.145c-3.927 9.276-6.526 19.02-7.797 29.047l-26.511 17.213c-3.581 2.316-5.198 6.642-4.1 10.778l12.015 44.959c1.097 4.112 4.736 7.029 8.953 7.254l31.594 1.657c6.062 8.043 13.263 15.156 21.256 21.26l1.618 31.559a9.837 9.837 0 0 0 7.278 8.958l44.994 12.048c4.021 1.098 8.395-.523 10.743-4.13l17.211-26.518a111.243 111.243 0 0 0 29.052-7.764l28.129 14.335c3.812 1.935 8.375 1.213 11.436-1.802l32.864-32.918c3.061-3.015 3.754-7.595 1.848-11.39l-14.383-28.134c3.927-9.293 6.526-19.038 7.797-29.064l26.511-17.213c3.581-2.322 5.256-6.642 4.101-10.766l-5.372-20.1a47.264 47.264 0 0 0 2.31-.751c11.667-4.061 21.139-10.01 29.861-18.72l.116-.145 11.379 11.361c-5.429 19.898.232 41.569 14.903 56.274 22.603 22.604 59.261 22.698 81.96-.002 22.686-22.69 22.634-59.374-.006-81.953z" clip-rule="evenodd" fill="#4664e4" opacity="1" data-original="#000000"></path></g></svg>