<svg xmlns="http://www.w3.org/2000/svg" version="1.1" xmlns:xlink="http://www.w3.org/1999/xlink" width="44" height="44" x="0" y="0" viewBox="0 0 18062 18062" style="enable-background:new 0 0 512 512" xml:space="preserve" fill-rule="evenodd"><g><path d="M6211 14360c-477 0-865-388-865-865s388-865 865-865c637 0 1045 666 785 1228l423 430c56 57 87 135 87 215v2149h1218v-2047c-326-124-558-439-558-809 0-476 388-865 865-865s865 389 865 865c0 370-232 685-558 809v2047h1218v-2149c0-80 31-158 88-215l422-430c-260-562 148-1228 785-1228 477 0 866 388 866 865 0 630-653 1039-1213 792l-335 341v2024h1772l355-4962H4766l355 4962h1772v-2024l-335-341c-106 47-224 73-347 73zm-4178 249c-206-113-345-252-430-426-214-440 0-924 326-1559 874-1706 2312-4718 4006-4943-20-90-33-206-7-303 40-151 1008-3715 3025-4243 51-14 105-14 156 0 2018 528 2985 4092 3026 4243 25 97 12 213-8 303 1694 224 3132 3237 4006 4943 326 635 540 1119 326 1559-84 174-223 313-430 426h1413c169 0 307 137 307 307 0 169-138 307-307 307h-3784l-102 1429h560c169 0 306 137 306 307 0 169-137 306-306 306H3946c-169 0-306-137-306-306 0-170 137-307 306-307h560l-102-1429H620c-169 0-306-138-306-307 0-170 137-307 306-307zm2403-3533h9190c178 0 315 156 306 329l-225 3133 1409-273c597-116 752-269 791-350 116-238-272-918-477-1320-710-1400-2189-4314-3500-4314-81 0-162 12-241 35-140 132-561 521-1018 915-1022 878-1466 1140-1699 1094-185-36-532-193-1581-1094-457-394-878-784-1018-915-80-23-159-35-241-35-1384 0-2927 3198-3657 4622-220 429-409 829-320 1012 39 81 195 234 792 350l1408 273-225-3133c-12-177 128-329 306-329zm6859-3231c17-20 38-37 62-53-1 0 173-127 176-287-5-19-13-46-23-81-126-35-335-86-598-137-174 789-951 1386-1881 1386-928 0-1705-596-1880-1383-264 51-474 101-599 136-10 33-18 61-23 79 3 160 175 286 177 287 51 35 558 520 1079 968 793 682 1124 882 1246 940 477-229 1788-1409 2264-1855zm-16-1108c-373-1001-1136-2631-2248-2986-1113 356-1876 1988-2249 2990 717-158 1495-261 2257-261 836 0 1681 134 2240 257zm-973 450c-888-123-1659-121-2549 2 128 497 651 870 1274 870 625 0 1148-374 1275-872zm416 3340c-281 0-422-363-192-547 365-290 776-650 1258-1099 123-116 318-109 433 15 116 124 109 318-15 433-493 461-916 831-1293 1131-57 45-124 67-191 67zm-3381 0c-67 0-135-22-191-67-377-300-801-670-1294-1131-124-115-130-309-15-433 116-124 310-131 434-15 481 449 893 809 1257 1099 230 184 90 547-191 547zm1689 3521c139-2 253-111 253-252 0-138-113-251-252-251s-251 113-251 251c0 139 112 252 250 252zm3766-11187h-557c-170 0-307-138-307-307 0-170 137-307 307-307h557c169 0 307 137 307 307 0 169-138 307-307 307zm113-913c-78 0-157-30-217-90l-394-394c-120-120-120-314 0-434s314-120 434 0l394 394c196 196 48 524-217 524zm-394 2220c-265 0-413-328-217-524l394-394c120-120 314-120 434 0s120 314 0 434l-394 394c-60 60-138 90-217 90zM5824 2861h-558c-169 0-306-138-306-307 0-170 137-307 306-307h558c169 0 306 137 306 307 0 169-137 307-306 307zm-671-913c-265 0-412-328-217-524l394-394c120-120 314-120 434 0s120 314 0 434l-394 394c-60 60-138 90-217 90zm394 2220c-78 0-157-30-217-90l-394-394c-120-120-120-314 0-434s314-120 434 0l394 394c196 196 48 524-217 524zM4397 6708H307c-170 0-307-137-307-306V3411c0-169 137-307 307-307h370v-633c0-923 751-1674 1675-1674 850 0 1566 637 1664 1482 19 168-102 320-270 340-168 19-320-101-340-270-62-535-515-939-1054-939-585 0-1061 476-1061 1061v633h3106c170 0 307 138 307 307v2991c0 169-137 306-307 306zM613 6095h3477V3718H613zm1739-638c-169 0-307-137-307-307v-488c0-169 138-306 307-306s307 137 307 306v488c0 170-138 307-307 307zm15403 1251h-4090c-169 0-307-137-307-306V3411c0-169 138-307 307-307h3107v-633c0-585-477-1061-1062-1061-539 0-992 404-1054 939-19 169-171 289-340 270-168-20-289-172-269-340 98-845 813-1482 1663-1482 924 0 1675 751 1675 1674v633h370c170 0 307 138 307 307v2991c0 169-137 306-307 306zm-3783-613h3477V3718h-3477zm1738-638c-169 0-306-137-306-307v-488c0-169 137-306 306-306 170 0 307 137 307 306v488c0 170-137 307-307 307zm-3859 7787c-138 0-251 112-251 251s113 252 251 252c139 0 252-113 252-252s-113-251-252-251zm-5640 0c-139 0-252 112-252 251s113 252 252 252c138 0 251-113 251-252s-113-251-251-251z" fill="#ffffff" opacity="1" data-original="#000000"></path></g></svg>