<svg xmlns="http://www.w3.org/2000/svg" version="1.1" xmlns:xlink="http://www.w3.org/1999/xlink" width="512" height="512" x="0" y="0" viewBox="0 0 512 512" style="enable-background:new 0 0 512 512" xml:space="preserve" class=""><g><path fill-rule="evenodd" d="M432.961 406.005a2.74 2.74 0 0 0 1.154-2.015V349.4a2.74 2.74 0 0 0-1.154-2.016 6.687 6.687 0 0 0-4.222-1.36h-72.752a6.687 6.687 0 0 0-4.222 1.36 2.74 2.74 0 0 0-1.154 2.016v54.59a2.74 2.74 0 0 0 1.154 2.015 6.687 6.687 0 0 0 4.222 1.361h72.752a6.687 6.687 0 0 0 4.222-1.361zm-22.55-70.973v-2.716a18.048 18.048 0 0 0-36.1 0v2.716zm-47.086 0v-2.716a29.038 29.038 0 0 1 58.076 0v2.716h7.338a17.678 17.678 0 0 1 11.134 3.851 13.545 13.545 0 0 1 5.232 10.515v54.592a13.543 13.543 0 0 1-5.232 10.514 17.672 17.672 0 0 1-11.134 3.851h-72.752a17.672 17.672 0 0 1-11.134-3.851 13.543 13.543 0 0 1-5.232-10.514V349.4a13.543 13.543 0 0 1 5.232-10.515 17.678 17.678 0 0 1 11.134-3.851zm-37.072 103.829a127.515 127.515 0 0 1-26.468-77.42v-61.549l92.578-26.68 92.577 26.68v61.549a127.514 127.514 0 0 1-26.467 77.42 124.705 124.705 0 0 1-66.11 44.5 124.705 124.705 0 0 1-66.11-44.495zm-25.114-20.714H122.4V428.5c0 5.4 10.6 7.5 14.551 7.5h173.908a139.659 139.659 0 0 1-9.72-17.858zM286.3 139.224a204.986 204.986 0 0 0-25.73-6.642 168.519 168.519 0 0 0-31.057-2.956 187.925 187.925 0 0 0-31.986 2.719 184 184 0 0 0-24.8 6.065v26.839c0 19.712 8.039 28.121 19.511 40.119 2.957 3.094 6.118 6.4 9.232 9.918 8.882 7.826 18.87 12.056 28.69 12.089 9.328.032 18.671-3.726 26.939-11.792 3.388-3.875 6.53-7.183 9.481-10.289 11.405-12 19.72-20.756 19.72-40.045zm3.149-29.352a5.482 5.482 0 1 1 9.487-5.5c1.791 3.081 2.423 6.6-1.27 8.739s-6.427-.166-8.217-3.244zm-50.022-57.245a5.482 5.482 0 0 1 5.109-9.7c7.9 4.156 15.54 10.362 22.816 17.933a202.754 202.754 0 0 1 22.723 29.172 5.489 5.489 0 0 1-9.187 6.01 192.149 192.149 0 0 0-21.434-27.584c-6.5-6.759-13.212-12.246-20.027-15.83zm-13.093 257.289c41.071-45.109 82.58-91.756 121.128-139.011 3.106-3.759 1.775-4.878-.139-9.6-8.646-21.327-23.29-53.659-41.272-80.338-12.078-17.918-25.579-33.2-39.563-40.558-10.667-5.61-23.787-8.741-36.979-11.8-13.193 3.058-26.313 6.19-36.979 11.8-13.985 7.355-27.486 22.64-39.563 40.558-17.983 26.679-32.627 59.011-41.273 80.338-2.653 6.544-2.406 6.845-.716 8.9 8.221 9.952 16.292 20.081 24.4 30.13 28.815 35.722 65.666 81.408 90.958 109.579zM230.985 17.7c14.215 3.291 28.426 6.6 40.615 13.01 15.805 8.311 30.583 24.874 43.555 44.121 18.51 27.46 33.508 60.553 42.346 82.355 4.087 10.08 5.72 11.734-1.535 20.631-4.586 5.621-9.93 12.041-15.812 19.013 4.046 3.025 8.132 6.18 12.316 9.651a242.448 242.448 0 0 1 17.832 16.341 238.342 238.342 0 0 1 15.217 16.911c3.267 4 16.691 20.432 16.355 24.836l90.068 25.956a5.473 5.473 0 0 1 3.968 5.259l.024 65.657a138.557 138.557 0 0 1-28.786 84.117 135.625 135.625 0 0 1-73.407 48.77 5.456 5.456 0 0 1-2.869-.033 135.577 135.577 0 0 1-72.165-47.3H136.946a31.9 31.9 0 0 1-17.141-4.719c-4.579-2.97-7.623-7.112-8.27-11.865-.793-.61-1.578-1.245-2.361-1.868a718.163 718.163 0 0 1-15.667-2.216c-7.277-1.119-14.267-2.348-20.827-3.738a218.727 218.727 0 0 1-24.936-6.743 113.3 113.3 0 0 1-19.444-8.417c-5.527-3.168-9.212-6.315-11.1-12.324-1.628-5.183-1.5-12.165.395-23.222a369.331 369.331 0 0 1 11.121-44.514 335.859 335.859 0 0 1 15.608-41.134A220.83 220.83 0 0 1 66.15 249.26a231.951 231.951 0 0 1 22.558-26.43 242.886 242.886 0 0 1 17.842-16.353c4.1-3.4 8.1-6.491 12.064-9.458a4937.274 4937.274 0 0 0-15.559-19.2c-6.947-8.522-6.117-9.329-1.535-20.631 8.838-21.8 23.836-54.9 42.346-82.355 12.972-19.247 27.751-35.81 43.555-44.121 12.565-6.609 27.085-9.885 40.835-13.069a5.484 5.484 0 0 1 2.729.057zm-5.021 263.056c25.15-30.214 63.716-68.063 76.878-103.986 5-13.632 4.609-25.381-5.557-32.569v21.05c0 23.637-9.6 33.741-22.768 47.6-2.992 3.149-6.182 6.506-9.35 10.138a49.159 49.159 0 0 1-35.012 15.334c-12.674-.043-25.3-5.314-36.238-15.057-3.233-3.233-6.414-6.982-9.626-10.341-13.263-13.873-22.559-23.6-22.559-47.675v-22.51c-13.253 7.406-13.948 20.915-8.18 36.657 12.894 35.191 48.15 71.81 72.412 101.357zm67.984-150.529c-8.233-3.509-22.425-6.743-31.366-8.418a179.538 179.538 0 0 0-33.074-3.171 198.763 198.763 0 0 0-33.832 2.891c-8.115 1.4-23.444 4.634-30.72 7.937-26.515 9.226-30.9 28.617-21.706 53.71 15.021 41 52.043 75.253 78.28 109.6a5.494 5.494 0 0 0 8.835 0c27.095-35.456 67.223-69.774 82.78-112.233 8.193-22.36 5.373-41.188-19.2-50.321zm-2.472 258.013c-7.414-.266-17.909 1.32-28.278 4.055a123.886 123.886 0 0 0-19.261 6.687q5.106 3.765 10.218 8.177h42.553a138.4 138.4 0 0 1-5.232-18.919zm-70.652-2.991a88.71 88.71 0 0 0-34.072-8.149c-6.921-7.029-23.852-14.3-42.473-20.007q-2.571-.788-5.189-1.541l.726-31.936a5.474 5.474 0 1 0-10.946-.215l-.748 29.2c-18.633-4.68-36.806-7.544-46.193-6.716a5.494 5.494 0 0 0 .944 10.947c4.906-.433 12.682.317 21.785 1.9-5.993 3.02-10.925 6.671-13.3 9.631a5.481 5.481 0 0 0 8.543 6.868c2.283-2.84 8.663-6.839 16.108-9.406a38.7 38.7 0 0 1 10.911-2.235c4.73 1.218 9.5 2.557 14.144 3.981 16.911 5.184 31.923 11.262 37.147 16.354l-5.357 23.238h-51.979a10.791 10.791 0 0 0-5.791 1.659 7.564 7.564 0 0 0-3.679 6.414v2.526a714.769 714.769 0 0 1-16.266-2.291c-7.195-1.106-13.989-2.3-20.183-3.609a207.91 207.91 0 0 1-23.692-6.4 102.289 102.289 0 0 1-17.509-7.562c-3.193-1.831-5.264-3.464-6.079-6.058-1.074-3.421-.849-8.869.739-18.113a357.958 357.958 0 0 1 10.777-43.1 325.575 325.575 0 0 1 15.05-39.759 209.944 209.944 0 0 1 20.751-35.17 221.5 221.5 0 0 1 21.528-25.142c6.077-6.145 11.684-11.192 17.027-15.623 4.129-3.425 8.079-6.476 11.956-9.376 30.944 38.361 62.205 78.141 95.32 114.578v65.111zm-5.042 9.768a78.394 78.394 0 0 0-27.292-6.885l-4.39 19.025h52.46q-2.958-2.142-5.907-4.045a142.985 142.985 0 0 0-14.874-8.1zm16.032-74.874c34.373-37.621 68.2-76.111 101.233-114.929 4.027 3 8.128 6.164 12.422 9.725a231.84 231.84 0 0 1 17.016 15.612c4.736 4.788 9.667 10.141 14.53 16.1a209.644 209.644 0 0 1 11.954 16.163l-95.675 27.572a5.5 5.5 0 0 0-4.5 5.4v65.657a135.118 135.118 0 0 0 .93 15.809c-8.259.025-18.935 1.7-29.318 4.44-9.861 2.6-19.593 6.193-26.9 10.276q-.849-.516-1.7-1.015z" fill="#ffffff" opacity="1" data-original="#000000"></path></g></svg>