<svg xmlns="http://www.w3.org/2000/svg" version="1.1" xmlns:xlink="http://www.w3.org/1999/xlink" width="512" height="512" x="0" y="0" viewBox="0 0 512 512" style="enable-background:new 0 0 512 512" xml:space="preserve" class=""><g><path d="M58.19 332.772c-9.253-23.81-14.324-49.7-14.324-76.772s5.071-52.963 14.324-76.772M179.228 58.19c23.81-9.253 49.7-14.324 76.772-14.324s52.963 5.071 76.772 14.324M453.81 179.228c9.253 23.81 14.324 49.7 14.324 76.772s-5.071 52.963-14.324 76.772M332.772 453.81c-23.81 9.253-49.7 14.324-76.772 14.324s-52.963-5.071-76.772-14.324" style="stroke-width:15;stroke-linecap:round;stroke-linejoin:round;stroke-miterlimit:10;" fill="none" stroke="#ffffff" stroke-width="15" stroke-linecap="round" stroke-linejoin="round" stroke-miterlimit="10" data-original="#000000" opacity="1"></path><circle cx="256" cy="256" r="138.392" style="stroke-width:15;stroke-linecap:round;stroke-linejoin:round;stroke-miterlimit:10;" fill="none" stroke="#ffffff" stroke-width="15" stroke-linecap="round" stroke-linejoin="round" stroke-miterlimit="10" data-original="#000000" opacity="1"></circle><path d="M156.327 160.075c25.193 26.173 60.569 42.477 99.673 42.477s74.479-16.304 99.673-42.477M355.673 351.925c-25.193-26.173-60.569-42.477-99.673-42.477s-74.479 16.304-99.673 42.477" style="stroke-width:15;stroke-linecap:round;stroke-linejoin:round;stroke-miterlimit:10;" fill="none" stroke="#ffffff" stroke-width="15" stroke-linecap="round" stroke-linejoin="round" stroke-miterlimit="10" data-original="#000000" opacity="1"></path><ellipse cx="256" cy="256" rx="80.813" ry="138.392" style="stroke-width:15;stroke-linecap:round;stroke-linejoin:round;stroke-miterlimit:10;" fill="none" stroke="#ffffff" stroke-width="15" stroke-linecap="round" stroke-linejoin="round" stroke-miterlimit="10" data-original="#000000" opacity="1"></ellipse><path d="M89.55 138.96h35.25c7.82 0 14.16-6.34 14.16-14.16V54.01c0-7.82-6.34-14.16-14.16-14.16H21.65c-7.81 0-14.15 6.34-14.15 14.16v70.79c0 7.82 6.34 14.16 14.15 14.16h32.8" style="stroke-width:15;stroke-linecap:round;stroke-linejoin:round;stroke-miterlimit:10;" fill="none" stroke="#ffffff" stroke-width="15" stroke-linecap="round" stroke-linejoin="round" stroke-miterlimit="10" data-original="#000000" opacity="1"></path><path d="M138.956 74.235c0 7.817-6.337 14.154-14.154 14.154H21.654c-7.817 0-14.154-6.337-14.154-14.154M106.604 88.389v18.198M39.852 88.389v18.198M45.927 39.852v-22.25c0-5.579 4.523-10.102 10.102-10.102h34.399c5.579 0 10.102 4.523 10.102 10.102v22.251M442.81 504.5h47.54c7.81 0 14.15-6.34 14.15-14.15v-70.8c0-7.82-6.34-14.15-14.15-14.15H387.2c-7.82 0-14.16 6.33-14.16 14.15v70.8c0 7.81 6.34 14.15 14.16 14.15h20.51" style="stroke-width:15;stroke-linecap:round;stroke-linejoin:round;stroke-miterlimit:10;" fill="none" stroke="#ffffff" stroke-width="15" stroke-linecap="round" stroke-linejoin="round" stroke-miterlimit="10" data-original="#000000" opacity="1"></path><path d="M504.5 439.779c0 7.817-6.337 14.154-14.154 14.154H387.198c-7.817 0-14.154-6.337-14.154-14.154M472.148 453.933v18.198M405.396 453.933v18.198M411.471 405.396v-22.251c0-5.579 4.523-10.102 10.102-10.102h34.399c5.579 0 10.102 4.523 10.102 10.102v22.251M256 117.608v276.784M394.392 256H117.608M493.84 115.55c6.76-10.84 10.66-23.63 10.66-37.34 0-39.05-31.66-70.71-70.71-70.71s-70.71 31.66-70.71 70.71 31.66 70.71 70.71 70.71c12.62 0 24.46-3.31 34.71-9.1" style="stroke-width:15;stroke-linecap:round;stroke-linejoin:round;stroke-miterlimit:10;" fill="none" stroke="#ffffff" stroke-width="15" stroke-linecap="round" stroke-linejoin="round" stroke-miterlimit="10" data-original="#000000" opacity="1"></path><path d="M446.607 49.794s-8.906-8.268-19.958-4.295c-12.448 4.475-11.472 18.191-4.455 23.694 4.029 3.16 10.091 5.758 18.261 8.646 18.286 6.464 11.526 32.251-7.074 32.375-7.259.048-10.652-.412-17.029-4.584M433.38 110.215v9.413M433.38 36.795v7.625" style="stroke-width:15;stroke-linecap:round;stroke-linejoin:round;stroke-miterlimit:10;" fill="none" stroke="#ffffff" stroke-width="15" stroke-linecap="round" stroke-linejoin="round" stroke-miterlimit="10" data-original="#000000" opacity="1"></path><circle cx="78.211" cy="433.789" r="70.711" style="stroke-width:15;stroke-linecap:round;stroke-linejoin:round;stroke-miterlimit:10;" fill="none" stroke="#ffffff" stroke-width="15" stroke-linecap="round" stroke-linejoin="round" stroke-miterlimit="10" data-original="#000000" opacity="1"></circle><path d="M91.029 405.372s-8.906-8.268-19.958-4.295c-12.448 4.475-11.472 18.191-4.455 23.694 4.029 3.16 10.091 5.758 18.261 8.646 18.286 6.464 11.526 32.251-7.074 32.375-7.259.048-10.652-.412-17.029-4.584M77.803 465.792v9.413M77.803 392.372v7.625" style="stroke-width:15;stroke-linecap:round;stroke-linejoin:round;stroke-miterlimit:10;" fill="none" stroke="#ffffff" stroke-width="15" stroke-linecap="round" stroke-linejoin="round" stroke-miterlimit="10" data-original="#000000" opacity="1"></path></g></svg>