<svg xmlns="http://www.w3.org/2000/svg" version="1.1" xmlns:xlink="http://www.w3.org/1999/xlink" width="44" height="44" x="0" y="0" viewBox="0 0 512 512" style="enable-background:new 0 0 512 512" xml:space="preserve" class=""><g><path d="M190.85 206.9h144.69c3.31 0 6 2.69 6 6s-2.69 6-6 6H190.85c-3.31 0-6-2.69-6-6s2.69-6 6-6zm-85.01 76.54c28.06 0 50.88-22.82 50.88-50.88 0-.99-.03-1.99-.09-2.99a5.992 5.992 0 0 0-6.34-5.64c-3.31.19-5.83 3.03-5.64 6.34.04.76.07 1.54.07 2.29 0 21.44-17.44 38.88-38.88 38.88S66.96 254 66.96 232.56s17.44-38.88 38.88-38.88c6.36 0 12.41 1.48 18 4.41 2.94 1.54 6.56.4 8.1-2.53 1.54-2.94.4-6.56-2.53-8.1-7.22-3.78-15.37-5.77-23.56-5.77-28.06 0-50.88 22.82-50.88 50.88s22.81 50.87 50.87 50.87zm46.77-94.56-45.27 45.27-15.02-15.02c-2.34-2.34-6.14-2.34-8.48 0s-2.34 6.14 0 8.49l19.26 19.26a5.991 5.991 0 0 0 8.48 0l49.51-49.51c2.34-2.34 2.34-6.14 0-8.49a6 6 0 0 0-8.48 0zm144.65 57.85H190.85c-3.31 0-6 2.69-6 6s2.69 6 6 6h106.41c3.31 0 6-2.69 6-6s-2.69-6-6-6zM150.29 347.17c-3.31.19-5.83 3.03-5.64 6.34.04.76.07 1.54.07 2.29 0 21.44-17.44 38.88-38.88 38.88s-38.88-17.44-38.88-38.88 17.44-38.88 38.88-38.88c6.36 0 12.41 1.48 18 4.41 2.94 1.54 6.56.4 8.1-2.53 1.54-2.94.4-6.56-2.53-8.1-7.22-3.78-15.37-5.77-23.56-5.77-28.06 0-50.88 22.82-50.88 50.88s22.82 50.88 50.88 50.88 50.88-22.82 50.88-50.88c0-.99-.03-1.99-.09-2.99a6.008 6.008 0 0 0-6.35-5.65zm2.32-35.05-45.27 45.27-15.02-15.02c-2.34-2.34-6.14-2.34-8.48 0s-2.34 6.14 0 8.49l19.26 19.26a5.991 5.991 0 0 0 8.48 0l49.51-49.51c2.34-2.34 2.34-6.14 0-8.49a6 6 0 0 0-8.48 0zm144.65 57.85H190.85c-3.31 0-6 2.69-6 6s2.69 6 6 6h106.41c3.31 0 6-2.69 6-6s-2.69-6-6-6zm-128.9-260.64c0-41.19 33.51-74.71 74.71-74.71 41.19 0 74.71 33.51 74.71 74.71s-33.51 74.71-74.71 74.71c-41.2-.01-74.71-33.52-74.71-74.71zm12 0c0 34.58 28.13 62.71 62.71 62.71s62.71-28.13 62.71-62.71-28.13-62.71-62.71-62.71-62.71 28.13-62.71 62.71zm21.19 19.98c-3.31 0-6-2.69-6-6V95.34c0-3.31 2.69-6 6-6h21.53V67.81c0-3.31 2.69-6 6-6h27.97c3.31 0 6 2.69 6 6v21.53h21.53c3.31 0 6 2.69 6 6v27.97c0 3.31-2.69 6-6 6h-21.53v21.53c0 3.31-2.69 6-6 6h-27.97c-3.31 0-6-2.69-6-6v-21.53zm6-12h21.53c3.31 0 6 2.69 6 6v21.53h15.97v-21.53c0-3.31 2.69-6 6-6h21.53v-15.97h-21.53c-3.31 0-6-2.69-6-6V73.81h-15.97v21.53c0 3.31-2.69 6-6 6h-21.53zm286.61 366.77c-3.82 6.61-10.39 10.41-18.02 10.41H274.86c-7.64 0-14.21-3.79-18.02-10.41-.63-1.09-1.14-2.2-1.56-3.33H37.67c-12.5 0-22.67-10.17-22.67-22.67V131.02h.01c0-1.56.6-3.1 1.74-4.24L124.27 19.27a5.97 5.97 0 0 1 4.24-1.74v-.01h230.32c12.5 0 22.67 10.17 22.67 22.67v239.23c5.03 1.46 9.25 4.76 12.02 9.56l100.63 174.3c3.82 6.61 3.82 14.19.01 20.8zM35.49 125.02h78.65c4.62 0 8.38-3.76 8.38-8.38V38zm291.29 217.11H190.85c-3.31 0-6-2.69-6-6s2.69-6 6-6h142.69c.05 0 .11.01.16.01l23.77-41.17c2.77-4.8 7-8.1 12.02-9.56V40.18c0-5.88-4.79-10.67-10.67-10.67H134.51v87.13c0 11.24-9.14 20.38-20.38 20.38H27v321.06c0 5.88 4.79 10.67 10.67 10.67h216.94c.47-1.87 1.21-3.71 2.24-5.48zm156.98 127.14-100.63-174.3c-1.64-2.84-4.35-4.4-7.63-4.4s-5.99 1.56-7.63 4.41l-100.63 174.3c-1.64 2.84-1.64 5.97 0 8.81s4.35 4.41 7.63 4.41h201.27c3.28 0 5.99-1.56 7.63-4.41 1.63-2.85 1.63-5.98-.01-8.82zM375.5 337.91c-3.31 0-6 2.69-6 6v74.04c0 3.31 2.69 6 6 6s6-2.69 6-6v-74.04c0-3.31-2.69-6-6-6zm0 106.12c-3.31 0-6 2.73-6 6.04s2.69 6 6 6 6-2.69 6-6v-.08c0-3.31-2.69-5.96-6-5.96z" fill="#ffffff" opacity="1" data-original="#000000" class=""></path></g></svg>