<svg xmlns="http://www.w3.org/2000/svg" version="1.1" xmlns:xlink="http://www.w3.org/1999/xlink" width="44" height="44" x="0" y="0" viewBox="0 0 512 512" style="enable-background:new 0 0 512 512" xml:space="preserve" class=""><g><path d="M326 183.43a11 11 0 0 0-15.45 15.66l1.06 1.06a11 11 0 1 0 15.66-15.45Z" fill="#ffffff" opacity="1" data-original="#000000"></path><path d="M433.16 213.75h-23.77a156.6 156.6 0 0 0-16.31-39.25l16.84-16.84a20.83 20.83 0 0 0 0-29.48l-27.83-27.83c-7.87-7.89-21.61-7.88-29.47 0l-16.85 16.85a157.11 157.11 0 0 0-39.25-16.2V77.11a20.86 20.86 0 0 0-20.83-20.84H267v-11a11 11 0 1 0-22 0v18a159.67 159.67 0 0 1-125 61H69a11 11 0 0 0-11 11C58 365 208.23 435.34 245 449.12v14.15a11 11 0 0 0 22 0v-11h8.69a20.86 20.86 0 0 0 20.83-20.84v-23.87a156.11 156.11 0 0 0 39.21-16.25l16.88 16.88c7.87 7.89 21.61 7.87 29.48 0l27.83-27.84a20.82 20.82 0 0 0 0-29.47L393 334a157.18 157.18 0 0 0 16.36-39.18h23.77A20.87 20.87 0 0 0 454 274v-39.41a20.87 20.87 0 0 0-20.84-20.84Zm-353-67.48H120a182 182 0 0 0 125-50.14v329.4c-41.29-17.45-160.54-84.61-164.88-279.26ZM432 272.8h-31.33a11 11 0 0 0-10.78 8.81 135.38 135.38 0 0 1-20 47.9 11 11 0 0 0 1.4 13.85l22.25 22.26-26.2 26.2-22.23-22.23a11 11 0 0 0-13.85-1.39 134.94 134.94 0 0 1-47.94 19.85 11 11 0 0 0-8.81 10.78v31.44H267v-77.15a99.47 99.47 0 0 0 84.29-127.79 11 11 0 0 0-21 6.41A77.55 77.55 0 0 1 267 331V177.5a75.53 75.53 0 0 1 10.71 2.29 11 11 0 1 0 6.14-21.12 98 98 0 0 0-16.85-3.16V78.27h7.52v31.43a11 11 0 0 0 8.81 10.78 135.5 135.5 0 0 1 48 19.84 11 11 0 0 0 13.85-1.4l22.2-22.2 26.2 26.2-22.2 22.2A11 11 0 0 0 370 179a135.36 135.36 0 0 1 19.93 48 11 11 0 0 0 10.78 8.82H432Z" fill="#ffffff" opacity="1" data-original="#000000"></path></g></svg>