<svg xmlns="http://www.w3.org/2000/svg" version="1.1" xmlns:xlink="http://www.w3.org/1999/xlink" width="44" height="44" x="0" y="0" viewBox="0 0 512 512" style="enable-background:new 0 0 512 512" xml:space="preserve" fill-rule="evenodd"><g><path d="M221 252c-58 0-105-47-105-105 0-3 2-5 5-6 1 0 26-6 29-49 0-1 1-3 3-4 1-1 3-1 5-1 1 1 36 15 74 15 22 0 41-5 56-14 1-1 3-1 5 0 2 0 3 2 4 4 3 31 26 44 27 44 1 2 3 3 3 5v6c0 58-47 105-106 105zm-93-101c2 50 43 89 93 89 52 0 94-42 94-93v-2c-7-5-23-18-29-43-15 8-33 12-54 12-30 0-58-8-71-13-5 35-24 46-33 50z" fill="#ffffff" opacity="1" data-original="#000000"></path><path d="M122 153c-2 0-5-2-5-4-1-1-6-17-6-40 0-21 6-52 31-80l1-1c2-1 42-28 87-28 21 0 39 6 55 18 3 2 7 5 10 9 4 0 13 3 22 13 12 16 19 43 19 80 0 1-1 2-1 2l-9 22c0 2-2 3-3 3-2 1-4 1-5 0s-25-14-32-45c-15 8-33 12-54 12-30 0-58-8-71-13-6 45-36 51-38 52h-1zm29-116c-36 40-29 86-25 102 8-4 22-16 24-47 0-1 1-3 3-4 1-1 3-1 5-1 1 1 36 15 74 15 22 0 41-5 56-14 1-1 3-1 5 0 2 0 3 2 4 4 2 22 14 34 21 40l6-13c-1-79-30-81-32-81-1 1-3 0-4-2-3-3-7-6-10-9-14-10-30-15-48-15-38 0-74 22-79 25z" fill="#ffffff" opacity="1" data-original="#000000"></path><path d="M195 149h-24c-3 0-6-3-6-6s3-6 6-6h24c4 0 6 3 6 6s-2 6-6 6zM272 149h-24c-4 0-6-3-6-6s2-6 6-6h24c3 0 6 3 6 6s-3 6-6 6zM235 205h-24c-3 0-6-3-6-6s3-6 6-6h24c4 0 6 3 6 6s-2 6-6 6zM288 468H31c-3 0-6-3-6-6v-69c0-69 56-125 125-125h28c4 0 6 2 6 6v20l37 40 38-40v-20c0-4 2-6 6-6h28c12 0 25 2 37 5 2 1 4 3 4 5 1 2 0 4-1 5-12 13-18 30-18 47v25c0 3-3 6-6 6h-12c-2 0-3 1-3 3v98c0 3-3 6-6 6zM37 456h245v-92c0-8 7-15 15-15h6v-19c0-17 5-34 15-47-8-2-17-3-25-3h-22v16c0 2-1 3-2 4l-43 47c-1 1-3 2-5 2-1 0-3-1-4-2l-43-47c-1-1-2-2-2-4v-16h-22c-30 0-58 11-80 33-21 21-33 50-33 80z" fill="#ffffff" opacity="1" data-original="#000000"></path><path d="M221 349c-1 0-3-1-4-2l-43-47c-1-1-2-2-2-4v-60c0-2 1-4 3-5s4-1 6 0c13 6 26 9 40 9 15 0 28-3 41-9 2-1 4-1 6 0s3 3 3 5v60c0 2-1 3-2 4l-43 47c-1 1-3 2-5 2zm-37-55 37 40 38-40v-49c-12 5-25 7-38 7-12 0-25-2-37-7zM472 512H297c-8 0-15-7-15-15V364c0-8 7-15 15-15h175c8 0 15 7 15 15v133c0 8-7 15-15 15zM297 361c-2 0-3 1-3 3v133c0 2 1 3 3 3h175c2 0 3-1 3-3V364c0-2-1-3-3-3z" fill="#ffffff" opacity="1" data-original="#000000"></path><path d="M460 361H309c-3 0-6-3-6-6v-25c0-45 37-82 81-82 45 0 82 37 82 82v25c0 3-3 6-6 6zm-145-12h139v-19c0-39-31-70-70-70-38 0-69 31-69 70zM384 437c-13 0-24-11-24-24 0-14 11-25 24-25 14 0 25 11 25 25 0 13-11 24-25 24zm0-37c-6 0-12 6-12 13s6 12 12 12c7 0 13-5 13-12s-6-13-13-13z" fill="#ffffff" opacity="1" data-original="#000000"></path><path d="M384 473c-3 0-6-3-6-6v-36c0-3 3-6 6-6 4 0 6 3 6 6v36c0 3-2 6-6 6z" fill="#ffffff" opacity="1" data-original="#000000"></path></g></svg>