<svg xmlns="http://www.w3.org/2000/svg" version="1.1" xmlns:xlink="http://www.w3.org/1999/xlink" width="512" height="512" x="0" y="0" viewBox="0 0 30 30" style="enable-background:new 0 0 512 512" xml:space="preserve" class=""><g><g xmlns="http://www.w3.org/2000/svg" xmlns:xlink="http://www.w3.org/1999/xlink"><path d="M23.656 9.156 23 19h2l-.691-10.366zM7.577 21.254c-1.792.328-4.291.912-5.265 1.746C.726 24.359.499 30 .499 30h11.49l-.917-6.416zM29.5 30s-.227-5.641-1.813-7c-.974-.834-3.473-1.418-5.264-1.746l-3.497 2.33L18.01 30h5.24z" fill="#0b3a6c" opacity="1" data-original="#000000"></path><path d="M20.438 20.938s-1.113-.559-1.797-1.364L15 22l-3.641-2.427c-.684.806-1.797 1.364-1.797 1.364s-.204.025-.543.075L12 23l1 7h1v-7h2v7h1l1-7 2.981-1.987c-.339-.05-.543-.075-.543-.075z" opacity="1" fill="#00000060" data-original="#00000060"></path><path d="M14 23v7h2v-7zM8.673 7.861C9.414 6.419 11.22 4 15 4s5.586 2.419 6.327 3.861a8.117 8.117 0 0 1 .568 1.421L26 6 15 0 4 6l4.104 3.284a8.285 8.285 0 0 1 .569-1.423z" fill="#0b3a6c" opacity="1" data-original="#000000"></path><path d="M21 10.129V9.8s-.052-.232-.176-.584a7.126 7.126 0 0 0-.387-.898C19.712 6.908 18.152 5 14.999 5s-4.713 1.907-5.438 3.318a7.19 7.19 0 0 0-.387.898C9.052 9.568 9 9.8 9 9.8v.329c.913-.791 2.656-1.529 6-1.529s5.087.738 6 1.529z" fill="#0b3a6c" opacity="1" data-original="#000000"></path><path d="M15 9.6C9 9.6 9 12 9 12c.138.692.592 1.797.949 1.813.26 1.439.693 2.767 1.426 3.5.471.471.567.939.463 1.378L15 20.798l3.162-2.107c-.104-.438-.008-.907.463-1.378.732-.733 1.166-2.061 1.426-3.5.346-.015.809-1.125.949-1.813 0 0 0-2.4-6-2.4z" opacity="1" fill="#00000040" data-original="#00000040"></path></g></g></svg>