<svg xmlns="http://www.w3.org/2000/svg" version="1.1" xmlns:xlink="http://www.w3.org/1999/xlink" width="50" height="50" x="0" y="0" viewBox="0 0 512 512" style="enable-background:new 0 0 512 512" xml:space="preserve" class=""><g><path d="M466.2 273.89c-28.26-36.86-27.73-47.46-25.97-82.59.38-7.56.81-16.14 1.03-26.25.88-41.14-14.51-78.55-44.5-108.2C358.22 18.77 300.34-1.91 237.89.15c-58.76 1.93-108.84 22.57-144.83 59.7-34.5 35.6-53.5 84.92-53.5 138.89 0 50.43 14.01 101.66 37.48 137.05 16.39 24.7 23.75 50.02 23.16 79.69l-1.36 65.95c-.15 8.27 2.82 15.73 8.56 21.54 5.75 5.9 13.15 9.02 21.4 9.02h154.6c14.04 0 26.04-9.55 29.19-23.24l4.53-19.78c2.91-12.62 5.01-21.74 8.24-24.56 3.02-2.64 11.26-2.83 23.48-2.83 41.16 0 83.81-8.6 88.14-72.35.41-5.84.49-12.18.24-19.41-.15-3.72.91-6.76 3.35-9.58l24.58-28.61c9.31-10.85 9.74-26.37 1.05-37.74zm-13.18 27.32-24.57 28.59c-5.09 5.9-7.52 12.85-7.21 20.6.23 6.63.16 12.42-.21 17.73-1.54 22.67-8.01 37.31-20.36 46.05-10.99 7.78-27.46 11.41-51.83 11.41-16.26 0-26.61.33-34 6.78-7.13 6.23-9.46 16.31-13.31 33.02L297 485.17c-1.49 6.48-6.96 10.84-13.61 10.84h-154.6c-4 0-7.17-1.33-9.99-4.23-2.76-2.79-4.06-6.08-3.99-10.04l1.36-65.94c.66-33.08-7.54-61.32-25.82-88.85-21.8-32.87-34.81-80.8-34.81-128.22 0-105.64 73.49-179.02 182.87-182.61 58.05-1.9 111.68 17.09 147.1 52.11 26.79 26.49 40.54 59.85 39.76 96.49-.22 9.88-.64 18.33-1.01 25.79-1.88 37.55-2.58 51.6 29.25 93.11 4.05 5.3 3.85 12.54-.49 17.59zM351.49 149.1l-17.08-5.55c-.46-.15-.52-.3-.6-.53l-.04-.11c-1.02-2.69-2.01-5.09-3.04-7.35-.02-.03-.03-.07-.05-.1-.15-.32-.15-.42.04-.78l8.17-16.05a16.926 16.926 0 0 0-3.12-19.68L317.32 80.5a16.947 16.947 0 0 0-19.71-3.14l-16.02 8.17c-.39.2-.53.18-.82.05a93.282 93.282 0 0 0-7.43-3.09c-.42-.15-.51-.28-.63-.65l-5.56-17.1a16.939 16.939 0 0 0-16.13-11.73h-26.11c-7.37 0-13.85 4.71-16.13 11.73l-5.56 17.11c-.13.4-.24.5-.57.62-2.6.94-5.05 1.95-7.45 3.08-.35.16-.51.16-.84 0l-16.06-8.2c-6.59-3.35-14.51-2.07-19.67 3.14l-18.49 18.46c-5.2 5.2-6.46 13.11-3.12 19.68l8.19 16.09c.16.31.18.44.03.76-1.03 2.2-2.04 4.63-3.1 7.42l-.04.11c-.09.24-.14.38-.6.53l-17.08 5.55a16.92 16.92 0 0 0-11.74 16.14v26.11c0 7.38 4.72 13.87 11.73 16.13l17.08 5.55c.39.13.49.25.6.56.01.04.03.07.04.11 1.02 2.7 2.03 5.12 3.08 7.36.15.33.17.48-.03.87L137 237.95c-3.32 6.54-2.08 14.45 3.12 19.71l18.45 18.42c5.18 5.24 13.1 6.5 19.71 3.14l16.02-8.15c.35-.18.51-.18.9 0 2.7 1.23 5.12 2.23 7.38 3.06.41.15.49.26.6.61l5.55 17.08a16.92 16.92 0 0 0 16.14 11.74H251c7.38 0 13.87-4.72 16.13-11.73l5.55-17.08c.1-.32.19-.46.59-.61 2.28-.83 4.7-1.84 7.43-3.08.42-.19.56-.15.87.01l16.02 8.17c6.58 3.35 14.5 2.09 19.71-3.12l18.48-18.48a16.989 16.989 0 0 0 3.08-19.68l-8.17-16.02c-.16-.31-.19-.45.01-.9 1.07-2.35 2.06-4.74 3.04-7.32.01-.04.03-.07.04-.11.11-.31.22-.44.59-.56l17.08-5.55a16.92 16.92 0 0 0 11.74-16.14v-26.11c.03-7.4-4.69-13.89-11.7-16.15zm-4.26 42.24c0 .5-.2.77-.69.93l-17.1 5.56c-5.06 1.65-8.84 5.29-10.66 10.26-.84 2.23-1.7 4.29-2.6 6.26-2.23 4.84-2.13 10.11.28 14.83l8.16 16.01c.22.44.16.83-.17 1.16L306 264.8c-.22.21-.57.47-1.15.17l-16.01-8.16c-4.73-2.42-10-2.52-14.8-.3-2.32 1.06-4.37 1.91-6.31 2.62-4.98 1.85-8.62 5.64-10.25 10.66l-5.56 17.1c-.15.46-.44.67-.93.67h-26.11c-.48 0-.78-.21-.93-.68l-5.56-17.1c-1.64-5.04-5.29-8.83-10.29-10.67-1.89-.69-3.94-1.54-6.23-2.59-2.31-1.06-4.71-1.6-7.12-1.6-2.61 0-5.21.62-7.68 1.87l-16.04 8.16c-.57.29-.9.06-1.13-.18l-18.45-18.42c-.36-.36-.42-.75-.2-1.18l8.16-16.01c2.43-4.75 2.54-10.02.29-14.88-.89-1.89-1.74-3.93-2.61-6.22-1.82-4.97-5.6-8.61-10.66-10.26l-17.1-5.56c-.47-.15-.67-.43-.67-.93V165.2c0-.48.21-.78.69-.93l17.1-5.56c5.06-1.65 8.85-5.28 10.66-10.23.91-2.39 1.76-4.44 2.63-6.29 2.23-4.84 2.12-10.11-.3-14.8l-8.16-16.04c-.22-.43-.16-.8.17-1.13l18.52-18.49c.33-.33.68-.39 1.09-.18l16.07 8.21c4.73 2.39 9.98 2.48 14.82.25 2.01-.94 4.03-1.78 6.19-2.56l.07-.03c4.97-1.85 8.6-5.65 10.23-10.69l5.55-17.09c.15-.46.46-.69.93-.69H251c.47 0 .78.23.93.69l5.55 17.08c1.63 5.05 5.27 8.85 10.3 10.72 2.18.8 4.2 1.64 6.23 2.59 4.82 2.23 10.09 2.12 14.83-.31l16.01-8.16c.43-.22.8-.16 1.16.2l18.45 18.45c.33.33.39.7.17 1.13l-8.14 16c-2.45 4.75-2.56 10.02-.29 14.85.87 1.91 1.72 3.96 2.59 6.28 1.81 4.95 5.59 8.58 10.67 10.24l17.1 5.56c.46.15.67.44.67.93zm-109.27-85.95c-40.2 0-72.91 32.71-72.91 72.91 0 40.19 32.71 72.88 72.91 72.88 40.19 0 72.88-32.69 72.88-72.88 0-40.2-32.7-72.91-72.88-72.91zm0 129.8c-31.39 0-56.92-25.52-56.92-56.89 0-31.39 25.53-56.92 56.92-56.92 31.37 0 56.89 25.53 56.89 56.92 0 31.37-25.52 56.89-56.89 56.89zm-9.58-73.42c0 4.7 4.3 8.53 9.58 8.53h.85c.35 0 .69.03 1.03.07 13.21.93 23.66 11.52 23.66 24.42 0 10.84-7.37 20.05-17.55 23.28v4.55c0 4.41-3.58 7.99-7.99 7.99s-7.99-3.58-7.99-7.99v-4.55c-10.19-3.23-17.58-12.44-17.58-23.29 0-4.41 3.58-7.99 7.99-7.99s7.99 3.58 7.99 7.99c0 4.7 4.3 8.53 9.58 8.53 5.18 0 9.55-3.91 9.55-8.53 0-4.61-4.37-8.5-9.55-8.5-14.1 0-25.57-11-25.57-24.52 0-10.84 7.38-20.06 17.58-23.29v-4.55c0-4.42 3.58-7.99 7.99-7.99s7.99 3.58 7.99 7.99v4.55c10.18 3.23 17.55 12.44 17.55 23.28 0 4.42-3.58 7.99-7.99 7.99-4.42 0-7.99-3.58-7.99-7.99 0-4.63-4.37-8.53-9.55-8.53-5.2.02-9.58 3.93-9.58 8.55z" fill="#ee4a62" opacity="1" data-original="#000000"></path></g></svg>