<svg xmlns="http://www.w3.org/2000/svg" version="1.1" xmlns:xlink="http://www.w3.org/1999/xlink" width="50" height="50" x="0" y="0" viewBox="0 0 500 500" style="enable-background:new 0 0 512 512" xml:space="preserve" class=""><g><path fill-rule="evenodd" d="M347.751 284.983c-5.85 0-10.612-4.745-10.612-10.623 0-5.823 4.761-10.623 10.612-10.623 5.856 0 10.612 4.799 10.612 10.623 0 5.878-4.756 10.623-10.612 10.623zm0-34.025c-12.904 0-23.402 10.515-23.402 23.402 0 12.941 10.499 23.402 23.402 23.402 12.909 0 23.408-10.461 23.408-23.402 0-12.887-10.499-23.402-23.408-23.402zm-195.505 12.78c5.845 0 10.601 4.799 10.601 10.623 0 5.878-4.756 10.623-10.601 10.623-5.851 0-10.612-4.745-10.612-10.623 0-5.824 4.762-10.623 10.612-10.623zm0 34.025c12.898 0 23.397-10.461 23.397-23.402 0-12.887-10.499-23.402-23.397-23.402-12.904 0-23.408 10.515-23.408 23.402.001 12.941 10.505 23.402 23.408 23.402zm153.031-213.37a6.39 6.39 0 0 0 6.104-4.421l4.47-13.858 4.47 13.858a6.382 6.382 0 0 0 6.099 4.421l14.553-.054-11.787 8.52c-2.254 1.672-3.198 4.53-2.34 7.172l4.529 13.858-11.75-8.574c-2.279-1.649-5.275-1.649-7.544 0l-11.755 8.574 4.524-13.858c.857-2.642-.076-5.5-2.33-7.172l-11.787-8.52zm-38.101-1.294 24.06 17.417-9.232 28.255c-1.912 5.775 4.794 10.778 9.857 7.118l23.99-17.471 23.995 17.471c5.039 3.712 11.753-1.357 9.851-7.118l-9.237-28.255 24.06-17.417c5.018-3.617 2.421-11.599-3.764-11.593l-29.695.054-9.129-28.255c-1.895-5.872-10.277-5.868-12.17 0l-9.129 28.255-29.706-.054c-6.17 0-8.769 7.992-3.751 11.593zm93.107 249.336c-2.432 1.887-5.02 3.99-7.824 6.201-25.128 20.059-33.955 56.295-41.666 88.378a279.812 279.812 0 0 0-15.2-2.534l13.378-40.118c.06-.162.103-.324.146-.485 9.269-37.692-1.122-66.001-14.058-93.824.296-.809.604-1.564.911-2.372 5.629 4.691 10.995 8.951 16.02 12.564 13.076 9.49 23.456 15.53 34.764 16.338 10.887.755 21.806-3.397 36.516-13.966 5.716-4.098 11.243-8.519 16.139-12.726-11.394 20.597-19.439 26.96-39.126 42.544zm-125.897 89.187c-.615-4.853-1.041-13.642-1.456-22.27-1.769-36.397-4.729-97.383-27.031-138.903-5.749-10.748-31.791-36.253-35.405-44.593.712-1.51 1.251-2.265 1.547-2.588 2 .593 6.676 4.206 10.477 7.172 4.853 3.774 10.898 8.412 18.473 13.103 29.711 18.28 59.428 19.196 79.492 2.48 16.952-13.857 29.143-22.33 36.225-67.726a332.911 332.911 0 0 0 2.022-15.422l.766 12.294c1.203 43.623-8.342 62.172-20.42 85.628-6.525 12.672-13.928 27.015-20.226 47.02-11.368 36.086-11.897 81.326-14.284 123.805-9.994-.446-20.195-.417-30.18 0zm-86.858-82.986c-2.788-2.211-5.392-4.314-7.814-6.201-19.692-15.583-27.727-21.946-39.126-42.545 4.891 4.206 10.423 8.628 16.134 12.726 14.721 10.569 25.64 14.721 36.521 13.966 11.313-.809 21.682-6.848 34.758-16.338 4.956-3.559 10.245-7.711 15.788-12.402.318.917.626 1.833.922 2.75-12.806 27.5-23.1 55.593-13.836 93.285.043.162.097.323.146.485l13.373 40.118a279.447 279.447 0 0 0-15.19 2.534c-7.716-32.084-16.548-68.32-41.676-88.378zm72.622 61.363c-1.149-23.672-2.826-58.02-10.083-89.834-8.665 21.299-13.529 42.868-6.821 70.368l14.117 42.383c1.413-.162 2.831-.27 4.249-.431-.577-4.854-.95-11.864-1.462-22.486zm68.988-91.722c-8.916 33.044-9.645 75.437-11.804 114.153 1.769.108 3.537.27 5.306.485l14.117-42.383c6.864-28.146 1.542-50.254-7.619-72.255zm125.25-37.961c-3.942-2.912-9.409-2.642-13.017.701-6.169 5.77-15.6 14.074-25.554 21.191-23.586 16.932-32.682 14.883-56.316-2.319-5.656-4.098-11.804-9.005-18.296-14.559 3.057-6.686 6.18-12.726 9.247-18.711 12.413-24.049 23.122-44.863 21.833-91.775-.287-11.843-1.072-24.124-7.495-29.549-6.75-5.701-17.244-1.457-17.972 7.495a321.528 321.528 0 0 1-2.755 23.51c-6.374 40.908-15.859 46.7-31.771 59.907-15.637 12.995-39.789 11.701-64.604-3.559-6.977-4.314-12.72-8.735-17.331-12.348-8.514-6.578-14.667-11.378-21.639-9.49-5.878 1.51-8.859 7.225-10.59 11.377-2.89 6.956 3.386 15.044 20.722 34.726 6.67 7.603 13.567 15.476 15.778 19.574 1.51 2.804 2.928 5.77 4.26 8.789-6.546 5.608-12.72 10.515-18.404 14.613-23.634 17.201-32.725 19.25-56.311 2.319-9.943-7.118-19.39-15.422-25.554-21.191-3.602-3.343-9.075-3.613-13.017-.701-3.942 2.966-5.209 8.304-3.025 12.672 16.705 33.755 25.554 40.765 49.193 59.476 2.416 1.887 4.993 3.936 7.77 6.147 21.65 17.309 29.932 51.118 37.152 81.099-19.186 4.637-37.406 11.054-54.208 19.25-3.17 1.51-4.497 5.392-2.944 8.52 1.542 3.181 5.376 4.53 8.547 2.966 35.432-17.255 77.588-26.368 121.907-26.368s86.469 9.113 121.902 26.368c3.135 1.51 6.958.319 8.557-2.966 1.548-3.127.221-7.01-2.95-8.52-16.797-8.196-35.017-14.613-54.208-19.25 7.215-29.98 15.508-63.79 37.158-81.099 2.772-2.211 5.349-4.26 7.759-6.147 23.645-18.711 32.499-25.721 49.209-59.476 2.187-4.368.909-9.706-3.033-12.672zm-169.957-90.211c-10.326 0-18.722 8.358-18.722 18.711 0 10.299 8.396 18.711 18.722 18.711 10.321 0 18.716-8.412 18.716-18.711 0-10.353-8.395-18.711-18.716-18.711zm0 50.201c17.379 0 31.512-14.127 31.512-31.49 0-17.417-14.133-31.544-31.512-31.544s-31.517 14.128-31.517 31.544c0 17.363 14.138 31.49 31.517 31.49z" clip-rule="evenodd" fill="#8e56ff" opacity="1" data-original="#000000" class=""></path></g></svg>