<svg xmlns="http://www.w3.org/2000/svg" version="1.1" xmlns:xlink="http://www.w3.org/1999/xlink" width="50" height="50" x="0" y="0" viewBox="0 0 512 512" style="enable-background:new 0 0 512 512" xml:space="preserve" class=""><g><path d="M330.323 478.968c0-9.107-7.41-16.516-16.516-16.516h-33.032v-16.516h142.337l76.938-38.469c7.37-3.685 11.95-11.096 11.95-19.337 0-8.242-4.58-15.652-11.95-19.337l-76.938-38.469H280.774V289.01c8.235-6.197 14.078-15.4 15.902-25.964 9.93-3.229 17.13-12.568 17.13-23.561v-29.023c21.047-17.332 33.032-42.639 33.032-70.074 0-24.668-9.721-47.748-27.37-64.988-17.644-17.234-40.923-26.414-65.654-25.825-23.532.553-45.683 10.168-62.37 27.071-16.684 16.9-26.017 39.171-26.278 62.711-.306 27.419 11.971 53.689 33.026 71.099v29.029c0 10.994 7.2 20.332 17.13 23.561 1.825 10.563 7.667 19.768 15.902 25.964v8.281H88.889L11.95 335.759C4.58 339.445 0 346.855 0 355.097s4.58 15.652 11.95 19.337l76.938 38.469h142.337v49.548h-33.032c-9.107 0-16.516 7.41-16.516 16.516v16.516H0V512h512v-16.516H330.323v-16.516zm99.096-127.026 33.032 16.516v39.34l-33.032 16.516v-72.372zm66.065 36.187a5.076 5.076 0 0 1-2.821 4.565l-13.695 6.848v-22.824l13.695 6.847a5.073 5.073 0 0 1 2.821 4.564zm-82.581-41.29v82.581H280.774v-82.581h132.129zm-180.257-82.581h46.708c-3.41 9.611-12.588 16.516-23.354 16.516s-19.944-6.905-23.354-16.516zm56.386-16.516h-66.065c-4.553 0-8.258-3.705-8.258-8.258v-8.258h82.581v8.258c0 4.553-3.704 8.258-8.258 8.258zm-57.806-99.097h-8.258c-4.553 0-8.258-3.705-8.258-8.258 0-4.553 3.705-8.258 8.258-8.258 4.553 0 8.258 3.705 8.258 8.258v8.258zm33.032 66.065h-16.516v-49.548h16.516v49.548zm-82.576-75.17c.441-39.572 32.973-72.523 72.523-73.454a77.9 77.9 0 0 1 1.807-.022c19.535 0 37.912 7.471 51.915 21.15 14.441 14.107 22.395 32.99 22.395 53.174 0 23.594-10.838 45.268-29.734 59.462l-3.298 2.477v12.383h-16.516v-49.548h8.258c13.66 0 24.774-11.113 24.774-24.774 0-13.661-11.114-24.774-24.774-24.774s-24.774 11.113-24.774 24.774v8.258h-16.516v-8.258c0-13.661-11.114-24.774-24.774-24.774s-24.774 11.113-24.774 24.774c0 13.661 11.114 24.774 24.774 24.774h8.258v49.548H214.71v-12.382l-3.298-2.477c-18.877-14.182-29.992-36.728-29.73-60.311zm99.092 9.105v-8.258c0-4.553 3.705-8.258 8.258-8.258 4.553 0 8.258 3.705 8.258 8.258 0 4.553-3.705 8.258-8.258 8.258h-8.258zM82.581 391.284l-33.032-16.516v-39.34l33.032-16.516v72.372zm-66.065-36.187a5.076 5.076 0 0 1 2.821-4.565l13.695-6.848v22.824l-13.695-6.847a5.073 5.073 0 0 1-2.821-4.564zm82.581 41.29v-82.581h132.129v82.581H99.097zm148.645-99.928c2.669.544 5.431.831 8.258.831 2.827 0 5.589-.287 8.258-.831v165.992h-16.516V296.459zm-49.548 182.509h115.613v16.516H198.194v-16.516z" fill="#1ab69d" opacity="1" data-original="#000000" class=""></path><path d="m167.58 324.483-35.451 35.452-10.677-10.678-11.679 11.679 22.356 22.355 47.13-47.129z" fill="#1ab69d" opacity="1" data-original="#000000" class=""></path><circle cx="173.419" cy="371.613" r="8.258" fill="#1ab69d" opacity="1" data-original="#000000" class=""></circle><circle cx="206.452" cy="371.613" r="8.258" fill="#1ab69d" opacity="1" data-original="#000000" class=""></circle><path d="m313.806 416.323 47.13-47.129-11.679-11.679-35.451 35.452-10.676-10.677-11.679 11.679z" fill="#1ab69d" opacity="1" data-original="#000000" class=""></path><circle cx="355.097" cy="404.645" r="8.258" fill="#1ab69d" opacity="1" data-original="#000000" class=""></circle><circle cx="388.129" cy="404.645" r="8.258" fill="#1ab69d" opacity="1" data-original="#000000" class=""></circle><path d="M247.742 0h16.516v33.032h-16.516zM194.657 13.844l15.259-6.321 12.641 30.52-15.259 6.32zM150.89 46.96l11.678-11.678 23.357 23.357-11.678 11.679zM289.455 38.028 302.097 7.51l15.259 6.32-12.642 30.52zM326.076 58.652l23.357-23.357 11.678 11.679-23.357 23.357z" fill="#1ab69d" opacity="1" data-original="#000000" class=""></path></g></svg>