<svg xmlns="http://www.w3.org/2000/svg" version="1.1" xmlns:xlink="http://www.w3.org/1999/xlink" width="50" height="50" x="0" y="0" viewBox="0 0 512 512" style="enable-background:new 0 0 512 512" xml:space="preserve" class=""><g><path d="M413.686 323.37c-49.8 0-90.315 40.516-90.315 90.315S363.886 504 413.686 504 504 463.485 504 413.686s-40.515-90.316-90.314-90.316zm0 164.63c-40.978 0-74.315-33.337-74.315-74.314s33.338-74.315 74.315-74.315S488 372.708 488 413.686 454.663 488 413.686 488zm0-141.25c-36.908 0-66.936 30.027-66.936 66.936s30.027 66.935 66.936 66.935 66.935-30.026 66.935-66.935-30.027-66.936-66.935-66.936zm0 117.87c-28.086 0-50.936-22.85-50.936-50.935 0-28.086 22.85-50.936 50.936-50.936 28.085 0 50.935 22.85 50.935 50.936-.001 28.086-22.85 50.935-50.935 50.935zm32.266-32.306a7.997 7.997 0 0 1-10.928 2.928l-25.339-14.629a7.997 7.997 0 0 1-4-6.928V378.67a8 8 0 0 1 16 0v30.396l21.339 12.32a7.999 7.999 0 0 1 2.928 10.928zM22.679 168.987c0 5.031 2.286 14.513 17.598 21.492 9.349 4.261 21.601 6.607 34.499 6.607s25.15-2.347 34.498-6.607c15.312-6.979 17.598-16.461 17.598-21.492 0-9.76-7.987-18.087-21.531-23.111 18.576-22.21 36.21-47.279 36.21-71.101C141.55 37.955 111.595 8 74.775 8S8 37.955 8 74.775c0 23.822 17.634 48.891 36.21 71.101-13.544 5.024-21.531 13.351-21.531 23.111zm88.192 0c0 3.512-12.648 12.1-36.096 12.1s-36.097-8.588-36.097-12.1c0-2.109 5.17-6.956 16.906-9.875 1.087 1.242 2.168 2.475 3.234 3.689 3.536 4.03 6.876 7.837 9.849 11.352a8.002 8.002 0 0 0 12.216 0c2.972-3.514 6.312-7.32 9.848-11.351 1.066-1.215 2.147-2.448 3.234-3.69 11.736 2.919 16.906 7.767 16.906 9.875zM74.775 24c27.997 0 50.774 22.777 50.774 50.775 0 24.089-27.075 54.944-46.845 77.475-1.34 1.527-2.651 3.022-3.93 4.485-1.278-1.464-2.591-2.959-3.931-4.486C51.075 129.719 24 98.863 24 74.775 24 46.777 46.777 24 74.775 24zm37.808 50.775c0-20.848-16.961-37.809-37.808-37.809-20.848 0-37.809 16.961-37.809 37.809s16.961 37.808 37.809 37.808c20.847 0 37.808-16.96 37.808-37.808zm-59.616 0c0-12.025 9.783-21.809 21.809-21.809 12.024 0 21.808 9.783 21.808 21.809 0 12.024-9.783 21.808-21.808 21.808-12.026 0-21.809-9.783-21.809-21.808zm114.385-17.096a8 8 0 0 1 4.422-10.414c26.772-10.812 55.11-16.294 84.227-16.294 60.107 0 116.618 23.407 159.12 65.909 42.503 42.503 65.91 99.013 65.91 159.12 0 7.382-.369 14.761-1.083 22.093l10.306-10.644a7.997 7.997 0 0 1 11.312-.183 8 8 0 0 1 .183 11.312l-27.852 28.766a8.004 8.004 0 0 1-6.585 2.392 8.002 8.002 0 0 1-5.942-3.71l-21.251-33.935a8 8 0 0 1 13.56-8.492l10.017 15.996a211.738 211.738 0 0 0 1.336-23.593c0-115.259-93.771-209.029-209.03-209.029-27.053 0-53.375 5.091-78.234 15.13a8.002 8.002 0 0 1-10.416-4.424zm141.19 409.099a8 8 0 0 1-6.189 9.471c-15.146 3.173-30.741 4.781-46.353 4.781-60.107 0-116.618-23.407-159.12-65.91C54.377 372.618 30.97 316.107 30.97 256c0-7.382.37-14.761 1.085-22.094l-10.308 10.646a7.998 7.998 0 0 1-11.312.183 8 8 0 0 1-.183-11.312l27.853-28.766a8.008 8.008 0 0 1 6.585-2.392 8.002 8.002 0 0 1 5.942 3.71l21.251 33.935a8 8 0 0 1-13.56 8.492l-10.017-15.997A211.575 211.575 0 0 0 46.97 256c0 115.26 93.771 209.03 209.03 209.03 14.512 0 29.003-1.494 43.071-4.441a7.993 7.993 0 0 1 9.471 6.189zM166.891 313.996h48.016v9.723h-16.645c-12.023 0-21.806 8.537-21.806 19.031v15.694a8 8 0 0 0 8 8h143.089a8 8 0 0 0 8-8V342.75c0-10.494-9.782-19.031-21.807-19.031h-16.644v-9.723h48.016c13.338 0 24.189-10.852 24.189-24.189V178.426c0-13.338-10.852-24.189-24.189-24.189h-2.687v-20.681a8 8 0 0 0-8-8c-37.689 0-49.793 3.279-73.907 9.812-1.456.395-2.959.802-4.517 1.221-1.558-.419-3.061-.826-4.517-1.221-24.114-6.533-36.218-9.812-73.907-9.812a8 8 0 0 0-8 8v20.681h-2.686c-13.339 0-24.19 10.852-24.19 24.189v111.381c.001 13.338 10.853 24.189 24.192 24.189zm152.654 28.754v7.694H192.456v-7.694c0-1.041 2.261-3.031 5.806-3.031h115.477c3.544 0 5.806 1.99 5.806 3.031zm-38.45-19.031h-50.188v-9.723h50.188zM264 151.001l.701-.19c21.598-5.851 32.389-8.773 61.723-9.2v90.157c-25.836.56-46.444 3.894-62.424 10.117zm-78.424-9.391c29.334.427 40.125 3.35 61.723 9.2l.701.19v90.884c-15.979-6.224-36.588-9.558-62.424-10.117zM158.7 178.426c0-4.516 3.674-8.189 8.19-8.189h2.686v69.446a8 8 0 0 0 8 8c33.562 0 58.603 4.632 74.424 13.766 1.237.715 2.619 1.072 4 1.072s2.763-.357 4-1.072c15.821-9.134 40.861-13.766 74.424-13.766a8 8 0 0 0 8-8v-69.446h2.687c4.516 0 8.189 3.674 8.189 8.189v111.381c0 4.516-3.674 8.189-8.189 8.189h-178.22c-4.517 0-8.19-3.674-8.19-8.189V178.426zm32.699-2.322a7.986 7.986 0 0 1 8.428-7.549c13.535.745 24.398 2.351 36.323 5.367a8.002 8.002 0 0 1-1.956 15.758c-.649 0-1.31-.08-1.968-.246-10.874-2.751-20.826-4.218-33.278-4.902a8.001 8.001 0 0 1-7.549-8.428zm50.561-15.082a8.005 8.005 0 0 1-7.765 6.104 8.053 8.053 0 0 1-1.905-.23c-11.398-2.784-21.047-4.172-33.305-4.789a8.001 8.001 0 0 1-7.588-8.393c.223-4.412 4.007-7.788 8.393-7.588 13.335.672 23.851 2.187 36.297 5.227a7.998 7.998 0 0 1 5.873 9.669zm-50.559 37.472a7.998 7.998 0 0 1 8.459-7.514c13.676.81 24.885 2.499 36.343 5.48a8 8 0 0 1-4.029 15.484c-10.407-2.708-20.665-4.248-33.259-4.992a8 8 0 0 1-7.514-8.458zm50.52 30.259a8.004 8.004 0 0 1-7.728 5.949c-.68 0-1.37-.087-2.058-.27-10.014-2.659-20.578-4.268-33.249-5.062-4.409-.276-7.76-4.075-7.483-8.485s4.085-7.754 8.485-7.483c13.746.861 25.297 2.63 36.353 5.565a8.002 8.002 0 0 1 5.68 9.786zm28.119-67.731a8 8 0 0 1 5.873-9.67c12.446-3.04 22.962-4.555 36.297-5.227 4.406-.226 8.17 3.174 8.393 7.588a8.002 8.002 0 0 1-7.588 8.393c-12.258.617-21.906 2.005-33.305 4.789a8.002 8.002 0 0 1-9.67-5.873zm50.559 37.472a8 8 0 0 1-7.514 8.459c-12.594.744-22.852 2.284-33.259 4.992a8.012 8.012 0 0 1-2.021.26 8.002 8.002 0 0 1-2.008-15.744c11.458-2.981 22.667-4.671 36.343-5.48 4.415-.236 8.198 3.103 8.459 7.513zm-.002 22.392a8 8 0 0 1-7.483 8.485c-12.669.794-23.234 2.402-33.249 5.062a7.999 7.999 0 0 1-2.058.27 8 8 0 0 1-2.048-15.734c11.057-2.936 22.608-4.704 36.353-5.565a7.978 7.978 0 0 1 8.485 7.482zm.004-44.782a8.002 8.002 0 0 1-7.549 8.428c-12.452.685-22.404 2.151-33.278 4.902a8.003 8.003 0 0 1-9.718-5.794 8.002 8.002 0 0 1 5.794-9.718c11.925-3.017 22.788-4.622 36.323-5.367 4.43-.226 8.184 3.137 8.428 7.549z" fill="#8e56ff" opacity="1" data-original="#000000" class=""></path></g></svg>