<svg xmlns="http://www.w3.org/2000/svg" version="1.1" xmlns:xlink="http://www.w3.org/1999/xlink" width="44" height="44" x="0" y="0" viewBox="0 0 512 512" style="enable-background:new 0 0 512 512" xml:space="preserve" class=""><g><path fill-rule="evenodd" d="M498.147 48.343 460.854 11.05a7 7 0 0 0-9.898 0l-37.293 37.293a6.999 6.999 0 0 0 4.949 11.949h10.326v85.846a7 7 0 0 0 7 7h39.934a7 7 0 0 0 7-7V60.293h10.326a7 7 0 0 0 4.949-11.95zm-22.275-2.05a7 7 0 0 0-7 7v85.846h-25.934V53.293a7 7 0 0 0-7-7h-.427l20.394-20.394 20.394 20.394zM442 201.472l-13.002 22.521a6.998 6.998 0 0 1-9.562 2.562l-22.521-13.002a7 7 0 1 1 7-12.124l6.888 3.977C382.191 128.434 307.648 75.89 224.487 75.89c-41.649 0-81.52 12.745-115.301 36.858a7 7 0 1 1-8.133-11.394c36.168-25.817 78.851-39.464 123.434-39.464 47.155 0 91.822 15.113 129.172 43.706 32.548 24.917 57.483 59.189 71.21 97.549l5.008-8.673a7 7 0 1 1 12.123 7zm-5.781 52.832c.633 6.695.954 13.516.954 20.272 0 117.275-95.41 212.685-212.686 212.685a214.315 214.315 0 0 1-38.338-3.45l5.016 8.688A6.999 6.999 0 0 1 185.11 503a6.994 6.994 0 0 1-6.068-3.501l-13.003-22.521a6.996 6.996 0 0 1 2.562-9.562l22.521-13.003a7 7 0 0 1 7 12.124l-6.854 3.958a200.485 200.485 0 0 0 33.22 2.766c109.556 0 198.686-89.129 198.686-198.685 0-6.319-.3-12.696-.892-18.955a6.998 6.998 0 0 1 6.31-7.627 6.99 6.99 0 0 1 7.627 6.31zM145.42 464.645a7.004 7.004 0 0 1-6.37 4.091 6.98 6.98 0 0 1-2.907-.635c-36.571-16.721-67.581-43.384-89.677-77.106-22.678-34.608-34.664-74.865-34.664-116.418 0-50.932 17.905-99.374 50.684-137.82H52.421a7 7 0 1 1 0-14h26.006a7 7 0 0 1 7 7v26.005a7 7 0 1 1-14 0v-7.887c-29.524 35.58-45.625 80.022-45.625 126.701 0 77.562 45.597 148.527 116.163 180.792a7.001 7.001 0 0 1 3.455 9.277zm-29.748-206.402v145.905a7 7 0 0 0 7 7c37.625 0 71.689 8.496 101.246 25.25.105.06.216.103.323.156.122.061.242.124.367.177.173.074.349.135.525.195.121.041.24.086.363.12.199.055.4.093.602.131.108.02.213.048.323.063.314.043.631.068.948.068s.633-.025.948-.068c.11-.015.215-.043.323-.063.202-.037.403-.076.602-.131.124-.034.242-.08.363-.12.177-.06.353-.12.525-.195.125-.054.245-.116.367-.177.107-.054.218-.097.323-.156 29.557-16.755 63.621-25.25 101.247-25.25a7 7 0 0 0 7-7V258.243a7 7 0 0 0-7-7c-7.777 0-15.54.366-23.17 1.087v-12.25a7 7 0 0 0-7-7c-21.538 0-56.211 11.284-74.529 36.073-18.318-24.789-52.991-36.073-74.529-36.073a7 7 0 0 0-7 7v12.25a246.785 246.785 0 0 0-23.169-1.087 7 7 0 0 0-6.998 7zm209.397 7.104v131.895c-24.822.667-48.172 4.905-69.807 12.641 15.07-9.974 33.641-15.161 46.637-15.161a7 7 0 0 0 7-7v-121.32a230.417 230.417 0 0 1 16.17-1.055zm-30.17-17.827v133.559c-18.692 1.825-43.558 10.681-60.529 27.626V284.337c11.226-21.722 39.901-34.368 60.529-36.817zm-135.058 0c20.628 2.449 49.303 15.096 60.529 36.818v124.368c-16.972-16.945-41.837-25.801-60.529-27.626zm-30.169 17.827c5.435.162 10.838.519 16.169 1.055v121.32a7 7 0 0 0 7 7c12.996 0 31.567 5.187 46.637 15.161-21.635-7.736-44.984-11.974-69.806-12.641zm81.844 66.803a7.001 7.001 0 0 1-9.167 3.736l-29.229-12.303a7 7 0 0 1 5.432-12.903l29.229 12.303a7 7 0 0 1 3.735 9.167zm-42.131-54.112a6.998 6.998 0 0 1 9.167-3.736l29.229 12.302a7.001 7.001 0 0 1-2.719 13.453 6.987 6.987 0 0 1-2.713-.55l-29.229-12.302a7 7 0 0 1-3.735-9.167zm42.131 90.49a7.001 7.001 0 0 1-9.167 3.736l-29.229-12.303a7 7 0 0 1 5.432-12.903l29.229 12.303a7 7 0 0 1 3.735 9.167zm73.838-54.112a7 7 0 0 1-3.735 9.167l-29.229 12.303a7 7 0 0 1-9.167-3.736 7 7 0 0 1 3.735-9.167l29.229-12.303a7 7 0 0 1 9.167 3.736zm-38.395-27.812 29.229-12.302a7 7 0 1 1 5.432 12.903l-29.229 12.302a7.002 7.002 0 0 1-5.432-12.903zm38.395 64.19a7 7 0 0 1-3.735 9.167l-29.229 12.303a7 7 0 0 1-9.167-3.736 7 7 0 0 1 3.735-9.167l29.229-12.303a7 7 0 0 1 9.167 3.736zM179.979 199.545c15.06 3.94 31.226 5.91 47.392 5.91s32.332-1.97 47.391-5.91a7 7 0 0 0 5.229-6.772V162.55l32.452-11.018a7 7 0 0 0 0-13.256l-82.822-28.119a7.004 7.004 0 0 0-4.5 0L142.3 138.276a7 7 0 0 0-4.75 6.628v55.794l-5.382 13.79c-.344.88-.24 1.794.293 2.574s1.346 1.209 2.291 1.209h19.594c.944 0 1.758-.429 2.291-1.209a2.7 2.7 0 0 0 .294-2.574l-5.381-13.789v-46.026l23.202 7.877v30.223a6.997 6.997 0 0 0 5.227 6.772zm86.011-12.272c-24.826 5.594-52.411 5.594-77.239 0v-19.97l36.369 12.348a6.984 6.984 0 0 0 4.5 0l36.37-12.348zm-38.62-63.096 61.049 20.727-61.049 20.726-61.048-20.727z" clip-rule="evenodd" fill="#ffffff" opacity="1" data-original="#000000"></path></g></svg>